<svg xmlns="http://www.w3.org/2000/svg" width="1024" height="1024" viewBox="0 0 37 37" shape-rendering="crispEdges"><path fill="#0A0A0A" d="M0 0h37v37H0z"/><path stroke="#66BB6A" d="M2 2.5h7m2 0h2m3 0h2m1 0h4m2 0h2m1 0h7M2 3.5h1m5 0h1m2 0h2m1 0h1m1 0h4m2 0h1m2 0h1m2 0h1m5 0h1M2 4.5h1m1 0h3m1 0h1m3 0h2m2 0h2m2 0h2m3 0h1m2 0h1m1 0h3m1 0h1M2 5.5h1m1 0h3m1 0h1m6 0h2m1 0h1m1 0h1m1 0h1m1 0h2m2 0h1m1 0h3m1 0h1M2 6.5h1m1 0h3m1 0h1m1 0h4m2 0h1m1 0h3m2 0h1m2 0h1m1 0h1m1 0h3m1 0h1M2 7.5h1m5 0h1m2 0h4m1 0h1m2 0h1m1 0h3m2 0h1m1 0h1m5 0h1M2 8.5h7m1 0h1m1 0h1m1 0h1m1 0h1m1 0h1m1 0h1m1 0h1m1 0h1m1 0h1m1 0h7M10 9.5h2m5 0h1m1 0h1m1 0h1m3 0h1M4 10.5h2m2 0h3m8 0h5m3 0h2m1 0h1M3 11.5h4m2 0h5m1 0h3m2 0h1m2 0h6m2 0h4M4 12.5h1m1 0h1m1 0h3m5 0h3m1 0h3m2 0h1m2 0h1m2 0h1m1 0h2M4 13.5h2m4 0h3m1 0h1m4 0h3m2 0h1m4 0h2m2 0h2M4 14.5h1m2 0h2m1 0h1m1 0h1m2 0h2m1 0h2m2 0h1m1 0h1m1 0h1m2 0h2m2 0h1M2 15.5h3m1 0h2m1 0h3m2 0h1m1 0h2m1 0h1m1 0h1m1 0h2m1 0h1m2 0h1m1 0h1M2 16.5h1m2 0h4m1 0h2m3 0h1m1 0h2m1 0h4m3 0h4m1 0h1M6 17.5h1m5 0h1m2 0h1m1 0h1m2 0h1m1 0h4m5 0h2m1 0h1M2 18.5h1m5 0h3m1 0h2m1 0h4m2 0h3m2 0h3m1 0h3m1 0h1M4 19.5h3m5 0h3m2 0h3m4 0h2m1 0h4m1 0h1m1 0h1M2 20.5h4m2 0h4m1 0h1m1 0h2m1 0h1m2 0h2m1 0h1m2 0h2m1 0h1m1 0h2M3 21.5h5m1 0h1m3 0h1m5 0h1m2 0h1m1 0h1m3 0h1m4 0h2M2 22.5h1m5 0h1m1 0h1m1 0h1m1 0h2m1 0h1m4 0h2m3 0h1m3 0h2M2 23.5h6m1 0h2m2 0h2m3 0h2m1 0h3m1 0h1m2 0h1m4 0h2M4 24.5h2m1 0h2m3 0h1m1 0h2m2 0h2m1 0h1m1 0h3m2 0h1m1 0h1m2 0h2M3 25.5h2m1 0h2m2 0h2m3 0h3m2 0h1m1 0h1m1 0h4m2 0h2m1 0h1M2 26.5h1m5 0h3m3 0h1m1 0h2m1 0h1m1 0h2m1 0h8m2 0h1M10 27.5h1m1 0h1m1 0h1m1 0h1m2 0h2m5 0h1m3 0h1m1 0h2M2 28.5h7m1 0h1m2 0h1m1 0h1m3 0h3m2 0h3m1 0h1m1 0h2M2 29.5h1m5 0h1m2 0h3m4 0h1m4 0h1m1 0h2m3 0h5M2 30.5h1m1 0h3m1 0h1m5 0h2m2 0h2m1 0h1m3 0h6m1 0h2M2 31.5h1m1 0h3m1 0h1m1 0h3m1 0h4m3 0h2m1 0h3m2 0h1m3 0h2M2 32.5h1m1 0h3m1 0h1m1 0h1m1 0h3m4 0h1m1 0h2m1 0h2m1 0h2m2 0h1M2 33.5h1m5 0h1m2 0h1m1 0h3m1 0h1m1 0h1m1 0h1m3 0h3m6 0h1M2 34.5h7m2 0h2m1 0h1m1 0h1m1 0h1m4 0h1m1 0h1m3 0h2m1 0h1"/>
  <rect x="13.2" y="15.2" width="10.6" height="6.6" rx="0.5" fill="#0A0A0A"/>
  <rect x="13.7" y="15.7" width="9.6" height="5.6" rx="0.3" fill="#141414" stroke="#66BB6A" stroke-width="0.15"/>
  <text x="18.5" y="18.3" text-anchor="middle" dominant-baseline="middle" font-family="Arial Black, Impact, sans-serif" font-weight="900" font-size="3.2" fill="#F5F5F5" letter-spacing="0.3">VYRA</text>
  <text x="18.5" y="20.3" text-anchor="middle" dominant-baseline="middle" font-family="Arial, sans-serif" font-weight="700" font-size="1.2" fill="#66BB6A" letter-spacing="0.4">NIGHT SHOP</text>

</svg>
