<?xml version="1.0" encoding="UTF-8"?><svg xmlns="http://www.w3.org/2000/svg" xmlns:xlink="http://www.w3.org/1999/xlink" width="1080" height="1920" viewBox="0 0 1080 1920"><defs>
    <radialGradient id="story-bg" cx="50%" cy="40%" r="80%">
      <stop offset="0%" stop-color="#0A0A0A"/>
      <stop offset="100%" stop-color="#050505"/>
    </radialGradient>
    <filter id="story-qr-halo" x="-20%" y="-20%" width="140%" height="140%">
      <feGaussianBlur stdDeviation="12"/>
    </filter>
    <filter id="story-neon-glow" x="-50%" y="-50%" width="200%" height="200%">
      <feGaussianBlur stdDeviation="2.2" result="b1"/>
      <feGaussianBlur in="SourceGraphic" stdDeviation="5" result="b2"/>
      <feMerge>
        <feMergeNode in="b2"/>
        <feMergeNode in="b1"/>
        <feMergeNode in="SourceGraphic"/>
      </feMerge>
    </filter>
    <filter id="story-noise">
      <feTurbulence type="fractalNoise" baseFrequency="0.9" numOctaves="2" stitchTiles="stitch"/>
      <feColorMatrix type="matrix" values="0 0 0 0 1  0 0 0 0 1  0 0 0 0 1  0 0 0 0.5 0"/>
    </filter>
    <pattern id="story-grain" x="0" y="0" width="256" height="256" patternUnits="userSpaceOnUse">
      <rect width="256" height="256" filter="url(#story-noise)"/>
    </pattern></defs><rect x="0" y="0" width="1080" height="1920" fill="url(#story-bg)"/><rect x="200" y="598"
    width="680" height="680" rx="16"
    fill="#66BB6A" opacity="0.22" filter="url(#story-qr-halo)"/><g transform="translate(220, 618) scale(0.625)"><defs>
      <filter id="qr-badge-halo" x="-50%" y="-50%" width="200%" height="200%">
        <feGaussianBlur stdDeviation="6"/>
      </filter>
      <filter id="qr-noise">
        <feTurbulence type="fractalNoise" baseFrequency="0.9" numOctaves="2" stitchTiles="stitch"/>
        <feColorMatrix type="matrix" values="0 0 0 0 1  0 0 0 0 1  0 0 0 0 1  0 0 0 0.5 0"/>
      </filter>
      <pattern id="qr-grain" x="0" y="0" width="200" height="200" patternUnits="userSpaceOnUse">
        <rect width="200" height="200" filter="url(#qr-noise)"/>
      </pattern></defs><defs><clipPath id="clip-path-background-color-0"><rect x="0" y="0" width="1024" height="1024"/></clipPath><clipPath id="clip-path-dot-color-0"><circle cx="302" cy="32" r="15" transform="rotate(0,302,32)"/><circle cx="332" cy="32" r="15" transform="rotate(0,332,32)"/><circle cx="452" cy="32" r="15" transform="rotate(0,452,32)"/><circle cx="482" cy="32" r="15" transform="rotate(0,482,32)"/><circle cx="542" cy="32" r="15" transform="rotate(0,542,32)"/><circle cx="572" cy="32" r="15" transform="rotate(0,572,32)"/><circle cx="602" cy="32" r="15" transform="rotate(0,602,32)"/><circle cx="632" cy="32" r="15" transform="rotate(0,632,32)"/><circle cx="722" cy="32" r="15" transform="rotate(0,722,32)"/><circle cx="752" cy="32" r="15" transform="rotate(0,752,32)"/><circle cx="302" cy="62" r="15" transform="rotate(0,302,62)"/><circle cx="332" cy="62" r="15" transform="rotate(0,332,62)"/><circle cx="392" cy="62" r="15" transform="rotate(0,392,62)"/><circle cx="452" cy="62" r="15" transform="rotate(0,452,62)"/><circle cx="482" cy="62" r="15" transform="rotate(0,482,62)"/><circle cx="512" cy="62" r="15" transform="rotate(0,512,62)"/><circle cx="542" cy="62" r="15" transform="rotate(0,542,62)"/><circle cx="632" cy="62" r="15" transform="rotate(0,632,62)"/><circle cx="722" cy="62" r="15" transform="rotate(0,722,62)"/><circle cx="332" cy="92" r="15" transform="rotate(0,332,92)"/><circle cx="362" cy="92" r="15" transform="rotate(0,362,92)"/><circle cx="452" cy="92" r="15" transform="rotate(0,452,92)"/><circle cx="482" cy="92" r="15" transform="rotate(0,482,92)"/><circle cx="572" cy="92" r="15" transform="rotate(0,572,92)"/><circle cx="602" cy="92" r="15" transform="rotate(0,602,92)"/><circle cx="722" cy="92" r="15" transform="rotate(0,722,92)"/><circle cx="422" cy="122" r="15" transform="rotate(0,422,122)"/><circle cx="452" cy="122" r="15" transform="rotate(0,452,122)"/><circle cx="512" cy="122" r="15" transform="rotate(0,512,122)"/><circle cx="572" cy="122" r="15" transform="rotate(0,572,122)"/><circle cx="632" cy="122" r="15" transform="rotate(0,632,122)"/><circle cx="692" cy="122" r="15" transform="rotate(0,692,122)"/><circle cx="722" cy="122" r="15" transform="rotate(0,722,122)"/><circle cx="272" cy="152" r="15" transform="rotate(0,272,152)"/><circle cx="302" cy="152" r="15" transform="rotate(0,302,152)"/><circle cx="332" cy="152" r="15" transform="rotate(0,332,152)"/><circle cx="362" cy="152" r="15" transform="rotate(0,362,152)"/><circle cx="452" cy="152" r="15" transform="rotate(0,452,152)"/><circle cx="512" cy="152" r="15" transform="rotate(0,512,152)"/><circle cx="542" cy="152" r="15" transform="rotate(0,542,152)"/><circle cx="572" cy="152" r="15" transform="rotate(0,572,152)"/><circle cx="662" cy="152" r="15" transform="rotate(0,662,152)"/><circle cx="752" cy="152" r="15" transform="rotate(0,752,152)"/><circle cx="302" cy="182" r="15" transform="rotate(0,302,182)"/><circle cx="332" cy="182" r="15" transform="rotate(0,332,182)"/><circle cx="362" cy="182" r="15" transform="rotate(0,362,182)"/><circle cx="392" cy="182" r="15" transform="rotate(0,392,182)"/><circle cx="452" cy="182" r="15" transform="rotate(0,452,182)"/><circle cx="542" cy="182" r="15" transform="rotate(0,542,182)"/><circle cx="602" cy="182" r="15" transform="rotate(0,602,182)"/><circle cx="632" cy="182" r="15" transform="rotate(0,632,182)"/><circle cx="662" cy="182" r="15" transform="rotate(0,662,182)"/><circle cx="752" cy="182" r="15" transform="rotate(0,752,182)"/><circle cx="272" cy="212" r="15" transform="rotate(0,272,212)"/><circle cx="332" cy="212" r="15" transform="rotate(0,332,212)"/><circle cx="392" cy="212" r="15" transform="rotate(0,392,212)"/><circle cx="452" cy="212" r="15" transform="rotate(0,452,212)"/><circle cx="512" cy="212" r="15" transform="rotate(0,512,212)"/><circle cx="572" cy="212" r="15" transform="rotate(0,572,212)"/><circle cx="632" cy="212" r="15" transform="rotate(0,632,212)"/><circle cx="692" cy="212" r="15" transform="rotate(0,692,212)"/><circle cx="752" cy="212" r="15" transform="rotate(0,752,212)"/><circle cx="272" cy="242" r="15" transform="rotate(0,272,242)"/><circle cx="302" cy="242" r="15" transform="rotate(0,302,242)"/><circle cx="482" cy="242" r="15" transform="rotate(0,482,242)"/><circle cx="542" cy="242" r="15" transform="rotate(0,542,242)"/><circle cx="602" cy="242" r="15" transform="rotate(0,602,242)"/><circle cx="722" cy="242" r="15" transform="rotate(0,722,242)"/><circle cx="92" cy="272" r="15" transform="rotate(0,92,272)"/><circle cx="122" cy="272" r="15" transform="rotate(0,122,272)"/><circle cx="212" cy="272" r="15" transform="rotate(0,212,272)"/><circle cx="242" cy="272" r="15" transform="rotate(0,242,272)"/><circle cx="272" cy="272" r="15" transform="rotate(0,272,272)"/><circle cx="542" cy="272" r="15" transform="rotate(0,542,272)"/><circle cx="572" cy="272" r="15" transform="rotate(0,572,272)"/><circle cx="602" cy="272" r="15" transform="rotate(0,602,272)"/><circle cx="632" cy="272" r="15" transform="rotate(0,632,272)"/><circle cx="662" cy="272" r="15" transform="rotate(0,662,272)"/><circle cx="782" cy="272" r="15" transform="rotate(0,782,272)"/><circle cx="812" cy="272" r="15" transform="rotate(0,812,272)"/><circle cx="872" cy="272" r="15" transform="rotate(0,872,272)"/><circle cx="62" cy="302" r="15" transform="rotate(0,62,302)"/><circle cx="92" cy="302" r="15" transform="rotate(0,92,302)"/><circle cx="122" cy="302" r="15" transform="rotate(0,122,302)"/><circle cx="152" cy="302" r="15" transform="rotate(0,152,302)"/><circle cx="242" cy="302" r="15" transform="rotate(0,242,302)"/><circle cx="272" cy="302" r="15" transform="rotate(0,272,302)"/><circle cx="302" cy="302" r="15" transform="rotate(0,302,302)"/><circle cx="332" cy="302" r="15" transform="rotate(0,332,302)"/><circle cx="362" cy="302" r="15" transform="rotate(0,362,302)"/><circle cx="422" cy="302" r="15" transform="rotate(0,422,302)"/><circle cx="452" cy="302" r="15" transform="rotate(0,452,302)"/><circle cx="482" cy="302" r="15" transform="rotate(0,482,302)"/><circle cx="572" cy="302" r="15" transform="rotate(0,572,302)"/><circle cx="662" cy="302" r="15" transform="rotate(0,662,302)"/><circle cx="692" cy="302" r="15" transform="rotate(0,692,302)"/><circle cx="722" cy="302" r="15" transform="rotate(0,722,302)"/><circle cx="752" cy="302" r="15" transform="rotate(0,752,302)"/><circle cx="782" cy="302" r="15" transform="rotate(0,782,302)"/><circle cx="812" cy="302" r="15" transform="rotate(0,812,302)"/><circle cx="902" cy="302" r="15" transform="rotate(0,902,302)"/><circle cx="932" cy="302" r="15" transform="rotate(0,932,302)"/><circle cx="962" cy="302" r="15" transform="rotate(0,962,302)"/><circle cx="992" cy="302" r="15" transform="rotate(0,992,302)"/><circle cx="92" cy="332" r="15" transform="rotate(0,92,332)"/><circle cx="152" cy="332" r="15" transform="rotate(0,152,332)"/><circle cx="212" cy="332" r="15" transform="rotate(0,212,332)"/><circle cx="242" cy="332" r="15" transform="rotate(0,242,332)"/><circle cx="272" cy="332" r="15" transform="rotate(0,272,332)"/><circle cx="452" cy="332" r="15" transform="rotate(0,452,332)"/><circle cx="482" cy="332" r="15" transform="rotate(0,482,332)"/><circle cx="512" cy="332" r="15" transform="rotate(0,512,332)"/><circle cx="572" cy="332" r="15" transform="rotate(0,572,332)"/><circle cx="602" cy="332" r="15" transform="rotate(0,602,332)"/><circle cx="632" cy="332" r="15" transform="rotate(0,632,332)"/><circle cx="722" cy="332" r="15" transform="rotate(0,722,332)"/><circle cx="812" cy="332" r="15" transform="rotate(0,812,332)"/><circle cx="902" cy="332" r="15" transform="rotate(0,902,332)"/><circle cx="962" cy="332" r="15" transform="rotate(0,962,332)"/><circle cx="992" cy="332" r="15" transform="rotate(0,992,332)"/><circle cx="92" cy="362" r="15" transform="rotate(0,92,362)"/><circle cx="122" cy="362" r="15" transform="rotate(0,122,362)"/><circle cx="272" cy="362" r="15" transform="rotate(0,272,362)"/><circle cx="302" cy="362" r="15" transform="rotate(0,302,362)"/><circle cx="332" cy="362" r="15" transform="rotate(0,332,362)"/><circle cx="392" cy="362" r="15" transform="rotate(0,392,362)"/><circle cx="542" cy="362" r="15" transform="rotate(0,542,362)"/><circle cx="572" cy="362" r="15" transform="rotate(0,572,362)"/><circle cx="602" cy="362" r="15" transform="rotate(0,602,362)"/><circle cx="692" cy="362" r="15" transform="rotate(0,692,362)"/><circle cx="842" cy="362" r="15" transform="rotate(0,842,362)"/><circle cx="872" cy="362" r="15" transform="rotate(0,872,362)"/><circle cx="962" cy="362" r="15" transform="rotate(0,962,362)"/><circle cx="992" cy="362" r="15" transform="rotate(0,992,362)"/><circle cx="92" cy="392" r="15" transform="rotate(0,92,392)"/><circle cx="182" cy="392" r="15" transform="rotate(0,182,392)"/><circle cx="212" cy="392" r="15" transform="rotate(0,212,392)"/><circle cx="272" cy="392" r="15" transform="rotate(0,272,392)"/><circle cx="332" cy="392" r="15" transform="rotate(0,332,392)"/><circle cx="422" cy="392" r="15" transform="rotate(0,422,392)"/><circle cx="452" cy="392" r="15" transform="rotate(0,452,392)"/><circle cx="512" cy="392" r="15" transform="rotate(0,512,392)"/><circle cx="542" cy="392" r="15" transform="rotate(0,542,392)"/><circle cx="632" cy="392" r="15" transform="rotate(0,632,392)"/><circle cx="692" cy="392" r="15" transform="rotate(0,692,392)"/><circle cx="752" cy="392" r="15" transform="rotate(0,752,392)"/><circle cx="842" cy="392" r="15" transform="rotate(0,842,392)"/><circle cx="872" cy="392" r="15" transform="rotate(0,872,392)"/><circle cx="962" cy="392" r="15" transform="rotate(0,962,392)"/><circle cx="32" cy="422" r="15" transform="rotate(0,32,422)"/><circle cx="62" cy="422" r="15" transform="rotate(0,62,422)"/><circle cx="92" cy="422" r="15" transform="rotate(0,92,422)"/><circle cx="152" cy="422" r="15" transform="rotate(0,152,422)"/><circle cx="182" cy="422" r="15" transform="rotate(0,182,422)"/><circle cx="242" cy="422" r="15" transform="rotate(0,242,422)"/><circle cx="272" cy="422" r="15" transform="rotate(0,272,422)"/><circle cx="302" cy="422" r="15" transform="rotate(0,302,422)"/><circle cx="392" cy="422" r="15" transform="rotate(0,392,422)"/><circle cx="452" cy="422" r="15" transform="rotate(0,452,422)"/><circle cx="482" cy="422" r="15" transform="rotate(0,482,422)"/><circle cx="542" cy="422" r="15" transform="rotate(0,542,422)"/><circle cx="602" cy="422" r="15" transform="rotate(0,602,422)"/><circle cx="662" cy="422" r="15" transform="rotate(0,662,422)"/><circle cx="692" cy="422" r="15" transform="rotate(0,692,422)"/><circle cx="752" cy="422" r="15" transform="rotate(0,752,422)"/><circle cx="842" cy="422" r="15" transform="rotate(0,842,422)"/><circle cx="902" cy="422" r="15" transform="rotate(0,902,422)"/><circle cx="32" cy="452" r="15" transform="rotate(0,32,452)"/><circle cx="122" cy="452" r="15" transform="rotate(0,122,452)"/><circle cx="152" cy="452" r="15" transform="rotate(0,152,452)"/><circle cx="182" cy="452" r="15" transform="rotate(0,182,452)"/><circle cx="212" cy="452" r="15" transform="rotate(0,212,452)"/><circle cx="272" cy="452" r="15" transform="rotate(0,272,452)"/><circle cx="302" cy="452" r="15" transform="rotate(0,302,452)"/><circle cx="422" cy="452" r="15" transform="rotate(0,422,452)"/><circle cx="482" cy="452" r="15" transform="rotate(0,482,452)"/><circle cx="512" cy="452" r="15" transform="rotate(0,512,452)"/><circle cx="572" cy="452" r="15" transform="rotate(0,572,452)"/><circle cx="602" cy="452" r="15" transform="rotate(0,602,452)"/><circle cx="632" cy="452" r="15" transform="rotate(0,632,452)"/><circle cx="662" cy="452" r="15" transform="rotate(0,662,452)"/><circle cx="782" cy="452" r="15" transform="rotate(0,782,452)"/><circle cx="812" cy="452" r="15" transform="rotate(0,812,452)"/><circle cx="842" cy="452" r="15" transform="rotate(0,842,452)"/><circle cx="872" cy="452" r="15" transform="rotate(0,872,452)"/><circle cx="932" cy="452" r="15" transform="rotate(0,932,452)"/><circle cx="152" cy="482" r="15" transform="rotate(0,152,482)"/><circle cx="332" cy="482" r="15" transform="rotate(0,332,482)"/><circle cx="422" cy="482" r="15" transform="rotate(0,422,482)"/><circle cx="482" cy="482" r="15" transform="rotate(0,482,482)"/><circle cx="572" cy="482" r="15" transform="rotate(0,572,482)"/><circle cx="632" cy="482" r="15" transform="rotate(0,632,482)"/><circle cx="662" cy="482" r="15" transform="rotate(0,662,482)"/><circle cx="692" cy="482" r="15" transform="rotate(0,692,482)"/><circle cx="722" cy="482" r="15" transform="rotate(0,722,482)"/><circle cx="902" cy="482" r="15" transform="rotate(0,902,482)"/><circle cx="932" cy="482" r="15" transform="rotate(0,932,482)"/><circle cx="992" cy="482" r="15" transform="rotate(0,992,482)"/><circle cx="32" cy="512" r="15" transform="rotate(0,32,512)"/><circle cx="212" cy="512" r="15" transform="rotate(0,212,512)"/><circle cx="242" cy="512" r="15" transform="rotate(0,242,512)"/><circle cx="272" cy="512" r="15" transform="rotate(0,272,512)"/><circle cx="332" cy="512" r="15" transform="rotate(0,332,512)"/><circle cx="362" cy="512" r="15" transform="rotate(0,362,512)"/><circle cx="422" cy="512" r="15" transform="rotate(0,422,512)"/><circle cx="452" cy="512" r="15" transform="rotate(0,452,512)"/><circle cx="482" cy="512" r="15" transform="rotate(0,482,512)"/><circle cx="512" cy="512" r="15" transform="rotate(0,512,512)"/><circle cx="602" cy="512" r="15" transform="rotate(0,602,512)"/><circle cx="632" cy="512" r="15" transform="rotate(0,632,512)"/><circle cx="662" cy="512" r="15" transform="rotate(0,662,512)"/><circle cx="752" cy="512" r="15" transform="rotate(0,752,512)"/><circle cx="782" cy="512" r="15" transform="rotate(0,782,512)"/><circle cx="812" cy="512" r="15" transform="rotate(0,812,512)"/><circle cx="872" cy="512" r="15" transform="rotate(0,872,512)"/><circle cx="902" cy="512" r="15" transform="rotate(0,902,512)"/><circle cx="932" cy="512" r="15" transform="rotate(0,932,512)"/><circle cx="992" cy="512" r="15" transform="rotate(0,992,512)"/><circle cx="92" cy="542" r="15" transform="rotate(0,92,542)"/><circle cx="122" cy="542" r="15" transform="rotate(0,122,542)"/><circle cx="152" cy="542" r="15" transform="rotate(0,152,542)"/><circle cx="332" cy="542" r="15" transform="rotate(0,332,542)"/><circle cx="362" cy="542" r="15" transform="rotate(0,362,542)"/><circle cx="392" cy="542" r="15" transform="rotate(0,392,542)"/><circle cx="482" cy="542" r="15" transform="rotate(0,482,542)"/><circle cx="512" cy="542" r="15" transform="rotate(0,512,542)"/><circle cx="542" cy="542" r="15" transform="rotate(0,542,542)"/><circle cx="692" cy="542" r="15" transform="rotate(0,692,542)"/><circle cx="722" cy="542" r="15" transform="rotate(0,722,542)"/><circle cx="782" cy="542" r="15" transform="rotate(0,782,542)"/><circle cx="812" cy="542" r="15" transform="rotate(0,812,542)"/><circle cx="842" cy="542" r="15" transform="rotate(0,842,542)"/><circle cx="872" cy="542" r="15" transform="rotate(0,872,542)"/><circle cx="932" cy="542" r="15" transform="rotate(0,932,542)"/><circle cx="992" cy="542" r="15" transform="rotate(0,992,542)"/><circle cx="32" cy="572" r="15" transform="rotate(0,32,572)"/><circle cx="62" cy="572" r="15" transform="rotate(0,62,572)"/><circle cx="92" cy="572" r="15" transform="rotate(0,92,572)"/><circle cx="122" cy="572" r="15" transform="rotate(0,122,572)"/><circle cx="212" cy="572" r="15" transform="rotate(0,212,572)"/><circle cx="242" cy="572" r="15" transform="rotate(0,242,572)"/><circle cx="272" cy="572" r="15" transform="rotate(0,272,572)"/><circle cx="302" cy="572" r="15" transform="rotate(0,302,572)"/><circle cx="362" cy="572" r="15" transform="rotate(0,362,572)"/><circle cx="422" cy="572" r="15" transform="rotate(0,422,572)"/><circle cx="452" cy="572" r="15" transform="rotate(0,452,572)"/><circle cx="512" cy="572" r="15" transform="rotate(0,512,572)"/><circle cx="602" cy="572" r="15" transform="rotate(0,602,572)"/><circle cx="632" cy="572" r="15" transform="rotate(0,632,572)"/><circle cx="692" cy="572" r="15" transform="rotate(0,692,572)"/><circle cx="782" cy="572" r="15" transform="rotate(0,782,572)"/><circle cx="812" cy="572" r="15" transform="rotate(0,812,572)"/><circle cx="872" cy="572" r="15" transform="rotate(0,872,572)"/><circle cx="932" cy="572" r="15" transform="rotate(0,932,572)"/><circle cx="962" cy="572" r="15" transform="rotate(0,962,572)"/><circle cx="62" cy="602" r="15" transform="rotate(0,62,602)"/><circle cx="92" cy="602" r="15" transform="rotate(0,92,602)"/><circle cx="122" cy="602" r="15" transform="rotate(0,122,602)"/><circle cx="152" cy="602" r="15" transform="rotate(0,152,602)"/><circle cx="182" cy="602" r="15" transform="rotate(0,182,602)"/><circle cx="242" cy="602" r="15" transform="rotate(0,242,602)"/><circle cx="362" cy="602" r="15" transform="rotate(0,362,602)"/><circle cx="542" cy="602" r="15" transform="rotate(0,542,602)"/><circle cx="632" cy="602" r="15" transform="rotate(0,632,602)"/><circle cx="692" cy="602" r="15" transform="rotate(0,692,602)"/><circle cx="812" cy="602" r="15" transform="rotate(0,812,602)"/><circle cx="962" cy="602" r="15" transform="rotate(0,962,602)"/><circle cx="992" cy="602" r="15" transform="rotate(0,992,602)"/><circle cx="32" cy="632" r="15" transform="rotate(0,32,632)"/><circle cx="212" cy="632" r="15" transform="rotate(0,212,632)"/><circle cx="272" cy="632" r="15" transform="rotate(0,272,632)"/><circle cx="332" cy="632" r="15" transform="rotate(0,332,632)"/><circle cx="392" cy="632" r="15" transform="rotate(0,392,632)"/><circle cx="422" cy="632" r="15" transform="rotate(0,422,632)"/><circle cx="482" cy="632" r="15" transform="rotate(0,482,632)"/><circle cx="632" cy="632" r="15" transform="rotate(0,632,632)"/><circle cx="662" cy="632" r="15" transform="rotate(0,662,632)"/><circle cx="782" cy="632" r="15" transform="rotate(0,782,632)"/><circle cx="902" cy="632" r="15" transform="rotate(0,902,632)"/><circle cx="932" cy="632" r="15" transform="rotate(0,932,632)"/><circle cx="32" cy="662" r="15" transform="rotate(0,32,662)"/><circle cx="62" cy="662" r="15" transform="rotate(0,62,662)"/><circle cx="92" cy="662" r="15" transform="rotate(0,92,662)"/><circle cx="122" cy="662" r="15" transform="rotate(0,122,662)"/><circle cx="152" cy="662" r="15" transform="rotate(0,152,662)"/><circle cx="182" cy="662" r="15" transform="rotate(0,182,662)"/><circle cx="242" cy="662" r="15" transform="rotate(0,242,662)"/><circle cx="272" cy="662" r="15" transform="rotate(0,272,662)"/><circle cx="362" cy="662" r="15" transform="rotate(0,362,662)"/><circle cx="392" cy="662" r="15" transform="rotate(0,392,662)"/><circle cx="512" cy="662" r="15" transform="rotate(0,512,662)"/><circle cx="542" cy="662" r="15" transform="rotate(0,542,662)"/><circle cx="602" cy="662" r="15" transform="rotate(0,602,662)"/><circle cx="632" cy="662" r="15" transform="rotate(0,632,662)"/><circle cx="662" cy="662" r="15" transform="rotate(0,662,662)"/><circle cx="722" cy="662" r="15" transform="rotate(0,722,662)"/><circle cx="812" cy="662" r="15" transform="rotate(0,812,662)"/><circle cx="962" cy="662" r="15" transform="rotate(0,962,662)"/><circle cx="992" cy="662" r="15" transform="rotate(0,992,662)"/><circle cx="92" cy="692" r="15" transform="rotate(0,92,692)"/><circle cx="122" cy="692" r="15" transform="rotate(0,122,692)"/><circle cx="182" cy="692" r="15" transform="rotate(0,182,692)"/><circle cx="212" cy="692" r="15" transform="rotate(0,212,692)"/><circle cx="332" cy="692" r="15" transform="rotate(0,332,692)"/><circle cx="392" cy="692" r="15" transform="rotate(0,392,692)"/><circle cx="422" cy="692" r="15" transform="rotate(0,422,692)"/><circle cx="512" cy="692" r="15" transform="rotate(0,512,692)"/><circle cx="542" cy="692" r="15" transform="rotate(0,542,692)"/><circle cx="602" cy="692" r="15" transform="rotate(0,602,692)"/><circle cx="662" cy="692" r="15" transform="rotate(0,662,692)"/><circle cx="692" cy="692" r="15" transform="rotate(0,692,692)"/><circle cx="722" cy="692" r="15" transform="rotate(0,722,692)"/><circle cx="812" cy="692" r="15" transform="rotate(0,812,692)"/><circle cx="872" cy="692" r="15" transform="rotate(0,872,692)"/><circle cx="962" cy="692" r="15" transform="rotate(0,962,692)"/><circle cx="992" cy="692" r="15" transform="rotate(0,992,692)"/><circle cx="62" cy="722" r="15" transform="rotate(0,62,722)"/><circle cx="92" cy="722" r="15" transform="rotate(0,92,722)"/><circle cx="152" cy="722" r="15" transform="rotate(0,152,722)"/><circle cx="182" cy="722" r="15" transform="rotate(0,182,722)"/><circle cx="272" cy="722" r="15" transform="rotate(0,272,722)"/><circle cx="302" cy="722" r="15" transform="rotate(0,302,722)"/><circle cx="422" cy="722" r="15" transform="rotate(0,422,722)"/><circle cx="452" cy="722" r="15" transform="rotate(0,452,722)"/><circle cx="482" cy="722" r="15" transform="rotate(0,482,722)"/><circle cx="572" cy="722" r="15" transform="rotate(0,572,722)"/><circle cx="632" cy="722" r="15" transform="rotate(0,632,722)"/><circle cx="692" cy="722" r="15" transform="rotate(0,692,722)"/><circle cx="722" cy="722" r="15" transform="rotate(0,722,722)"/><circle cx="752" cy="722" r="15" transform="rotate(0,752,722)"/><circle cx="782" cy="722" r="15" transform="rotate(0,782,722)"/><circle cx="872" cy="722" r="15" transform="rotate(0,872,722)"/><circle cx="902" cy="722" r="15" transform="rotate(0,902,722)"/><circle cx="962" cy="722" r="15" transform="rotate(0,962,722)"/><circle cx="32" cy="752" r="15" transform="rotate(0,32,752)"/><circle cx="212" cy="752" r="15" transform="rotate(0,212,752)"/><circle cx="242" cy="752" r="15" transform="rotate(0,242,752)"/><circle cx="272" cy="752" r="15" transform="rotate(0,272,752)"/><circle cx="392" cy="752" r="15" transform="rotate(0,392,752)"/><circle cx="452" cy="752" r="15" transform="rotate(0,452,752)"/><circle cx="482" cy="752" r="15" transform="rotate(0,482,752)"/><circle cx="542" cy="752" r="15" transform="rotate(0,542,752)"/><circle cx="602" cy="752" r="15" transform="rotate(0,602,752)"/><circle cx="632" cy="752" r="15" transform="rotate(0,632,752)"/><circle cx="692" cy="752" r="15" transform="rotate(0,692,752)"/><circle cx="722" cy="752" r="15" transform="rotate(0,722,752)"/><circle cx="752" cy="752" r="15" transform="rotate(0,752,752)"/><circle cx="782" cy="752" r="15" transform="rotate(0,782,752)"/><circle cx="812" cy="752" r="15" transform="rotate(0,812,752)"/><circle cx="842" cy="752" r="15" transform="rotate(0,842,752)"/><circle cx="872" cy="752" r="15" transform="rotate(0,872,752)"/><circle cx="902" cy="752" r="15" transform="rotate(0,902,752)"/><circle cx="992" cy="752" r="15" transform="rotate(0,992,752)"/><circle cx="272" cy="782" r="15" transform="rotate(0,272,782)"/><circle cx="332" cy="782" r="15" transform="rotate(0,332,782)"/><circle cx="392" cy="782" r="15" transform="rotate(0,392,782)"/><circle cx="452" cy="782" r="15" transform="rotate(0,452,782)"/><circle cx="542" cy="782" r="15" transform="rotate(0,542,782)"/><circle cx="572" cy="782" r="15" transform="rotate(0,572,782)"/><circle cx="752" cy="782" r="15" transform="rotate(0,752,782)"/><circle cx="872" cy="782" r="15" transform="rotate(0,872,782)"/><circle cx="932" cy="782" r="15" transform="rotate(0,932,782)"/><circle cx="962" cy="782" r="15" transform="rotate(0,962,782)"/><circle cx="272" cy="812" r="15" transform="rotate(0,272,812)"/><circle cx="362" cy="812" r="15" transform="rotate(0,362,812)"/><circle cx="422" cy="812" r="15" transform="rotate(0,422,812)"/><circle cx="542" cy="812" r="15" transform="rotate(0,542,812)"/><circle cx="572" cy="812" r="15" transform="rotate(0,572,812)"/><circle cx="602" cy="812" r="15" transform="rotate(0,602,812)"/><circle cx="692" cy="812" r="15" transform="rotate(0,692,812)"/><circle cx="722" cy="812" r="15" transform="rotate(0,722,812)"/><circle cx="752" cy="812" r="15" transform="rotate(0,752,812)"/><circle cx="812" cy="812" r="15" transform="rotate(0,812,812)"/><circle cx="872" cy="812" r="15" transform="rotate(0,872,812)"/><circle cx="902" cy="812" r="15" transform="rotate(0,902,812)"/><circle cx="302" cy="842" r="15" transform="rotate(0,302,842)"/><circle cx="332" cy="842" r="15" transform="rotate(0,332,842)"/><circle cx="362" cy="842" r="15" transform="rotate(0,362,842)"/><circle cx="512" cy="842" r="15" transform="rotate(0,512,842)"/><circle cx="662" cy="842" r="15" transform="rotate(0,662,842)"/><circle cx="722" cy="842" r="15" transform="rotate(0,722,842)"/><circle cx="752" cy="842" r="15" transform="rotate(0,752,842)"/><circle cx="872" cy="842" r="15" transform="rotate(0,872,842)"/><circle cx="902" cy="842" r="15" transform="rotate(0,902,842)"/><circle cx="932" cy="842" r="15" transform="rotate(0,932,842)"/><circle cx="962" cy="842" r="15" transform="rotate(0,962,842)"/><circle cx="992" cy="842" r="15" transform="rotate(0,992,842)"/><circle cx="392" cy="872" r="15" transform="rotate(0,392,872)"/><circle cx="422" cy="872" r="15" transform="rotate(0,422,872)"/><circle cx="512" cy="872" r="15" transform="rotate(0,512,872)"/><circle cx="542" cy="872" r="15" transform="rotate(0,542,872)"/><circle cx="602" cy="872" r="15" transform="rotate(0,602,872)"/><circle cx="722" cy="872" r="15" transform="rotate(0,722,872)"/><circle cx="752" cy="872" r="15" transform="rotate(0,752,872)"/><circle cx="782" cy="872" r="15" transform="rotate(0,782,872)"/><circle cx="812" cy="872" r="15" transform="rotate(0,812,872)"/><circle cx="842" cy="872" r="15" transform="rotate(0,842,872)"/><circle cx="872" cy="872" r="15" transform="rotate(0,872,872)"/><circle cx="932" cy="872" r="15" transform="rotate(0,932,872)"/><circle cx="962" cy="872" r="15" transform="rotate(0,962,872)"/><circle cx="272" cy="902" r="15" transform="rotate(0,272,902)"/><circle cx="302" cy="902" r="15" transform="rotate(0,302,902)"/><circle cx="332" cy="902" r="15" transform="rotate(0,332,902)"/><circle cx="392" cy="902" r="15" transform="rotate(0,392,902)"/><circle cx="422" cy="902" r="15" transform="rotate(0,422,902)"/><circle cx="452" cy="902" r="15" transform="rotate(0,452,902)"/><circle cx="482" cy="902" r="15" transform="rotate(0,482,902)"/><circle cx="602" cy="902" r="15" transform="rotate(0,602,902)"/><circle cx="632" cy="902" r="15" transform="rotate(0,632,902)"/><circle cx="692" cy="902" r="15" transform="rotate(0,692,902)"/><circle cx="722" cy="902" r="15" transform="rotate(0,722,902)"/><circle cx="752" cy="902" r="15" transform="rotate(0,752,902)"/><circle cx="842" cy="902" r="15" transform="rotate(0,842,902)"/><circle cx="962" cy="902" r="15" transform="rotate(0,962,902)"/><circle cx="992" cy="902" r="15" transform="rotate(0,992,902)"/><circle cx="272" cy="932" r="15" transform="rotate(0,272,932)"/><circle cx="332" cy="932" r="15" transform="rotate(0,332,932)"/><circle cx="362" cy="932" r="15" transform="rotate(0,362,932)"/><circle cx="392" cy="932" r="15" transform="rotate(0,392,932)"/><circle cx="542" cy="932" r="15" transform="rotate(0,542,932)"/><circle cx="602" cy="932" r="15" transform="rotate(0,602,932)"/><circle cx="632" cy="932" r="15" transform="rotate(0,632,932)"/><circle cx="692" cy="932" r="15" transform="rotate(0,692,932)"/><circle cx="722" cy="932" r="15" transform="rotate(0,722,932)"/><circle cx="782" cy="932" r="15" transform="rotate(0,782,932)"/><circle cx="812" cy="932" r="15" transform="rotate(0,812,932)"/><circle cx="902" cy="932" r="15" transform="rotate(0,902,932)"/><circle cx="302" cy="962" r="15" transform="rotate(0,302,962)"/><circle cx="362" cy="962" r="15" transform="rotate(0,362,962)"/><circle cx="392" cy="962" r="15" transform="rotate(0,392,962)"/><circle cx="422" cy="962" r="15" transform="rotate(0,422,962)"/><circle cx="482" cy="962" r="15" transform="rotate(0,482,962)"/><circle cx="542" cy="962" r="15" transform="rotate(0,542,962)"/><circle cx="602" cy="962" r="15" transform="rotate(0,602,962)"/><circle cx="722" cy="962" r="15" transform="rotate(0,722,962)"/><circle cx="752" cy="962" r="15" transform="rotate(0,752,962)"/><circle cx="782" cy="962" r="15" transform="rotate(0,782,962)"/><circle cx="992" cy="962" r="15" transform="rotate(0,992,962)"/><circle cx="302" cy="992" r="15" transform="rotate(0,302,992)"/><circle cx="332" cy="992" r="15" transform="rotate(0,332,992)"/><circle cx="392" cy="992" r="15" transform="rotate(0,392,992)"/><circle cx="452" cy="992" r="15" transform="rotate(0,452,992)"/><circle cx="512" cy="992" r="15" transform="rotate(0,512,992)"/><circle cx="662" cy="992" r="15" transform="rotate(0,662,992)"/><circle cx="722" cy="992" r="15" transform="rotate(0,722,992)"/><circle cx="842" cy="992" r="15" transform="rotate(0,842,992)"/><circle cx="872" cy="992" r="15" transform="rotate(0,872,992)"/><circle cx="932" cy="992" r="15" transform="rotate(0,932,992)"/></clipPath><linearGradient id="dot-color-0" gradientUnits="userSpaceOnUse" x1="512" y1="0" x2="512" y2="1024"><stop offset="0%" stop-color="#66BB6A"/><stop offset="100%" stop-color="#388E3C"/></linearGradient><clipPath id="clip-path-corners-square-color-0-0-0"><path clip-rule="evenodd" d="M 122 17a 105 105 0 1 0 0.1 0zm 0 30a 75 75 0 1 1 -0.1 0Z" transform="rotate(0,122,122)"/></clipPath><linearGradient id="corners-square-color-0-0-0" gradientUnits="userSpaceOnUse" x1="17" y1="17" x2="227" y2="227"><stop offset="0%" stop-color="#81C784"/><stop offset="100%" stop-color="#388E3C"/></linearGradient><clipPath id="clip-path-corners-dot-color-0-0-0"><circle cx="122" cy="122" r="45" transform="rotate(0,122,122)"/></clipPath><clipPath id="clip-path-corners-square-color-1-0-0"><path clip-rule="evenodd" d="M 902 17a 105 105 0 1 0 0.1 0zm 0 30a 75 75 0 1 1 -0.1 0Z" transform="rotate(90,902,122)"/></clipPath><linearGradient id="corners-square-color-1-0-0" gradientUnits="userSpaceOnUse" x1="1007" y1="17" x2="797" y2="227"><stop offset="0%" stop-color="#81C784"/><stop offset="100%" stop-color="#388E3C"/></linearGradient><clipPath id="clip-path-corners-dot-color-1-0-0"><circle cx="902" cy="122" r="45" transform="rotate(90,902,122)"/></clipPath><clipPath id="clip-path-corners-square-color-0-1-0"><path clip-rule="evenodd" d="M 122 797a 105 105 0 1 0 0.1 0zm 0 30a 75 75 0 1 1 -0.1 0Z" transform="rotate(-90,122,902)"/></clipPath><linearGradient id="corners-square-color-0-1-0" gradientUnits="userSpaceOnUse" x1="17" y1="1007" x2="227" y2="797"><stop offset="0%" stop-color="#81C784"/><stop offset="100%" stop-color="#388E3C"/></linearGradient><clipPath id="clip-path-corners-dot-color-0-1-0"><circle cx="122" cy="902" r="45" transform="rotate(-90,122,902)"/></clipPath></defs><rect x="0" y="0" height="1024" width="1024" clip-path="url('#clip-path-background-color-0')" fill="#0A0A0A"/><rect x="0" y="0" height="1024" width="1024" clip-path="url('#clip-path-dot-color-0')" fill="url('#dot-color-0')"/><rect x="17" y="17" height="210" width="210" clip-path="url('#clip-path-corners-square-color-0-0-0')" fill="url('#corners-square-color-0-0-0')"/><rect x="77" y="77" height="90" width="90" clip-path="url('#clip-path-corners-dot-color-0-0-0')" fill="#66BB6A"/><rect x="797" y="17" height="210" width="210" clip-path="url('#clip-path-corners-square-color-1-0-0')" fill="url('#corners-square-color-1-0-0')"/><rect x="857" y="77" height="90" width="90" clip-path="url('#clip-path-corners-dot-color-1-0-0')" fill="#66BB6A"/><rect x="17" y="797" height="210" width="210" clip-path="url('#clip-path-corners-square-color-0-1-0')" fill="url('#corners-square-color-0-1-0')"/><rect x="77" y="857" height="90" width="90" clip-path="url('#clip-path-corners-dot-color-0-1-0')" fill="#66BB6A"/><rect x="309.91999999999996" y="361.12"
    width="404.16" height="301.76"
    fill="#0A0A0A" rx="16"/><rect x="337.91999999999996" y="389.12"
    width="348.16" height="245.76" rx="12"
    fill="none" stroke="#81C784" stroke-width="6" opacity="0.35"
    filter="url(#qr-badge-halo)"/><rect x="337.91999999999996" y="389.12"
    width="348.16" height="245.76" rx="12"
    fill="#0A0A0A" stroke="#66BB6A" stroke-width="2.5"/><rect x="341.91999999999996" y="393.12"
    width="340.16" height="237.76" rx="10"
    fill="#1B3A1B" opacity="0.25"/><g id="vyra-wordmark"><path d="M420.044 551.322L436.043 453.956L405.112 453.956L397.188 512.772L389.113 453.956L356.962 453.956L372.657 551.322ZM491.201 551.322L491.201 516.581C504.153 516.581 510.705 510.029 510.705 496.773L510.705 453.956L479.012 453.956L479.012 493.421C479.012 493.573 478.859 493.725 478.707 493.725L471.545 493.725C471.393 493.725 471.241 493.573 471.241 493.421L471.241 453.956L439.547 453.956L439.547 496.773C439.547 510.029 446.252 516.581 459.508 516.581L459.508 551.322ZM588.262 551.322L588.262 510.638C588.262 505.915 585.671 503.325 580.338 502.563C585.519 501.953 588.109 499.363 588.109 494.640L588.109 466.298C588.109 458.070 582.929 453.956 572.415 453.956L517.104 453.956L517.104 551.322L548.798 551.322L548.798 512.315L556.264 512.315C556.416 512.315 556.569 512.467 556.569 512.619L556.569 551.322ZM556.569 492.659C556.569 492.811 556.416 492.963 556.264 492.963L548.798 492.963L548.798 478.336L556.264 478.336C556.416 478.336 556.569 478.488 556.569 478.641ZM635.344 490.525L627.574 490.525L627.574 478.641C627.574 478.488 627.726 478.336 627.878 478.336L635.040 478.336C635.192 478.336 635.344 478.488 635.344 478.641ZM667.038 551.322L667.038 466.298C667.038 458.070 661.705 453.956 651.191 453.956L611.727 453.956C601.213 453.956 595.880 458.070 595.880 466.298L595.880 551.322L627.574 551.322L627.574 514.905L635.344 514.905L635.344 551.322Z" fill="#F5F5F5"/></g><path d="M439.904 615.219L439.904 593.278C439.904 591.154 438.528 590.093 435.814 590.093C433.141 590.093 431.096 590.643 429.720 591.705L429.720 590.093L421.541 590.093L421.541 615.219L429.720 615.219L429.720 596.463C429.720 596.423 429.759 596.384 429.798 596.384L431.646 596.384C431.686 596.384 431.725 596.423 431.725 596.463L431.725 615.219ZM450.088 615.219L450.088 590.093L441.909 590.093L441.909 615.219ZM470.417 615.219L470.417 599.844L462.239 599.844L462.239 608.967L460.312 608.967C460.272 608.967 460.233 608.928 460.233 608.888L460.233 596.463C460.233 596.423 460.272 596.384 460.312 596.384L462.160 596.384C462.199 596.384 462.239 596.423 462.239 596.463L462.239 597.524L470.417 597.524L470.417 593.278C470.417 591.154 469.041 590.093 466.328 590.093L456.144 590.093C453.430 590.093 452.054 591.154 452.054 593.278L452.054 612.113C452.054 614.197 453.430 615.219 456.144 615.219ZM490.786 615.219L490.786 590.093L482.607 590.093L482.607 599.766L480.602 599.766L480.602 590.093L472.423 590.093L472.423 615.219L480.602 615.219L480.602 605.546L482.607 605.546L482.607 615.219ZM508.323 615.219C511.037 615.219 512.413 614.197 512.413 612.113L512.413 599.530L504.273 599.530L504.273 608.888C504.273 608.928 504.234 608.967 504.195 608.967L502.307 608.967C502.268 608.967 502.229 608.928 502.229 608.888L502.229 597.918L512.413 597.918L512.413 591.705L502.229 591.705L502.229 590.093L494.050 590.093L494.050 591.705L492.044 591.705L492.044 597.918L494.050 597.918L494.050 612.113C494.050 614.197 495.426 615.219 498.139 615.219ZM537.382 615.219C540.095 615.219 541.472 614.197 541.472 612.113L541.472 602.636C541.472 600.552 540.095 599.530 537.382 599.530L531.366 599.530C531.327 599.530 531.287 599.491 531.287 599.451L531.287 596.463C531.287 596.423 531.327 596.384 531.366 596.384L533.214 596.384C533.253 596.384 533.293 596.423 533.293 596.463L533.293 597.918L541.472 597.918L541.472 593.278C541.472 591.154 540.095 590.093 537.382 590.093L527.198 590.093C524.485 590.093 523.108 591.154 523.108 593.278L523.108 602.636C523.108 604.760 524.485 605.821 527.198 605.821L533.214 605.821C533.253 605.821 533.293 605.861 533.293 605.900L533.293 608.888C533.293 608.928 533.253 608.967 533.214 608.967L531.366 608.967C531.327 608.967 531.287 608.928 531.287 608.888L531.287 607.394L523.108 607.394L523.108 612.113C523.108 614.197 524.485 615.219 527.198 615.219ZM561.801 615.219L561.801 590.093L553.622 590.093L553.622 599.766L551.617 599.766L551.617 590.093L543.438 590.093L543.438 615.219L551.617 615.219L551.617 605.546L553.622 605.546L553.622 615.219ZM573.951 608.888C573.951 608.928 573.912 608.967 573.873 608.967L572.024 608.967C571.985 608.967 571.946 608.928 571.946 608.888L571.946 596.463C571.946 596.423 571.985 596.384 572.024 596.384L573.873 596.384C573.912 596.384 573.951 596.423 573.951 596.463ZM578.041 615.219C580.754 615.219 582.130 614.197 582.130 612.113L582.130 593.278C582.130 591.154 580.754 590.093 578.041 590.093L567.856 590.093C565.143 590.093 563.767 591.154 563.767 593.278L563.767 612.113C563.767 614.197 565.143 615.219 567.856 615.219ZM594.280 599.805C594.280 599.844 594.241 599.884 594.202 599.884L592.275 599.884L592.275 596.384L594.202 596.384C594.241 596.384 594.280 596.423 594.280 596.463ZM592.275 615.219L592.275 605.821L598.370 605.821C601.083 605.821 602.459 604.760 602.459 602.636L602.459 593.278C602.459 591.154 601.083 590.093 598.370 590.093L584.096 590.093L584.096 615.219Z" fill="#66BB6A"/><rect x="0" y="0" width="1024" height="1024"
    fill="url(#qr-grain)" opacity="0.025"/></g><g id="serial-number">
    <text x="540" y="255" text-anchor="middle"
          font-family="Consolas, Menlo, 'Courier New', monospace"
          font-size="18"
          font-weight="700"
          letter-spacing="3"
          fill="#B3B3B3">
      <tspan fill="#E8935A">★</tspan>
      <tspan dx="10">14 RUE LEVEILLÉ · 02600 VILLERS-COTTERÊTS</tspan>
      <tspan dx="10" fill="#E8935A">★</tspan>
    </text>
  </g><g id="vyra-wordmark"><path d="M413.265 460L435.315 325.810L392.685 325.810L381.765 406.870L370.635 325.810L326.325 325.810L347.955 460ZM511.335 460L511.335 412.120C529.185 412.120 538.215 403.090 538.215 384.820L538.215 325.810L494.535 325.810L494.535 380.200C494.535 380.410 494.325 380.620 494.115 380.620L484.245 380.620C484.035 380.620 483.825 380.410 483.825 380.200L483.825 325.810L440.145 325.810L440.145 384.820C440.145 403.090 449.385 412.120 467.655 412.120L467.655 460ZM645.105 460L645.105 403.930C645.105 397.420 641.535 393.850 634.185 392.800C641.325 391.960 644.895 388.390 644.895 381.880L644.895 342.820C644.895 331.480 637.755 325.810 623.265 325.810L547.035 325.810L547.035 460L590.715 460L590.715 406.240L601.005 406.240C601.215 406.240 601.425 406.450 601.425 406.660L601.425 460ZM601.425 379.150C601.425 379.360 601.215 379.570 601.005 379.570L590.715 379.570L590.715 359.410L601.005 359.410C601.215 359.410 601.425 359.620 601.425 359.830ZM709.995 376.210L699.285 376.210L699.285 359.830C699.285 359.620 699.495 359.410 699.705 359.410L709.575 359.410C709.785 359.410 709.995 359.620 709.995 359.830ZM753.675 460L753.675 342.820C753.675 331.480 746.325 325.810 731.835 325.810L677.445 325.810C662.955 325.810 655.605 331.480 655.605 342.820L655.605 460L699.285 460L699.285 409.810L709.995 409.810L709.995 460Z" fill="#F5F5F5"/></g><g id="night-shop" filter="url(#story-neon-glow)"><path d="M440.991 522L440.991 491.868C440.991 488.952 439.101 487.494 435.375 487.494C431.703 487.494 428.895 488.250 427.005 489.708L427.005 487.494L415.773 487.494L415.773 522L427.005 522L427.005 496.242C427.005 496.188 427.059 496.134 427.113 496.134L429.651 496.134C429.705 496.134 429.759 496.188 429.759 496.242L429.759 522ZM454.977 522L454.977 487.494L443.745 487.494L443.745 522ZM482.895 522L482.895 500.886L471.663 500.886L471.663 513.414L469.017 513.414C468.963 513.414 468.909 513.360 468.909 513.306L468.909 496.242C468.909 496.188 468.963 496.134 469.017 496.134L471.555 496.134C471.609 496.134 471.663 496.188 471.663 496.242L471.663 497.700L482.895 497.700L482.895 491.868C482.895 488.952 481.005 487.494 477.279 487.494L463.293 487.494C459.567 487.494 457.677 488.952 457.677 491.868L457.677 517.734C457.677 520.596 459.567 522 463.293 522ZM510.867 522L510.867 487.494L499.635 487.494L499.635 500.778L496.881 500.778L496.881 487.494L485.649 487.494L485.649 522L496.881 522L496.881 508.716L499.635 508.716L499.635 522ZM534.951 522C538.677 522 540.567 520.596 540.567 517.734L540.567 500.454L529.389 500.454L529.389 513.306C529.389 513.360 529.335 513.414 529.281 513.414L526.689 513.414C526.635 513.414 526.581 513.360 526.581 513.306L526.581 498.240L540.567 498.240L540.567 489.708L526.581 489.708L526.581 487.494L515.349 487.494L515.349 489.708L512.595 489.708L512.595 498.240L515.349 498.240L515.349 517.734C515.349 520.596 517.239 522 520.965 522ZM574.857 522C578.583 522 580.473 520.596 580.473 517.734L580.473 504.720C580.473 501.858 578.583 500.454 574.857 500.454L566.595 500.454C566.541 500.454 566.487 500.400 566.487 500.346L566.487 496.242C566.487 496.188 566.541 496.134 566.595 496.134L569.133 496.134C569.187 496.134 569.241 496.188 569.241 496.242L569.241 498.240L580.473 498.240L580.473 491.868C580.473 488.952 578.583 487.494 574.857 487.494L560.871 487.494C557.145 487.494 555.255 488.952 555.255 491.868L555.255 504.720C555.255 507.636 557.145 509.094 560.871 509.094L569.133 509.094C569.187 509.094 569.241 509.148 569.241 509.202L569.241 513.306C569.241 513.360 569.187 513.414 569.133 513.414L566.595 513.414C566.541 513.414 566.487 513.360 566.487 513.306L566.487 511.254L555.255 511.254L555.255 517.734C555.255 520.596 557.145 522 560.871 522ZM608.391 522L608.391 487.494L597.159 487.494L597.159 500.778L594.405 500.778L594.405 487.494L583.173 487.494L583.173 522L594.405 522L594.405 508.716L597.159 508.716L597.159 522ZM625.077 513.306C625.077 513.360 625.023 513.414 624.969 513.414L622.431 513.414C622.377 513.414 622.323 513.360 622.323 513.306L622.323 496.242C622.323 496.188 622.377 496.134 622.431 496.134L624.969 496.134C625.023 496.134 625.077 496.188 625.077 496.242ZM630.693 522C634.419 522 636.309 520.596 636.309 517.734L636.309 491.868C636.309 488.952 634.419 487.494 630.693 487.494L616.707 487.494C612.981 487.494 611.091 488.952 611.091 491.868L611.091 517.734C611.091 520.596 612.981 522 616.707 522ZM652.995 500.832C652.995 500.886 652.941 500.940 652.887 500.940L650.241 500.940L650.241 496.134L652.887 496.134C652.941 496.134 652.995 496.188 652.995 496.242ZM650.241 522L650.241 509.094L658.611 509.094C662.337 509.094 664.227 507.636 664.227 504.720L664.227 491.868C664.227 488.952 662.337 487.494 658.611 487.494L639.009 487.494L639.009 522Z" fill="#66BB6A"/></g><g transform="translate(920, 315) rotate(-6)">
    <rect x="-60.72" y="-18.7" width="121.44" height="37.4" rx="4"
          fill="rgba(10,10,10,0.72)" stroke="#E8935A" stroke-width="2"/>
    <text x="0" y="7.48" text-anchor="middle"
          font-family="Arial Black, Arial, sans-serif"
          font-size="22" font-weight="900"
          letter-spacing="1.5" fill="#E8935A">SNACKS</text>
  </g><g transform="translate(160, 355) rotate(5)">
    <rect x="-92.4" y="-18.7" width="184.8" height="37.4" rx="4"
          fill="rgba(10,10,10,0.72)" stroke="#66BB6A" stroke-width="2"/>
    <text x="0" y="7.48" text-anchor="middle"
          font-family="Arial Black, Arial, sans-serif"
          font-size="22" font-weight="900"
          letter-spacing="1.5" fill="#66BB6A">CBD &amp; PUFF</text>
  </g><g transform="translate(170, 525) rotate(-4)">
    <rect x="-108.24" y="-18.7" width="216.48" height="37.4" rx="4"
          fill="rgba(10,10,10,0.72)" stroke="#D4849A" stroke-width="2"/>
    <text x="0" y="7.48" text-anchor="middle"
          font-family="Arial Black, Arial, sans-serif"
          font-size="22" font-weight="900"
          letter-spacing="1.5" fill="#D4849A">IMPORT US/JP</text>
  </g><g transform="translate(910, 505) rotate(7)">
    <rect x="-84.48" y="-18.7" width="168.96" height="37.4" rx="4"
          fill="rgba(10,10,10,0.72)" stroke="#B388C9" stroke-width="2"/>
    <text x="0" y="7.48" text-anchor="middle"
          font-family="Arial Black, Arial, sans-serif"
          font-size="22" font-weight="900"
          letter-spacing="1.5" fill="#B388C9">LIVRAISON</text>
  </g><path d="M279.614 580C281.546 580 282.526 579.272 282.526 577.788L282.526 571.040C282.526 569.556 281.546 568.828 279.614 568.828L275.330 568.828C275.302 568.828 275.274 568.800 275.274 568.772L275.274 566.644C275.274 566.616 275.302 566.588 275.330 566.588L276.646 566.588C276.674 566.588 276.702 566.616 276.702 566.644L276.702 567.680L282.526 567.680L282.526 564.376C282.526 562.864 281.546 562.108 279.614 562.108L272.362 562.108C270.430 562.108 269.450 562.864 269.450 564.376L269.450 571.040C269.450 572.552 270.430 573.308 272.362 573.308L276.646 573.308C276.674 573.308 276.702 573.336 276.702 573.364L276.702 575.492C276.702 575.520 276.674 575.548 276.646 575.548L275.330 575.548C275.302 575.548 275.274 575.520 275.274 575.492L275.274 574.428L269.450 574.428L269.450 577.788C269.450 579.272 270.430 580 272.362 580ZM297.002 580L297.002 564.376C297.002 562.864 296.022 562.108 294.090 562.108C292.186 562.108 290.730 562.500 289.750 563.256L289.750 562.108L283.926 562.108L283.926 580L289.750 580L289.750 566.644C289.750 566.616 289.778 566.588 289.806 566.588L291.122 566.588C291.150 566.588 291.178 566.616 291.178 566.644L291.178 580ZM305.654 568.828L304.226 568.828L304.226 566.644C304.226 566.616 304.254 566.588 304.282 566.588L305.598 566.588C305.626 566.588 305.654 566.616 305.654 566.644ZM311.478 580L311.478 564.376C311.478 562.864 310.498 562.108 308.566 562.108L301.314 562.108C299.382 562.108 298.402 562.864 298.402 564.376L298.402 580L304.226 580L304.226 573.308L305.654 573.308L305.654 580ZM323.014 580C324.946 580 325.926 579.272 325.926 577.788L325.926 571.320L320.102 571.320L320.102 575.492C320.102 575.520 320.074 575.548 320.046 575.548L318.730 575.548C318.702 575.548 318.674 575.520 318.674 575.492L318.674 566.644C318.674 566.616 318.702 566.588 318.730 566.588L320.046 566.588C320.074 566.588 320.102 566.616 320.102 566.644L320.102 569.668L325.926 569.668L325.926 564.376C325.926 562.864 324.946 562.108 323.014 562.108L315.762 562.108C313.830 562.108 312.850 562.864 312.850 564.376L312.850 577.788C312.850 579.272 313.830 580 315.762 580ZM340.990 580L336.818 570.732L340.822 562.108L334.690 562.108L332.954 566.672L332.954 562.108L327.326 562.108L327.326 580L332.954 580L332.954 575.212L334.858 580ZM351.770 580C353.702 580 354.682 579.272 354.682 577.788L354.682 571.040C354.682 569.556 353.702 568.828 351.770 568.828L347.486 568.828C347.458 568.828 347.430 568.800 347.430 568.772L347.430 566.644C347.430 566.616 347.458 566.588 347.486 566.588L348.802 566.588C348.830 566.588 348.858 566.616 348.858 566.644L348.858 567.680L354.682 567.680L354.682 564.376C354.682 562.864 353.702 562.108 351.770 562.108L344.518 562.108C342.586 562.108 341.606 562.864 341.606 564.376L341.606 571.040C341.606 572.552 342.586 573.308 344.518 573.308L348.802 573.308C348.830 573.308 348.858 573.336 348.858 573.364L348.858 575.492C348.858 575.520 348.830 575.548 348.802 575.548L347.486 575.548C347.458 575.548 347.430 575.520 347.430 575.492L347.430 574.428L341.606 574.428L341.606 577.788C341.606 579.272 342.586 580 344.518 580Z" fill="#E8935A"/><text x="375.68199999999996" y="580" text-anchor="middle" font-family="Arial, sans-serif" font-size="28" fill="#808080">·</text><path d="M403.934 569.220C403.934 569.248 403.906 569.276 403.878 569.276L402.506 569.276L402.506 566.588L403.878 566.588C403.906 566.588 403.934 566.616 403.934 566.644ZM406.846 580C408.778 580 409.758 579.272 409.758 577.788L409.758 572.524C409.758 571.656 409.282 571.180 408.302 571.040C409.254 570.928 409.730 570.452 409.730 569.584L409.730 564.376C409.730 562.864 408.778 562.108 406.846 562.108L396.682 562.108L396.682 580ZM403.934 575.492C403.934 575.520 403.906 575.548 403.878 575.548L402.506 575.548L402.506 572.832L403.878 572.832C403.906 572.832 403.934 572.860 403.934 572.888ZM418.382 575.492C418.382 575.520 418.354 575.548 418.326 575.548L417.010 575.548C416.982 575.548 416.954 575.520 416.954 575.492L416.954 566.644C416.954 566.616 416.982 566.588 417.010 566.588L418.326 566.588C418.354 566.588 418.382 566.616 418.382 566.644ZM421.294 580C423.226 580 424.206 579.272 424.206 577.788L424.206 564.376C424.206 562.864 423.226 562.108 421.294 562.108L414.042 562.108C412.110 562.108 411.130 562.864 411.130 564.376L411.130 577.788C411.130 579.272 412.110 580 414.042 580ZM431.430 580L431.430 562.108L425.606 562.108L425.606 580ZM442.994 580C444.926 580 445.906 579.272 445.906 577.788L445.906 571.040C445.906 569.556 444.926 568.828 442.994 568.828L438.710 568.828C438.682 568.828 438.654 568.800 438.654 568.772L438.654 566.644C438.654 566.616 438.682 566.588 438.710 566.588L440.026 566.588C440.054 566.588 440.082 566.616 440.082 566.644L440.082 567.680L445.906 567.680L445.906 564.376C445.906 562.864 444.926 562.108 442.994 562.108L435.742 562.108C433.810 562.108 432.830 562.864 432.830 564.376L432.830 571.040C432.830 572.552 433.810 573.308 435.742 573.308L440.026 573.308C440.054 573.308 440.082 573.336 440.082 573.364L440.082 575.492C440.082 575.520 440.054 575.548 440.026 575.548L438.710 575.548C438.682 575.548 438.654 575.520 438.654 575.492L438.654 574.428L432.830 574.428L432.830 577.788C432.830 579.272 433.810 580 435.742 580ZM457.414 580C459.346 580 460.326 579.272 460.326 577.788L460.326 571.040C460.326 569.556 459.346 568.828 457.414 568.828L453.130 568.828C453.102 568.828 453.074 568.800 453.074 568.772L453.074 566.644C453.074 566.616 453.102 566.588 453.130 566.588L454.446 566.588C454.474 566.588 454.502 566.616 454.502 566.644L454.502 567.680L460.326 567.680L460.326 564.376C460.326 562.864 459.346 562.108 457.414 562.108L450.162 562.108C448.230 562.108 447.250 562.864 447.250 564.376L447.250 571.040C447.250 572.552 448.230 573.308 450.162 573.308L454.446 573.308C454.474 573.308 454.502 573.336 454.502 573.364L454.502 575.492C454.502 575.520 454.474 575.548 454.446 575.548L453.130 575.548C453.102 575.548 453.074 575.520 453.074 575.492L453.074 574.428L447.250 574.428L447.250 577.788C447.250 579.272 448.230 580 450.162 580ZM468.922 575.492C468.922 575.520 468.894 575.548 468.866 575.548L467.550 575.548C467.522 575.548 467.494 575.520 467.494 575.492L467.494 566.644C467.494 566.616 467.522 566.588 467.550 566.588L468.866 566.588C468.894 566.588 468.922 566.616 468.922 566.644ZM471.834 580C473.766 580 474.746 579.272 474.746 577.788L474.746 564.376C474.746 562.864 473.766 562.108 471.834 562.108L464.582 562.108C462.650 562.108 461.670 562.864 461.670 564.376L461.670 577.788C461.670 579.272 462.650 580 464.582 580ZM489.222 580L489.222 564.376C489.222 562.864 488.242 562.108 486.310 562.108C484.406 562.108 482.950 562.500 481.970 563.256L481.970 562.108L476.146 562.108L476.146 580L481.970 580L481.970 566.644C481.970 566.616 481.998 566.588 482.026 566.588L483.342 566.588C483.370 566.588 483.398 566.616 483.398 566.644L483.398 580ZM500.758 580C502.690 580 503.670 579.272 503.670 577.788L503.670 571.040C503.670 569.556 502.690 568.828 500.758 568.828L496.474 568.828C496.446 568.828 496.418 568.800 496.418 568.772L496.418 566.644C496.418 566.616 496.446 566.588 496.474 566.588L497.790 566.588C497.818 566.588 497.846 566.616 497.846 566.644L497.846 567.680L503.670 567.680L503.670 564.376C503.670 562.864 502.690 562.108 500.758 562.108L493.506 562.108C491.574 562.108 490.594 562.864 490.594 564.376L490.594 571.040C490.594 572.552 491.574 573.308 493.506 573.308L497.790 573.308C497.818 573.308 497.846 573.336 497.846 573.364L497.846 575.492C497.846 575.520 497.818 575.548 497.790 575.548L496.474 575.548C496.446 575.548 496.418 575.520 496.418 575.492L496.418 574.428L490.594 574.428L490.594 577.788C490.594 579.272 491.574 580 493.506 580Z" fill="#66BB6A"/><text x="524.67" y="580" text-anchor="middle" font-family="Arial, sans-serif" font-size="28" fill="#808080">·</text><path d="M552.922 569.024C552.922 569.052 552.894 569.080 552.866 569.080L551.494 569.080L551.494 566.588L552.866 566.588C552.894 566.588 552.922 566.616 552.922 566.644ZM551.494 580L551.494 573.308L555.834 573.308C557.766 573.308 558.746 572.552 558.746 571.040L558.746 564.376C558.746 562.864 557.766 562.108 555.834 562.108L545.670 562.108L545.670 580ZM570.030 580C571.962 580 572.942 579.272 572.942 577.788L572.942 562.108L567.118 562.108L567.118 575.492C567.118 575.520 567.090 575.548 567.062 575.548L565.746 575.548C565.718 575.548 565.690 575.520 565.690 575.492L565.690 562.108L559.866 562.108L559.866 577.788C559.866 579.272 560.846 580 562.778 580ZM580.166 580L580.166 572.160L585.206 572.160L585.206 567.680L580.166 567.680L580.166 566.644C580.166 566.616 580.194 566.588 580.222 566.588L585.262 566.588L585.262 562.108L577.254 562.108C575.322 562.108 574.342 562.892 574.342 564.376L574.342 580ZM592.206 580L592.206 572.160L597.246 572.160L597.246 567.680L592.206 567.680L592.206 566.644C592.206 566.616 592.234 566.588 592.262 566.588L597.302 566.588L597.302 562.108L589.294 562.108C587.362 562.108 586.382 562.892 586.382 564.376L586.382 580ZM618.750 580L618.750 575.548L616.930 575.548L616.930 573.140L618.750 573.140L618.750 568.996L610.490 568.996C610.462 568.996 610.434 568.968 610.434 568.940L610.434 566.644C610.434 566.616 610.462 566.588 610.490 566.588L611.806 566.588C611.834 566.588 611.862 566.616 611.862 566.644L611.862 567.120L616.930 567.120L616.930 564.376C616.930 562.864 615.950 562.108 614.018 562.108L607.522 562.108C605.590 562.108 604.610 562.864 604.610 564.376L604.610 569.640C604.610 570.452 605.086 570.928 606.066 571.040C605.086 571.236 604.610 571.712 604.610 572.468L604.610 577.788C604.610 579.272 605.590 580 607.522 580ZM611.862 575.548L610.490 575.548C610.462 575.548 610.434 575.520 610.434 575.492L610.434 573.196C610.434 573.168 610.462 573.140 610.490 573.140L611.862 573.140ZM636.082 580C638.014 580 638.994 579.272 638.994 577.788L638.994 571.320L633.170 571.320L633.170 575.492C633.170 575.520 633.142 575.548 633.114 575.548L631.798 575.548C631.770 575.548 631.742 575.520 631.742 575.492L631.742 566.644C631.742 566.616 631.770 566.588 631.798 566.588L633.114 566.588C633.142 566.588 633.170 566.616 633.170 566.644L633.170 569.668L638.994 569.668L638.994 564.376C638.994 562.864 638.014 562.108 636.082 562.108L628.830 562.108C626.898 562.108 625.918 562.864 625.918 564.376L625.918 577.788C625.918 579.272 626.898 580 628.830 580ZM647.646 569.220C647.646 569.248 647.618 569.276 647.590 569.276L646.218 569.276L646.218 566.588L647.590 566.588C647.618 566.588 647.646 566.616 647.646 566.644ZM650.558 580C652.490 580 653.470 579.272 653.470 577.788L653.470 572.524C653.470 571.656 652.994 571.180 652.014 571.040C652.966 570.928 653.442 570.452 653.442 569.584L653.442 564.376C653.442 562.864 652.490 562.108 650.558 562.108L640.394 562.108L640.394 580ZM647.646 575.492C647.646 575.520 647.618 575.548 647.590 575.548L646.218 575.548L646.218 572.832L647.590 572.832C647.618 572.832 647.646 572.860 647.646 572.888ZM662.150 575.492C662.150 575.520 662.122 575.548 662.094 575.548L660.722 575.548L660.722 566.588L662.094 566.588C662.122 566.588 662.150 566.616 662.150 566.644ZM665.062 580C666.994 580 667.974 579.272 667.974 577.788L667.974 564.376C667.974 562.864 666.994 562.108 665.062 562.108L654.898 562.108L654.898 580Z" fill="#D4849A"/><text x="688.9739999999999" y="580" text-anchor="middle" font-family="Arial, sans-serif" font-size="28" fill="#808080">·</text><path d="M715.798 580L715.798 562.108L709.974 562.108L709.974 580ZM737.582 580L737.582 564.600C737.582 563.144 736.014 562.108 733.998 562.108C732.178 562.108 730.918 562.360 730.050 563.452C729.406 562.556 728.566 562.108 726.858 562.108C725.178 562.108 723.778 562.500 723.078 563.256L723.078 562.108L717.254 562.108L717.254 580L723.078 580L723.078 566.644C723.078 566.616 723.106 566.588 723.134 566.588L724.450 566.588C724.478 566.588 724.506 566.616 724.506 566.644L724.506 580L730.330 580L730.330 566.644C730.330 566.616 730.358 566.588 730.386 566.588L731.758 566.588C731.786 566.588 731.814 566.616 731.814 566.644L731.814 580ZM746.262 569.024C746.262 569.052 746.234 569.080 746.206 569.080L744.834 569.080L744.834 566.588L746.206 566.588C746.234 566.588 746.262 566.616 746.262 566.644ZM744.834 580L744.834 573.308L749.174 573.308C751.106 573.308 752.086 572.552 752.086 571.040L752.086 564.376C752.086 562.864 751.106 562.108 749.174 562.108L739.010 562.108L739.010 580ZM760.430 575.492C760.430 575.520 760.402 575.548 760.374 575.548L759.058 575.548C759.030 575.548 759.002 575.520 759.002 575.492L759.002 566.644C759.002 566.616 759.030 566.588 759.058 566.588L760.374 566.588C760.402 566.588 760.430 566.616 760.430 566.644ZM763.342 580C765.274 580 766.254 579.272 766.254 577.788L766.254 564.376C766.254 562.864 765.274 562.108 763.342 562.108L756.090 562.108C754.158 562.108 753.178 562.864 753.178 564.376L753.178 577.788C753.178 579.272 754.158 580 756.090 580ZM780.730 580L780.730 572.524C780.730 571.656 780.254 571.180 779.274 571.040C780.226 570.928 780.702 570.452 780.702 569.584L780.702 564.376C780.702 562.864 779.750 562.108 777.818 562.108L767.654 562.108L767.654 580L773.478 580L773.478 572.832L774.850 572.832C774.878 572.832 774.906 572.860 774.906 572.888L774.906 580ZM774.906 569.220C774.906 569.248 774.878 569.276 774.850 569.276L773.478 569.276L773.478 566.588L774.850 566.588C774.878 566.588 774.906 566.616 774.906 566.644ZM793.190 580C795.122 580 796.102 579.272 796.102 577.788L796.102 568.828L790.306 568.828L790.306 575.492C790.306 575.520 790.278 575.548 790.250 575.548L788.906 575.548C788.878 575.548 788.850 575.520 788.850 575.492L788.850 567.680L796.102 567.680L796.102 563.256L788.850 563.256L788.850 562.108L783.026 562.108L783.026 563.256L781.598 563.256L781.598 567.680L783.026 567.680L783.026 577.788C783.026 579.272 784.006 580 785.938 580ZM807.638 580C809.570 580 810.550 579.272 810.550 577.788L810.550 571.040C810.550 569.556 809.570 568.828 807.638 568.828L803.354 568.828C803.326 568.828 803.298 568.800 803.298 568.772L803.298 566.644C803.298 566.616 803.326 566.588 803.354 566.588L804.670 566.588C804.698 566.588 804.726 566.616 804.726 566.644L804.726 567.680L810.550 567.680L810.550 564.376C810.550 562.864 809.570 562.108 807.638 562.108L800.386 562.108C798.454 562.108 797.474 562.864 797.474 564.376L797.474 571.040C797.474 572.552 798.454 573.308 800.386 573.308L804.670 573.308C804.698 573.308 804.726 573.336 804.726 573.364L804.726 575.492C804.726 575.520 804.698 575.548 804.670 575.548L803.354 575.548C803.326 575.548 803.298 575.520 803.298 575.492L803.298 574.428L797.474 574.428L797.474 577.788C797.474 579.272 798.454 580 800.386 580Z" fill="#B388C9"/><path d="M345.278 1320C348.314 1320 349.854 1318.856 349.854 1316.524L349.854 1305.920C349.854 1303.588 348.314 1302.444 345.278 1302.444L338.546 1302.444C338.502 1302.444 338.458 1302.400 338.458 1302.356L338.458 1299.012C338.458 1298.968 338.502 1298.924 338.546 1298.924L340.614 1298.924C340.658 1298.924 340.702 1298.968 340.702 1299.012L340.702 1300.640L349.854 1300.640L349.854 1295.448C349.854 1293.072 348.314 1291.884 345.278 1291.884L333.882 1291.884C330.846 1291.884 329.306 1293.072 329.306 1295.448L329.306 1305.920C329.306 1308.296 330.846 1309.484 333.882 1309.484L340.614 1309.484C340.658 1309.484 340.702 1309.528 340.702 1309.572L340.702 1312.916C340.702 1312.960 340.658 1313.004 340.614 1313.004L338.546 1313.004C338.502 1313.004 338.458 1312.960 338.458 1312.916L338.458 1311.244L329.306 1311.244L329.306 1316.524C329.306 1318.856 330.846 1320 333.882 1320ZM367.938 1320C370.974 1320 372.514 1318.856 372.514 1316.524L372.514 1306.360L363.362 1306.360L363.362 1312.916C363.362 1312.960 363.318 1313.004 363.274 1313.004L361.206 1313.004C361.162 1313.004 361.118 1312.960 361.118 1312.916L361.118 1299.012C361.118 1298.968 361.162 1298.924 361.206 1298.924L363.274 1298.924C363.318 1298.924 363.362 1298.968 363.362 1299.012L363.362 1303.764L372.514 1303.764L372.514 1295.448C372.514 1293.072 370.974 1291.884 367.938 1291.884L356.542 1291.884C353.506 1291.884 351.966 1293.072 351.966 1295.448L351.966 1316.524C351.966 1318.856 353.506 1320 356.542 1320ZM386.066 1302.444L383.822 1302.444L383.822 1299.012C383.822 1298.968 383.866 1298.924 383.910 1298.924L385.978 1298.924C386.022 1298.924 386.066 1298.968 386.066 1299.012ZM395.218 1320L395.218 1295.448C395.218 1293.072 393.678 1291.884 390.642 1291.884L379.246 1291.884C376.210 1291.884 374.670 1293.072 374.670 1295.448L374.670 1320L383.822 1320L383.822 1309.484L386.066 1309.484L386.066 1320ZM418.010 1320L418.010 1295.448C418.010 1293.072 416.470 1291.884 413.434 1291.884C410.442 1291.884 408.154 1292.500 406.614 1293.688L406.614 1291.884L397.462 1291.884L397.462 1320L406.614 1320L406.614 1299.012C406.614 1298.968 406.658 1298.924 406.702 1298.924L408.770 1298.924C408.814 1298.924 408.858 1298.968 408.858 1299.012L408.858 1320ZM441.462 1302.752C441.462 1302.796 441.418 1302.840 441.374 1302.840L439.218 1302.840L439.218 1298.924L441.374 1298.924C441.418 1298.924 441.462 1298.968 441.462 1299.012ZM439.218 1320L439.218 1309.484L446.038 1309.484C449.074 1309.484 450.614 1308.296 450.614 1305.920L450.614 1295.448C450.614 1293.072 449.074 1291.884 446.038 1291.884L430.066 1291.884L430.066 1320ZM463.726 1312.916C463.726 1312.960 463.682 1313.004 463.638 1313.004L461.570 1313.004C461.526 1313.004 461.482 1312.960 461.482 1312.916L461.482 1299.012C461.482 1298.968 461.526 1298.924 461.570 1298.924L463.638 1298.924C463.682 1298.924 463.726 1298.968 463.726 1299.012ZM468.302 1320C471.338 1320 472.878 1318.856 472.878 1316.524L472.878 1295.448C472.878 1293.072 471.338 1291.884 468.302 1291.884L456.906 1291.884C453.870 1291.884 452.330 1293.072 452.330 1295.448L452.330 1316.524C452.330 1318.856 453.870 1320 456.906 1320ZM491.006 1320C494.042 1320 495.582 1318.856 495.582 1316.524L495.582 1291.884L486.430 1291.884L486.430 1312.916C486.430 1312.960 486.386 1313.004 486.342 1313.004L484.274 1313.004C484.230 1313.004 484.186 1312.960 484.186 1312.916L484.186 1291.884L475.034 1291.884L475.034 1316.524C475.034 1318.856 476.574 1320 479.610 1320ZM518.374 1320L518.374 1308.252C518.374 1306.888 517.626 1306.140 516.086 1305.920C517.582 1305.744 518.330 1304.996 518.330 1303.632L518.330 1295.448C518.330 1293.072 516.834 1291.884 513.798 1291.884L497.826 1291.884L497.826 1320L506.978 1320L506.978 1308.736L509.134 1308.736C509.178 1308.736 509.222 1308.780 509.222 1308.824L509.222 1320ZM509.222 1303.060C509.222 1303.104 509.178 1303.148 509.134 1303.148L506.978 1303.148L506.978 1298.924L509.134 1298.924C509.178 1298.924 509.222 1298.968 509.222 1299.012ZM546.314 1320C549.350 1320 550.890 1318.856 550.890 1316.524L550.890 1306.360L541.738 1306.360L541.738 1312.916C541.738 1312.960 541.694 1313.004 541.650 1313.004L539.582 1313.004C539.538 1313.004 539.494 1312.960 539.494 1312.916L539.494 1299.012C539.494 1298.968 539.538 1298.924 539.582 1298.924L541.650 1298.924C541.694 1298.924 541.738 1298.968 541.738 1299.012L541.738 1303.764L550.890 1303.764L550.890 1295.448C550.890 1293.072 549.350 1291.884 546.314 1291.884L534.918 1291.884C531.882 1291.884 530.342 1293.072 530.342 1295.448L530.342 1316.524C530.342 1318.856 531.882 1320 534.918 1320ZM564.398 1312.916C564.398 1312.960 564.354 1313.004 564.310 1313.004L562.242 1313.004C562.198 1313.004 562.154 1312.960 562.154 1312.916L562.154 1299.012C562.154 1298.968 562.198 1298.924 562.242 1298.924L564.310 1298.924C564.354 1298.924 564.398 1298.968 564.398 1299.012ZM568.974 1320C572.010 1320 573.550 1318.856 573.550 1316.524L573.550 1295.448C573.550 1293.072 572.010 1291.884 568.974 1291.884L557.578 1291.884C554.542 1291.884 553.002 1293.072 553.002 1295.448L553.002 1316.524C553.002 1318.856 554.542 1320 557.578 1320ZM607.694 1320L607.694 1295.800C607.694 1293.512 605.230 1291.884 602.062 1291.884C599.202 1291.884 597.222 1292.280 595.858 1293.996C594.846 1292.588 593.526 1291.884 590.842 1291.884C588.202 1291.884 586.002 1292.500 584.902 1293.688L584.902 1291.884L575.750 1291.884L575.750 1320L584.902 1320L584.902 1299.012C584.902 1298.968 584.946 1298.924 584.990 1298.924L587.058 1298.924C587.102 1298.924 587.146 1298.968 587.146 1299.012L587.146 1320L596.298 1320L596.298 1299.012C596.298 1298.968 596.342 1298.924 596.386 1298.924L598.542 1298.924C598.586 1298.924 598.630 1298.968 598.630 1299.012L598.630 1320ZM641.882 1320L641.882 1295.800C641.882 1293.512 639.418 1291.884 636.250 1291.884C633.390 1291.884 631.410 1292.280 630.046 1293.996C629.034 1292.588 627.714 1291.884 625.030 1291.884C622.390 1291.884 620.190 1292.500 619.090 1293.688L619.090 1291.884L609.938 1291.884L609.938 1320L619.090 1320L619.090 1299.012C619.090 1298.968 619.134 1298.924 619.178 1298.924L621.246 1298.924C621.290 1298.924 621.334 1298.968 621.334 1299.012L621.334 1320L630.486 1320L630.486 1299.012C630.486 1298.968 630.530 1298.924 630.574 1298.924L632.730 1298.924C632.774 1298.924 632.818 1298.968 632.818 1299.012L632.818 1320ZM655.478 1302.444L653.234 1302.444L653.234 1299.012C653.234 1298.968 653.278 1298.924 653.322 1298.924L655.390 1298.924C655.434 1298.924 655.478 1298.968 655.478 1299.012ZM664.630 1320L664.630 1295.448C664.630 1293.072 663.090 1291.884 660.054 1291.884L648.658 1291.884C645.622 1291.884 644.082 1293.072 644.082 1295.448L644.082 1320L653.234 1320L653.234 1309.484L655.478 1309.484L655.478 1320ZM687.422 1320L687.422 1295.448C687.422 1293.072 685.882 1291.884 682.846 1291.884C679.854 1291.884 677.566 1292.500 676.026 1293.688L676.026 1291.884L666.874 1291.884L666.874 1320L676.026 1320L676.026 1299.012C676.026 1298.968 676.070 1298.924 676.114 1298.924L678.182 1298.924C678.226 1298.924 678.270 1298.968 678.270 1299.012L678.270 1320ZM701.062 1312.916C701.062 1312.960 701.018 1313.004 700.974 1313.004L698.818 1313.004L698.818 1298.924L700.974 1298.924C701.018 1298.924 701.062 1298.968 701.062 1299.012ZM705.638 1320C708.674 1320 710.214 1318.856 710.214 1316.524L710.214 1295.448C710.214 1293.072 708.674 1291.884 705.638 1291.884L689.666 1291.884L689.666 1320ZM727.946 1320L727.946 1313.004L721.566 1313.004L721.566 1309.484L727.814 1309.484L727.814 1302.444L721.566 1302.444L721.566 1298.924L727.902 1298.924L727.902 1291.884L712.414 1291.884L712.414 1320ZM750.694 1320L750.694 1308.252C750.694 1306.888 749.946 1306.140 748.406 1305.920C749.902 1305.744 750.650 1304.996 750.650 1303.632L750.650 1295.448C750.650 1293.072 749.154 1291.884 746.118 1291.884L730.146 1291.884L730.146 1320L739.298 1320L739.298 1308.736L741.454 1308.736C741.498 1308.736 741.542 1308.780 741.542 1308.824L741.542 1320ZM741.542 1303.060C741.542 1303.104 741.498 1303.148 741.454 1303.148L739.298 1303.148L739.298 1298.924L741.454 1298.924C741.498 1298.924 741.542 1298.968 741.542 1299.012Z" fill="#66BB6A"/>
    <text x="540" y="1368" text-anchor="middle"
      font-family="Consolas, Menlo, 'Courier New', monospace"
      font-size="22" font-weight="700" letter-spacing="3"
      fill="#F5F5F5">14 RUE LEVEILLÉ · 02600 VILLERS-COTTERÊTS</text>
    <text x="540" y="1414" text-anchor="middle"
      font-family="Consolas, Menlo, 'Courier New', monospace"
      font-size="22" font-weight="700" letter-spacing="3"
      fill="#B3B3B3">18:00–02:00 · 7J/7 · LIVRAISON</text>
    <text x="540" y="1483" text-anchor="middle"
      font-family="Arial Black, Arial, sans-serif"
      font-size="40" font-weight="900" letter-spacing="3"
      fill="#66BB6A">@VYRA_NIGHTSHOP</text>
    <text x="540" y="1538" text-anchor="middle"
      font-family="Consolas, Menlo, 'Courier New', monospace"
      font-size="26" font-weight="700" letter-spacing="3"
      fill="#81C784">07 57 53 99 24</text><svg x="0" y="1620" width="1080" height="90"
    viewBox="0 0 1440 200" preserveAspectRatio="xMidYEnd slice">
    <defs>
      <linearGradient id="skyline-fade" x1="0" y1="0" x2="0" y2="1">
        <stop offset="0%" stop-color="#050505" stop-opacity="0"/>
        <stop offset="100%" stop-color="#050505" stop-opacity="0.8"/>
      </linearGradient>
    </defs>
    <g fill="#141414"><rect x="0" y="130" width="60" height="70"/><rect x="60" y="100" width="80" height="100"/><rect x="140" y="120" width="50" height="80"/><rect x="190" y="80" width="95" height="120"/><rect x="285" y="110" width="60" height="90"/><rect x="345" y="70" width="110" height="130"/><rect x="455" y="95" width="75" height="105"/><rect x="530" y="55" width="130" height="145"/><rect x="660" y="85" width="70" height="115"/><rect x="730" y="110" width="50" height="90"/><rect x="780" y="65" width="120" height="135"/><rect x="900" y="100" width="80" height="100"/><rect x="980" y="75" width="100" height="125"/><rect x="1080" y="115" width="55" height="85"/><rect x="1135" y="90" width="85" height="110"/><rect x="1220" y="105" width="70" height="95"/><rect x="1290" y="130" width="55" height="70"/><rect x="1345" y="95" width="95" height="105"/></g>
    <g fill="#E8935A" opacity="0.75"><rect x="70" y="115" width="6" height="6"/><rect x="82" y="115" width="6" height="6"/><rect x="200" y="100" width="5" height="5"/><rect x="215" y="100" width="5" height="5"/><rect x="260" y="120" width="5" height="5"/><rect x="360" y="90" width="6" height="6"/><rect x="380" y="90" width="6" height="6"/><rect x="400" y="110" width="6" height="6"/><rect x="550" y="75" width="7" height="7"/><rect x="580" y="75" width="7" height="7"/><rect x="610" y="95" width="7" height="7"/><rect x="800" y="85" width="6" height="6"/><rect x="830" y="85" width="6" height="6"/><rect x="860" y="105" width="6" height="6"/><rect x="1000" y="95" width="6" height="6"/><rect x="1030" y="95" width="6" height="6"/><rect x="1160" y="110" width="5" height="5"/><rect x="1370" y="115" width="6" height="6"/><rect x="1400" y="115" width="6" height="6"/></g>
    <g fill="#F5F5F5" opacity="0.35"><rect x="75" y="135" width="4" height="4"/><rect x="210" y="130" width="4" height="4"/><rect x="395" y="130" width="5" height="5"/><rect x="570" y="110" width="5" height="5"/><rect x="815" y="120" width="4" height="4"/><rect x="1020" y="130" width="4" height="4"/><rect x="1380" y="140" width="4" height="4"/></g>
    <rect x="205" y="90" width="38" height="8" fill="#66BB6A"/><rect x="560" y="68" width="55" height="10" fill="#E8935A"/><rect x="810" y="78" width="48" height="9" fill="#9B6BB0"/><rect x="1005" y="88" width="42" height="8" fill="#D4849A"/><rect x="1370" y="107" width="40" height="7" fill="#66BB6A"/>
    <rect x="0" y="0" width="1440" height="200" fill="url(#skyline-fade)"/>
  </svg><g id="marquee-strip">
    <rect x="0" y="1850" width="1080" height="70" fill="#E8935A"/>
    <rect x="0" y="1850" width="1080" height="3" fill="#050505"/>
    <rect x="0" y="1917" width="1080" height="3" fill="#050505"/>
    <text x="540" y="1892.48" text-anchor="middle"
          font-family="Arial Black, Arial, sans-serif"
          font-size="22" font-weight="900"
          letter-spacing="2"><tspan dx="0" fill="#0A0A0A">OUVERT 7J/7</tspan><tspan dx="32" fill="#A15F2E">✦</tspan><tspan dx="32" fill="#0A0A0A">LIVRAISON V-C</tspan><tspan dx="32" fill="#A15F2E">✦</tspan><tspan dx="32" fill="#0A0A0A">SNACKS US/JP</tspan><tspan dx="32" fill="#A15F2E">✦</tspan><tspan dx="32" fill="#0A0A0A">CBD PREMIUM</tspan></text>
  </g><g id="frame-corners">
    <rect x="40" y="230" width="56" height="3" fill="#66BB6A"/>
    <rect x="40" y="230" width="3" height="56" fill="#66BB6A"/>
    <rect x="984" y="230" width="56" height="3" fill="#66BB6A"/>
    <rect x="1037" y="230" width="3" height="56" fill="#66BB6A"/>
    <rect x="40" y="1607" width="56" height="3" fill="#66BB6A"/>
    <rect x="40" y="1554" width="3" height="56" fill="#66BB6A"/>
    <rect x="984" y="1607" width="56" height="3" fill="#66BB6A"/>
    <rect x="1037" y="1554" width="3" height="56" fill="#66BB6A"/></g><rect x="0" y="0" width="1080" height="1920" fill="url(#story-grain)" opacity="0.035"/></svg>