<?xml version="1.0" standalone="no"?>
<svg xmlns="http://www.w3.org/2000/svg" width="1024" height="1024" xmlns:xlink="http://www.w3.org/1999/xlink" viewBox="0 0 1024 1024"><defs><clipPath id="clip-path-background-color-0"><rect x="0" y="0" width="1024" height="1024"/></clipPath><clipPath id="clip-path-dot-color-0"><circle cx="302" cy="32" r="15" transform="rotate(0,302,32)"/><circle cx="332" cy="32" r="15" transform="rotate(0,332,32)"/><circle cx="452" cy="32" r="15" transform="rotate(0,452,32)"/><circle cx="482" cy="32" r="15" transform="rotate(0,482,32)"/><circle cx="542" cy="32" r="15" transform="rotate(0,542,32)"/><circle cx="572" cy="32" r="15" transform="rotate(0,572,32)"/><circle cx="602" cy="32" r="15" transform="rotate(0,602,32)"/><circle cx="632" cy="32" r="15" transform="rotate(0,632,32)"/><circle cx="722" cy="32" r="15" transform="rotate(0,722,32)"/><circle cx="752" cy="32" r="15" transform="rotate(0,752,32)"/><circle cx="302" cy="62" r="15" transform="rotate(0,302,62)"/><circle cx="332" cy="62" r="15" transform="rotate(0,332,62)"/><circle cx="392" cy="62" r="15" transform="rotate(0,392,62)"/><circle cx="452" cy="62" r="15" transform="rotate(0,452,62)"/><circle cx="482" cy="62" r="15" transform="rotate(0,482,62)"/><circle cx="512" cy="62" r="15" transform="rotate(0,512,62)"/><circle cx="542" cy="62" r="15" transform="rotate(0,542,62)"/><circle cx="632" cy="62" r="15" transform="rotate(0,632,62)"/><circle cx="722" cy="62" r="15" transform="rotate(0,722,62)"/><circle cx="332" cy="92" r="15" transform="rotate(0,332,92)"/><circle cx="362" cy="92" r="15" transform="rotate(0,362,92)"/><circle cx="452" cy="92" r="15" transform="rotate(0,452,92)"/><circle cx="482" cy="92" r="15" transform="rotate(0,482,92)"/><circle cx="572" cy="92" r="15" transform="rotate(0,572,92)"/><circle cx="602" cy="92" r="15" transform="rotate(0,602,92)"/><circle cx="722" cy="92" r="15" transform="rotate(0,722,92)"/><circle cx="422" cy="122" r="15" transform="rotate(0,422,122)"/><circle cx="452" cy="122" r="15" transform="rotate(0,452,122)"/><circle cx="512" cy="122" r="15" transform="rotate(0,512,122)"/><circle cx="572" cy="122" r="15" transform="rotate(0,572,122)"/><circle cx="632" cy="122" r="15" transform="rotate(0,632,122)"/><circle cx="692" cy="122" r="15" transform="rotate(0,692,122)"/><circle cx="722" cy="122" r="15" transform="rotate(0,722,122)"/><circle cx="272" cy="152" r="15" transform="rotate(0,272,152)"/><circle cx="302" cy="152" r="15" transform="rotate(0,302,152)"/><circle cx="332" cy="152" r="15" transform="rotate(0,332,152)"/><circle cx="362" cy="152" r="15" transform="rotate(0,362,152)"/><circle cx="452" cy="152" r="15" transform="rotate(0,452,152)"/><circle cx="512" cy="152" r="15" transform="rotate(0,512,152)"/><circle cx="542" cy="152" r="15" transform="rotate(0,542,152)"/><circle cx="572" cy="152" r="15" transform="rotate(0,572,152)"/><circle cx="662" cy="152" r="15" transform="rotate(0,662,152)"/><circle cx="752" cy="152" r="15" transform="rotate(0,752,152)"/><circle cx="302" cy="182" r="15" transform="rotate(0,302,182)"/><circle cx="332" cy="182" r="15" transform="rotate(0,332,182)"/><circle cx="362" cy="182" r="15" transform="rotate(0,362,182)"/><circle cx="392" cy="182" r="15" transform="rotate(0,392,182)"/><circle cx="452" cy="182" r="15" transform="rotate(0,452,182)"/><circle cx="542" cy="182" r="15" transform="rotate(0,542,182)"/><circle cx="602" cy="182" r="15" transform="rotate(0,602,182)"/><circle cx="632" cy="182" r="15" transform="rotate(0,632,182)"/><circle cx="662" cy="182" r="15" transform="rotate(0,662,182)"/><circle cx="752" cy="182" r="15" transform="rotate(0,752,182)"/><circle cx="272" cy="212" r="15" transform="rotate(0,272,212)"/><circle cx="332" cy="212" r="15" transform="rotate(0,332,212)"/><circle cx="392" cy="212" r="15" transform="rotate(0,392,212)"/><circle cx="452" cy="212" r="15" transform="rotate(0,452,212)"/><circle cx="512" cy="212" r="15" transform="rotate(0,512,212)"/><circle cx="572" cy="212" r="15" transform="rotate(0,572,212)"/><circle cx="632" cy="212" r="15" transform="rotate(0,632,212)"/><circle cx="692" cy="212" r="15" transform="rotate(0,692,212)"/><circle cx="752" cy="212" r="15" transform="rotate(0,752,212)"/><circle cx="272" cy="242" r="15" transform="rotate(0,272,242)"/><circle cx="302" cy="242" r="15" transform="rotate(0,302,242)"/><circle cx="482" cy="242" r="15" transform="rotate(0,482,242)"/><circle cx="542" cy="242" r="15" transform="rotate(0,542,242)"/><circle cx="602" cy="242" r="15" transform="rotate(0,602,242)"/><circle cx="722" cy="242" r="15" transform="rotate(0,722,242)"/><circle cx="92" cy="272" r="15" transform="rotate(0,92,272)"/><circle cx="122" cy="272" r="15" transform="rotate(0,122,272)"/><circle cx="212" cy="272" r="15" transform="rotate(0,212,272)"/><circle cx="242" cy="272" r="15" transform="rotate(0,242,272)"/><circle cx="272" cy="272" r="15" transform="rotate(0,272,272)"/><circle cx="542" cy="272" r="15" transform="rotate(0,542,272)"/><circle cx="572" cy="272" r="15" transform="rotate(0,572,272)"/><circle cx="602" cy="272" r="15" transform="rotate(0,602,272)"/><circle cx="632" cy="272" r="15" transform="rotate(0,632,272)"/><circle cx="662" cy="272" r="15" transform="rotate(0,662,272)"/><circle cx="782" cy="272" r="15" transform="rotate(0,782,272)"/><circle cx="812" cy="272" r="15" transform="rotate(0,812,272)"/><circle cx="872" cy="272" r="15" transform="rotate(0,872,272)"/><circle cx="62" cy="302" r="15" transform="rotate(0,62,302)"/><circle cx="92" cy="302" r="15" transform="rotate(0,92,302)"/><circle cx="122" cy="302" r="15" transform="rotate(0,122,302)"/><circle cx="152" cy="302" r="15" transform="rotate(0,152,302)"/><circle cx="242" cy="302" r="15" transform="rotate(0,242,302)"/><circle cx="272" cy="302" r="15" transform="rotate(0,272,302)"/><circle cx="302" cy="302" r="15" transform="rotate(0,302,302)"/><circle cx="332" cy="302" r="15" transform="rotate(0,332,302)"/><circle cx="362" cy="302" r="15" transform="rotate(0,362,302)"/><circle cx="422" cy="302" r="15" transform="rotate(0,422,302)"/><circle cx="452" cy="302" r="15" transform="rotate(0,452,302)"/><circle cx="482" cy="302" r="15" transform="rotate(0,482,302)"/><circle cx="572" cy="302" r="15" transform="rotate(0,572,302)"/><circle cx="662" cy="302" r="15" transform="rotate(0,662,302)"/><circle cx="692" cy="302" r="15" transform="rotate(0,692,302)"/><circle cx="722" cy="302" r="15" transform="rotate(0,722,302)"/><circle cx="752" cy="302" r="15" transform="rotate(0,752,302)"/><circle cx="782" cy="302" r="15" transform="rotate(0,782,302)"/><circle cx="812" cy="302" r="15" transform="rotate(0,812,302)"/><circle cx="902" cy="302" r="15" transform="rotate(0,902,302)"/><circle cx="932" cy="302" r="15" transform="rotate(0,932,302)"/><circle cx="962" cy="302" r="15" transform="rotate(0,962,302)"/><circle cx="992" cy="302" r="15" transform="rotate(0,992,302)"/><circle cx="92" cy="332" r="15" transform="rotate(0,92,332)"/><circle cx="152" cy="332" r="15" transform="rotate(0,152,332)"/><circle cx="212" cy="332" r="15" transform="rotate(0,212,332)"/><circle cx="242" cy="332" r="15" transform="rotate(0,242,332)"/><circle cx="272" cy="332" r="15" transform="rotate(0,272,332)"/><circle cx="452" cy="332" r="15" transform="rotate(0,452,332)"/><circle cx="482" cy="332" r="15" transform="rotate(0,482,332)"/><circle cx="512" cy="332" r="15" transform="rotate(0,512,332)"/><circle cx="572" cy="332" r="15" transform="rotate(0,572,332)"/><circle cx="602" cy="332" r="15" transform="rotate(0,602,332)"/><circle cx="632" cy="332" r="15" transform="rotate(0,632,332)"/><circle cx="722" cy="332" r="15" transform="rotate(0,722,332)"/><circle cx="812" cy="332" r="15" transform="rotate(0,812,332)"/><circle cx="902" cy="332" r="15" transform="rotate(0,902,332)"/><circle cx="962" cy="332" r="15" transform="rotate(0,962,332)"/><circle cx="992" cy="332" r="15" transform="rotate(0,992,332)"/><circle cx="92" cy="362" r="15" transform="rotate(0,92,362)"/><circle cx="122" cy="362" r="15" transform="rotate(0,122,362)"/><circle cx="272" cy="362" r="15" transform="rotate(0,272,362)"/><circle cx="302" cy="362" r="15" transform="rotate(0,302,362)"/><circle cx="332" cy="362" r="15" transform="rotate(0,332,362)"/><circle cx="392" cy="362" r="15" transform="rotate(0,392,362)"/><circle cx="542" cy="362" r="15" transform="rotate(0,542,362)"/><circle cx="572" cy="362" r="15" transform="rotate(0,572,362)"/><circle cx="602" cy="362" r="15" transform="rotate(0,602,362)"/><circle cx="692" cy="362" r="15" transform="rotate(0,692,362)"/><circle cx="842" cy="362" r="15" transform="rotate(0,842,362)"/><circle cx="872" cy="362" r="15" transform="rotate(0,872,362)"/><circle cx="962" cy="362" r="15" transform="rotate(0,962,362)"/><circle cx="992" cy="362" r="15" transform="rotate(0,992,362)"/><circle cx="92" cy="392" r="15" transform="rotate(0,92,392)"/><circle cx="182" cy="392" r="15" transform="rotate(0,182,392)"/><circle cx="212" cy="392" r="15" transform="rotate(0,212,392)"/><circle cx="272" cy="392" r="15" transform="rotate(0,272,392)"/><circle cx="332" cy="392" r="15" transform="rotate(0,332,392)"/><circle cx="422" cy="392" r="15" transform="rotate(0,422,392)"/><circle cx="452" cy="392" r="15" transform="rotate(0,452,392)"/><circle cx="512" cy="392" r="15" transform="rotate(0,512,392)"/><circle cx="542" cy="392" r="15" transform="rotate(0,542,392)"/><circle cx="632" cy="392" r="15" transform="rotate(0,632,392)"/><circle cx="692" cy="392" r="15" transform="rotate(0,692,392)"/><circle cx="752" cy="392" r="15" transform="rotate(0,752,392)"/><circle cx="842" cy="392" r="15" transform="rotate(0,842,392)"/><circle cx="872" cy="392" r="15" transform="rotate(0,872,392)"/><circle cx="962" cy="392" r="15" transform="rotate(0,962,392)"/><circle cx="32" cy="422" r="15" transform="rotate(0,32,422)"/><circle cx="62" cy="422" r="15" transform="rotate(0,62,422)"/><circle cx="92" cy="422" r="15" transform="rotate(0,92,422)"/><circle cx="152" cy="422" r="15" transform="rotate(0,152,422)"/><circle cx="182" cy="422" r="15" transform="rotate(0,182,422)"/><circle cx="242" cy="422" r="15" transform="rotate(0,242,422)"/><circle cx="272" cy="422" r="15" transform="rotate(0,272,422)"/><circle cx="302" cy="422" r="15" transform="rotate(0,302,422)"/><circle cx="392" cy="422" r="15" transform="rotate(0,392,422)"/><circle cx="452" cy="422" r="15" transform="rotate(0,452,422)"/><circle cx="482" cy="422" r="15" transform="rotate(0,482,422)"/><circle cx="542" cy="422" r="15" transform="rotate(0,542,422)"/><circle cx="602" cy="422" r="15" transform="rotate(0,602,422)"/><circle cx="662" cy="422" r="15" transform="rotate(0,662,422)"/><circle cx="692" cy="422" r="15" transform="rotate(0,692,422)"/><circle cx="752" cy="422" r="15" transform="rotate(0,752,422)"/><circle cx="842" cy="422" r="15" transform="rotate(0,842,422)"/><circle cx="902" cy="422" r="15" transform="rotate(0,902,422)"/><circle cx="32" cy="452" r="15" transform="rotate(0,32,452)"/><circle cx="122" cy="452" r="15" transform="rotate(0,122,452)"/><circle cx="152" cy="452" r="15" transform="rotate(0,152,452)"/><circle cx="182" cy="452" r="15" transform="rotate(0,182,452)"/><circle cx="212" cy="452" r="15" transform="rotate(0,212,452)"/><circle cx="272" cy="452" r="15" transform="rotate(0,272,452)"/><circle cx="302" cy="452" r="15" transform="rotate(0,302,452)"/><circle cx="422" cy="452" r="15" transform="rotate(0,422,452)"/><circle cx="482" cy="452" r="15" transform="rotate(0,482,452)"/><circle cx="512" cy="452" r="15" transform="rotate(0,512,452)"/><circle cx="572" cy="452" r="15" transform="rotate(0,572,452)"/><circle cx="602" cy="452" r="15" transform="rotate(0,602,452)"/><circle cx="632" cy="452" r="15" transform="rotate(0,632,452)"/><circle cx="662" cy="452" r="15" transform="rotate(0,662,452)"/><circle cx="782" cy="452" r="15" transform="rotate(0,782,452)"/><circle cx="812" cy="452" r="15" transform="rotate(0,812,452)"/><circle cx="842" cy="452" r="15" transform="rotate(0,842,452)"/><circle cx="872" cy="452" r="15" transform="rotate(0,872,452)"/><circle cx="932" cy="452" r="15" transform="rotate(0,932,452)"/><circle cx="152" cy="482" r="15" transform="rotate(0,152,482)"/><circle cx="332" cy="482" r="15" transform="rotate(0,332,482)"/><circle cx="422" cy="482" r="15" transform="rotate(0,422,482)"/><circle cx="482" cy="482" r="15" transform="rotate(0,482,482)"/><circle cx="572" cy="482" r="15" transform="rotate(0,572,482)"/><circle cx="632" cy="482" r="15" transform="rotate(0,632,482)"/><circle cx="662" cy="482" r="15" transform="rotate(0,662,482)"/><circle cx="692" cy="482" r="15" transform="rotate(0,692,482)"/><circle cx="722" cy="482" r="15" transform="rotate(0,722,482)"/><circle cx="902" cy="482" r="15" transform="rotate(0,902,482)"/><circle cx="932" cy="482" r="15" transform="rotate(0,932,482)"/><circle cx="992" cy="482" r="15" transform="rotate(0,992,482)"/><circle cx="32" cy="512" r="15" transform="rotate(0,32,512)"/><circle cx="212" cy="512" r="15" transform="rotate(0,212,512)"/><circle cx="242" cy="512" r="15" transform="rotate(0,242,512)"/><circle cx="272" cy="512" r="15" transform="rotate(0,272,512)"/><circle cx="332" cy="512" r="15" transform="rotate(0,332,512)"/><circle cx="362" cy="512" r="15" transform="rotate(0,362,512)"/><circle cx="422" cy="512" r="15" transform="rotate(0,422,512)"/><circle cx="452" cy="512" r="15" transform="rotate(0,452,512)"/><circle cx="482" cy="512" r="15" transform="rotate(0,482,512)"/><circle cx="512" cy="512" r="15" transform="rotate(0,512,512)"/><circle cx="602" cy="512" r="15" transform="rotate(0,602,512)"/><circle cx="632" cy="512" r="15" transform="rotate(0,632,512)"/><circle cx="662" cy="512" r="15" transform="rotate(0,662,512)"/><circle cx="752" cy="512" r="15" transform="rotate(0,752,512)"/><circle cx="782" cy="512" r="15" transform="rotate(0,782,512)"/><circle cx="812" cy="512" r="15" transform="rotate(0,812,512)"/><circle cx="872" cy="512" r="15" transform="rotate(0,872,512)"/><circle cx="902" cy="512" r="15" transform="rotate(0,902,512)"/><circle cx="932" cy="512" r="15" transform="rotate(0,932,512)"/><circle cx="992" cy="512" r="15" transform="rotate(0,992,512)"/><circle cx="92" cy="542" r="15" transform="rotate(0,92,542)"/><circle cx="122" cy="542" r="15" transform="rotate(0,122,542)"/><circle cx="152" cy="542" r="15" transform="rotate(0,152,542)"/><circle cx="332" cy="542" r="15" transform="rotate(0,332,542)"/><circle cx="362" cy="542" r="15" transform="rotate(0,362,542)"/><circle cx="392" cy="542" r="15" transform="rotate(0,392,542)"/><circle cx="482" cy="542" r="15" transform="rotate(0,482,542)"/><circle cx="512" cy="542" r="15" transform="rotate(0,512,542)"/><circle cx="542" cy="542" r="15" transform="rotate(0,542,542)"/><circle cx="692" cy="542" r="15" transform="rotate(0,692,542)"/><circle cx="722" cy="542" r="15" transform="rotate(0,722,542)"/><circle cx="782" cy="542" r="15" transform="rotate(0,782,542)"/><circle cx="812" cy="542" r="15" transform="rotate(0,812,542)"/><circle cx="842" cy="542" r="15" transform="rotate(0,842,542)"/><circle cx="872" cy="542" r="15" transform="rotate(0,872,542)"/><circle cx="932" cy="542" r="15" transform="rotate(0,932,542)"/><circle cx="992" cy="542" r="15" transform="rotate(0,992,542)"/><circle cx="32" cy="572" r="15" transform="rotate(0,32,572)"/><circle cx="62" cy="572" r="15" transform="rotate(0,62,572)"/><circle cx="92" cy="572" r="15" transform="rotate(0,92,572)"/><circle cx="122" cy="572" r="15" transform="rotate(0,122,572)"/><circle cx="212" cy="572" r="15" transform="rotate(0,212,572)"/><circle cx="242" cy="572" r="15" transform="rotate(0,242,572)"/><circle cx="272" cy="572" r="15" transform="rotate(0,272,572)"/><circle cx="302" cy="572" r="15" transform="rotate(0,302,572)"/><circle cx="362" cy="572" r="15" transform="rotate(0,362,572)"/><circle cx="422" cy="572" r="15" transform="rotate(0,422,572)"/><circle cx="452" cy="572" r="15" transform="rotate(0,452,572)"/><circle cx="512" cy="572" r="15" transform="rotate(0,512,572)"/><circle cx="602" cy="572" r="15" transform="rotate(0,602,572)"/><circle cx="632" cy="572" r="15" transform="rotate(0,632,572)"/><circle cx="692" cy="572" r="15" transform="rotate(0,692,572)"/><circle cx="782" cy="572" r="15" transform="rotate(0,782,572)"/><circle cx="812" cy="572" r="15" transform="rotate(0,812,572)"/><circle cx="872" cy="572" r="15" transform="rotate(0,872,572)"/><circle cx="932" cy="572" r="15" transform="rotate(0,932,572)"/><circle cx="962" cy="572" r="15" transform="rotate(0,962,572)"/><circle cx="62" cy="602" r="15" transform="rotate(0,62,602)"/><circle cx="92" cy="602" r="15" transform="rotate(0,92,602)"/><circle cx="122" cy="602" r="15" transform="rotate(0,122,602)"/><circle cx="152" cy="602" r="15" transform="rotate(0,152,602)"/><circle cx="182" cy="602" r="15" transform="rotate(0,182,602)"/><circle cx="242" cy="602" r="15" transform="rotate(0,242,602)"/><circle cx="362" cy="602" r="15" transform="rotate(0,362,602)"/><circle cx="542" cy="602" r="15" transform="rotate(0,542,602)"/><circle cx="632" cy="602" r="15" transform="rotate(0,632,602)"/><circle cx="692" cy="602" r="15" transform="rotate(0,692,602)"/><circle cx="812" cy="602" r="15" transform="rotate(0,812,602)"/><circle cx="962" cy="602" r="15" transform="rotate(0,962,602)"/><circle cx="992" cy="602" r="15" transform="rotate(0,992,602)"/><circle cx="32" cy="632" r="15" transform="rotate(0,32,632)"/><circle cx="212" cy="632" r="15" transform="rotate(0,212,632)"/><circle cx="272" cy="632" r="15" transform="rotate(0,272,632)"/><circle cx="332" cy="632" r="15" transform="rotate(0,332,632)"/><circle cx="392" cy="632" r="15" transform="rotate(0,392,632)"/><circle cx="422" cy="632" r="15" transform="rotate(0,422,632)"/><circle cx="482" cy="632" r="15" transform="rotate(0,482,632)"/><circle cx="632" cy="632" r="15" transform="rotate(0,632,632)"/><circle cx="662" cy="632" r="15" transform="rotate(0,662,632)"/><circle cx="782" cy="632" r="15" transform="rotate(0,782,632)"/><circle cx="902" cy="632" r="15" transform="rotate(0,902,632)"/><circle cx="932" cy="632" r="15" transform="rotate(0,932,632)"/><circle cx="32" cy="662" r="15" transform="rotate(0,32,662)"/><circle cx="62" cy="662" r="15" transform="rotate(0,62,662)"/><circle cx="92" cy="662" r="15" transform="rotate(0,92,662)"/><circle cx="122" cy="662" r="15" transform="rotate(0,122,662)"/><circle cx="152" cy="662" r="15" transform="rotate(0,152,662)"/><circle cx="182" cy="662" r="15" transform="rotate(0,182,662)"/><circle cx="242" cy="662" r="15" transform="rotate(0,242,662)"/><circle cx="272" cy="662" r="15" transform="rotate(0,272,662)"/><circle cx="362" cy="662" r="15" transform="rotate(0,362,662)"/><circle cx="392" cy="662" r="15" transform="rotate(0,392,662)"/><circle cx="512" cy="662" r="15" transform="rotate(0,512,662)"/><circle cx="542" cy="662" r="15" transform="rotate(0,542,662)"/><circle cx="602" cy="662" r="15" transform="rotate(0,602,662)"/><circle cx="632" cy="662" r="15" transform="rotate(0,632,662)"/><circle cx="662" cy="662" r="15" transform="rotate(0,662,662)"/><circle cx="722" cy="662" r="15" transform="rotate(0,722,662)"/><circle cx="812" cy="662" r="15" transform="rotate(0,812,662)"/><circle cx="962" cy="662" r="15" transform="rotate(0,962,662)"/><circle cx="992" cy="662" r="15" transform="rotate(0,992,662)"/><circle cx="92" cy="692" r="15" transform="rotate(0,92,692)"/><circle cx="122" cy="692" r="15" transform="rotate(0,122,692)"/><circle cx="182" cy="692" r="15" transform="rotate(0,182,692)"/><circle cx="212" cy="692" r="15" transform="rotate(0,212,692)"/><circle cx="332" cy="692" r="15" transform="rotate(0,332,692)"/><circle cx="392" cy="692" r="15" transform="rotate(0,392,692)"/><circle cx="422" cy="692" r="15" transform="rotate(0,422,692)"/><circle cx="512" cy="692" r="15" transform="rotate(0,512,692)"/><circle cx="542" cy="692" r="15" transform="rotate(0,542,692)"/><circle cx="602" cy="692" r="15" transform="rotate(0,602,692)"/><circle cx="662" cy="692" r="15" transform="rotate(0,662,692)"/><circle cx="692" cy="692" r="15" transform="rotate(0,692,692)"/><circle cx="722" cy="692" r="15" transform="rotate(0,722,692)"/><circle cx="812" cy="692" r="15" transform="rotate(0,812,692)"/><circle cx="872" cy="692" r="15" transform="rotate(0,872,692)"/><circle cx="962" cy="692" r="15" transform="rotate(0,962,692)"/><circle cx="992" cy="692" r="15" transform="rotate(0,992,692)"/><circle cx="62" cy="722" r="15" transform="rotate(0,62,722)"/><circle cx="92" cy="722" r="15" transform="rotate(0,92,722)"/><circle cx="152" cy="722" r="15" transform="rotate(0,152,722)"/><circle cx="182" cy="722" r="15" transform="rotate(0,182,722)"/><circle cx="272" cy="722" r="15" transform="rotate(0,272,722)"/><circle cx="302" cy="722" r="15" transform="rotate(0,302,722)"/><circle cx="422" cy="722" r="15" transform="rotate(0,422,722)"/><circle cx="452" cy="722" r="15" transform="rotate(0,452,722)"/><circle cx="482" cy="722" r="15" transform="rotate(0,482,722)"/><circle cx="572" cy="722" r="15" transform="rotate(0,572,722)"/><circle cx="632" cy="722" r="15" transform="rotate(0,632,722)"/><circle cx="692" cy="722" r="15" transform="rotate(0,692,722)"/><circle cx="722" cy="722" r="15" transform="rotate(0,722,722)"/><circle cx="752" cy="722" r="15" transform="rotate(0,752,722)"/><circle cx="782" cy="722" r="15" transform="rotate(0,782,722)"/><circle cx="872" cy="722" r="15" transform="rotate(0,872,722)"/><circle cx="902" cy="722" r="15" transform="rotate(0,902,722)"/><circle cx="962" cy="722" r="15" transform="rotate(0,962,722)"/><circle cx="32" cy="752" r="15" transform="rotate(0,32,752)"/><circle cx="212" cy="752" r="15" transform="rotate(0,212,752)"/><circle cx="242" cy="752" r="15" transform="rotate(0,242,752)"/><circle cx="272" cy="752" r="15" transform="rotate(0,272,752)"/><circle cx="392" cy="752" r="15" transform="rotate(0,392,752)"/><circle cx="452" cy="752" r="15" transform="rotate(0,452,752)"/><circle cx="482" cy="752" r="15" transform="rotate(0,482,752)"/><circle cx="542" cy="752" r="15" transform="rotate(0,542,752)"/><circle cx="602" cy="752" r="15" transform="rotate(0,602,752)"/><circle cx="632" cy="752" r="15" transform="rotate(0,632,752)"/><circle cx="692" cy="752" r="15" transform="rotate(0,692,752)"/><circle cx="722" cy="752" r="15" transform="rotate(0,722,752)"/><circle cx="752" cy="752" r="15" transform="rotate(0,752,752)"/><circle cx="782" cy="752" r="15" transform="rotate(0,782,752)"/><circle cx="812" cy="752" r="15" transform="rotate(0,812,752)"/><circle cx="842" cy="752" r="15" transform="rotate(0,842,752)"/><circle cx="872" cy="752" r="15" transform="rotate(0,872,752)"/><circle cx="902" cy="752" r="15" transform="rotate(0,902,752)"/><circle cx="992" cy="752" r="15" transform="rotate(0,992,752)"/><circle cx="272" cy="782" r="15" transform="rotate(0,272,782)"/><circle cx="332" cy="782" r="15" transform="rotate(0,332,782)"/><circle cx="392" cy="782" r="15" transform="rotate(0,392,782)"/><circle cx="452" cy="782" r="15" transform="rotate(0,452,782)"/><circle cx="542" cy="782" r="15" transform="rotate(0,542,782)"/><circle cx="572" cy="782" r="15" transform="rotate(0,572,782)"/><circle cx="752" cy="782" r="15" transform="rotate(0,752,782)"/><circle cx="872" cy="782" r="15" transform="rotate(0,872,782)"/><circle cx="932" cy="782" r="15" transform="rotate(0,932,782)"/><circle cx="962" cy="782" r="15" transform="rotate(0,962,782)"/><circle cx="272" cy="812" r="15" transform="rotate(0,272,812)"/><circle cx="362" cy="812" r="15" transform="rotate(0,362,812)"/><circle cx="422" cy="812" r="15" transform="rotate(0,422,812)"/><circle cx="542" cy="812" r="15" transform="rotate(0,542,812)"/><circle cx="572" cy="812" r="15" transform="rotate(0,572,812)"/><circle cx="602" cy="812" r="15" transform="rotate(0,602,812)"/><circle cx="692" cy="812" r="15" transform="rotate(0,692,812)"/><circle cx="722" cy="812" r="15" transform="rotate(0,722,812)"/><circle cx="752" cy="812" r="15" transform="rotate(0,752,812)"/><circle cx="812" cy="812" r="15" transform="rotate(0,812,812)"/><circle cx="872" cy="812" r="15" transform="rotate(0,872,812)"/><circle cx="902" cy="812" r="15" transform="rotate(0,902,812)"/><circle cx="302" cy="842" r="15" transform="rotate(0,302,842)"/><circle cx="332" cy="842" r="15" transform="rotate(0,332,842)"/><circle cx="362" cy="842" r="15" transform="rotate(0,362,842)"/><circle cx="512" cy="842" r="15" transform="rotate(0,512,842)"/><circle cx="662" cy="842" r="15" transform="rotate(0,662,842)"/><circle cx="722" cy="842" r="15" transform="rotate(0,722,842)"/><circle cx="752" cy="842" r="15" transform="rotate(0,752,842)"/><circle cx="872" cy="842" r="15" transform="rotate(0,872,842)"/><circle cx="902" cy="842" r="15" transform="rotate(0,902,842)"/><circle cx="932" cy="842" r="15" transform="rotate(0,932,842)"/><circle cx="962" cy="842" r="15" transform="rotate(0,962,842)"/><circle cx="992" cy="842" r="15" transform="rotate(0,992,842)"/><circle cx="392" cy="872" r="15" transform="rotate(0,392,872)"/><circle cx="422" cy="872" r="15" transform="rotate(0,422,872)"/><circle cx="512" cy="872" r="15" transform="rotate(0,512,872)"/><circle cx="542" cy="872" r="15" transform="rotate(0,542,872)"/><circle cx="602" cy="872" r="15" transform="rotate(0,602,872)"/><circle cx="722" cy="872" r="15" transform="rotate(0,722,872)"/><circle cx="752" cy="872" r="15" transform="rotate(0,752,872)"/><circle cx="782" cy="872" r="15" transform="rotate(0,782,872)"/><circle cx="812" cy="872" r="15" transform="rotate(0,812,872)"/><circle cx="842" cy="872" r="15" transform="rotate(0,842,872)"/><circle cx="872" cy="872" r="15" transform="rotate(0,872,872)"/><circle cx="932" cy="872" r="15" transform="rotate(0,932,872)"/><circle cx="962" cy="872" r="15" transform="rotate(0,962,872)"/><circle cx="272" cy="902" r="15" transform="rotate(0,272,902)"/><circle cx="302" cy="902" r="15" transform="rotate(0,302,902)"/><circle cx="332" cy="902" r="15" transform="rotate(0,332,902)"/><circle cx="392" cy="902" r="15" transform="rotate(0,392,902)"/><circle cx="422" cy="902" r="15" transform="rotate(0,422,902)"/><circle cx="452" cy="902" r="15" transform="rotate(0,452,902)"/><circle cx="482" cy="902" r="15" transform="rotate(0,482,902)"/><circle cx="602" cy="902" r="15" transform="rotate(0,602,902)"/><circle cx="632" cy="902" r="15" transform="rotate(0,632,902)"/><circle cx="692" cy="902" r="15" transform="rotate(0,692,902)"/><circle cx="722" cy="902" r="15" transform="rotate(0,722,902)"/><circle cx="752" cy="902" r="15" transform="rotate(0,752,902)"/><circle cx="842" cy="902" r="15" transform="rotate(0,842,902)"/><circle cx="962" cy="902" r="15" transform="rotate(0,962,902)"/><circle cx="992" cy="902" r="15" transform="rotate(0,992,902)"/><circle cx="272" cy="932" r="15" transform="rotate(0,272,932)"/><circle cx="332" cy="932" r="15" transform="rotate(0,332,932)"/><circle cx="362" cy="932" r="15" transform="rotate(0,362,932)"/><circle cx="392" cy="932" r="15" transform="rotate(0,392,932)"/><circle cx="542" cy="932" r="15" transform="rotate(0,542,932)"/><circle cx="602" cy="932" r="15" transform="rotate(0,602,932)"/><circle cx="632" cy="932" r="15" transform="rotate(0,632,932)"/><circle cx="692" cy="932" r="15" transform="rotate(0,692,932)"/><circle cx="722" cy="932" r="15" transform="rotate(0,722,932)"/><circle cx="782" cy="932" r="15" transform="rotate(0,782,932)"/><circle cx="812" cy="932" r="15" transform="rotate(0,812,932)"/><circle cx="902" cy="932" r="15" transform="rotate(0,902,932)"/><circle cx="302" cy="962" r="15" transform="rotate(0,302,962)"/><circle cx="362" cy="962" r="15" transform="rotate(0,362,962)"/><circle cx="392" cy="962" r="15" transform="rotate(0,392,962)"/><circle cx="422" cy="962" r="15" transform="rotate(0,422,962)"/><circle cx="482" cy="962" r="15" transform="rotate(0,482,962)"/><circle cx="542" cy="962" r="15" transform="rotate(0,542,962)"/><circle cx="602" cy="962" r="15" transform="rotate(0,602,962)"/><circle cx="722" cy="962" r="15" transform="rotate(0,722,962)"/><circle cx="752" cy="962" r="15" transform="rotate(0,752,962)"/><circle cx="782" cy="962" r="15" transform="rotate(0,782,962)"/><circle cx="992" cy="962" r="15" transform="rotate(0,992,962)"/><circle cx="302" cy="992" r="15" transform="rotate(0,302,992)"/><circle cx="332" cy="992" r="15" transform="rotate(0,332,992)"/><circle cx="392" cy="992" r="15" transform="rotate(0,392,992)"/><circle cx="452" cy="992" r="15" transform="rotate(0,452,992)"/><circle cx="512" cy="992" r="15" transform="rotate(0,512,992)"/><circle cx="662" cy="992" r="15" transform="rotate(0,662,992)"/><circle cx="722" cy="992" r="15" transform="rotate(0,722,992)"/><circle cx="842" cy="992" r="15" transform="rotate(0,842,992)"/><circle cx="872" cy="992" r="15" transform="rotate(0,872,992)"/><circle cx="932" cy="992" r="15" transform="rotate(0,932,992)"/></clipPath><linearGradient id="dot-color-0" gradientUnits="userSpaceOnUse" x1="512" y1="0" x2="512" y2="1024"><stop offset="0%" stop-color="#66BB6A"/><stop offset="100%" stop-color="#388E3C"/></linearGradient><clipPath id="clip-path-corners-square-color-0-0-0"><path clip-rule="evenodd" d="M 122 17a 105 105 0 1 0 0.1 0zm 0 30a 75 75 0 1 1 -0.1 0Z" transform="rotate(0,122,122)"/></clipPath><clipPath id="clip-path-corners-dot-color-0-0-0"><circle cx="122" cy="122" r="45" transform="rotate(0,122,122)"/></clipPath><clipPath id="clip-path-corners-square-color-1-0-0"><path clip-rule="evenodd" d="M 902 17a 105 105 0 1 0 0.1 0zm 0 30a 75 75 0 1 1 -0.1 0Z" transform="rotate(90,902,122)"/></clipPath><clipPath id="clip-path-corners-dot-color-1-0-0"><circle cx="902" cy="122" r="45" transform="rotate(90,902,122)"/></clipPath><clipPath id="clip-path-corners-square-color-0-1-0"><path clip-rule="evenodd" d="M 122 797a 105 105 0 1 0 0.1 0zm 0 30a 75 75 0 1 1 -0.1 0Z" transform="rotate(-90,122,902)"/></clipPath><clipPath id="clip-path-corners-dot-color-0-1-0"><circle cx="122" cy="902" r="45" transform="rotate(-90,122,902)"/></clipPath></defs><rect x="0" y="0" height="1024" width="1024" clip-path="url('#clip-path-background-color-0')" fill="#0A0A0A"/><rect x="0" y="0" height="1024" width="1024" clip-path="url('#clip-path-dot-color-0')" fill="url('#dot-color-0')"/><rect x="17" y="17" height="210" width="210" clip-path="url('#clip-path-corners-square-color-0-0-0')" fill="#66BB6A"/><rect x="77" y="77" height="90" width="90" clip-path="url('#clip-path-corners-dot-color-0-0-0')" fill="#66BB6A"/><rect x="797" y="17" height="210" width="210" clip-path="url('#clip-path-corners-square-color-1-0-0')" fill="#66BB6A"/><rect x="857" y="77" height="90" width="90" clip-path="url('#clip-path-corners-dot-color-1-0-0')" fill="#66BB6A"/><rect x="17" y="797" height="210" width="210" clip-path="url('#clip-path-corners-square-color-0-1-0')" fill="#66BB6A"/><rect x="77" y="857" height="90" width="90" clip-path="url('#clip-path-corners-dot-color-0-1-0')" fill="#66BB6A"/><rect
  x="309.91999999999996" y="361.12"
  width="404.16" height="301.76"
  fill="#0A0A0A" rx="16"/>
  <rect x="337.91999999999996" y="389.12" width="348.16" height="245.76"
        fill="#0A0A0A" stroke="#66BB6A" stroke-width="2.5" rx="12"/>
  <path d="M420.044 551.322L436.043 453.956L405.112 453.956L397.188 512.772L389.113 453.956L356.962 453.956L372.657 551.322ZM491.201 551.322L491.201 516.581C504.153 516.581 510.705 510.029 510.705 496.773L510.705 453.956L479.012 453.956L479.012 493.421C479.012 493.573 478.859 493.725 478.707 493.725L471.545 493.725C471.393 493.725 471.241 493.573 471.241 493.421L471.241 453.956L439.547 453.956L439.547 496.773C439.547 510.029 446.252 516.581 459.508 516.581L459.508 551.322ZM588.262 551.322L588.262 510.638C588.262 505.915 585.671 503.325 580.338 502.563C585.519 501.953 588.109 499.363 588.109 494.640L588.109 466.298C588.109 458.070 582.929 453.956 572.415 453.956L517.104 453.956L517.104 551.322L548.798 551.322L548.798 512.315L556.264 512.315C556.416 512.315 556.569 512.467 556.569 512.619L556.569 551.322ZM556.569 492.659C556.569 492.811 556.416 492.963 556.264 492.963L548.798 492.963L548.798 478.336L556.264 478.336C556.416 478.336 556.569 478.488 556.569 478.641ZM635.344 490.525L627.574 490.525L627.574 478.641C627.574 478.488 627.726 478.336 627.878 478.336L635.040 478.336C635.192 478.336 635.344 478.488 635.344 478.641ZM667.038 551.322L667.038 466.298C667.038 458.070 661.705 453.956 651.191 453.956L611.727 453.956C601.213 453.956 595.880 458.070 595.880 466.298L595.880 551.322L627.574 551.322L627.574 514.905L635.344 514.905L635.344 551.322Z" fill="#F5F5F5"/>
  <path d="M 530.5131008 551.3216
  L 588.8712704 551.3216
  L 588.8712704 578.748416
  L 511.3143296 578.748416
  Z" fill="#F5F5F5"/>
  <path d="M439.904 615.219L439.904 593.278C439.904 591.154 438.528 590.093 435.814 590.093C433.141 590.093 431.096 590.643 429.720 591.705L429.720 590.093L421.541 590.093L421.541 615.219L429.720 615.219L429.720 596.463C429.720 596.423 429.759 596.384 429.798 596.384L431.646 596.384C431.686 596.384 431.725 596.423 431.725 596.463L431.725 615.219ZM450.088 615.219L450.088 590.093L441.909 590.093L441.909 615.219ZM470.417 615.219L470.417 599.844L462.239 599.844L462.239 608.967L460.312 608.967C460.272 608.967 460.233 608.928 460.233 608.888L460.233 596.463C460.233 596.423 460.272 596.384 460.312 596.384L462.160 596.384C462.199 596.384 462.239 596.423 462.239 596.463L462.239 597.524L470.417 597.524L470.417 593.278C470.417 591.154 469.041 590.093 466.328 590.093L456.144 590.093C453.430 590.093 452.054 591.154 452.054 593.278L452.054 612.113C452.054 614.197 453.430 615.219 456.144 615.219ZM490.786 615.219L490.786 590.093L482.607 590.093L482.607 599.766L480.602 599.766L480.602 590.093L472.423 590.093L472.423 615.219L480.602 615.219L480.602 605.546L482.607 605.546L482.607 615.219ZM508.323 615.219C511.037 615.219 512.413 614.197 512.413 612.113L512.413 599.530L504.273 599.530L504.273 608.888C504.273 608.928 504.234 608.967 504.195 608.967L502.307 608.967C502.268 608.967 502.229 608.928 502.229 608.888L502.229 597.918L512.413 597.918L512.413 591.705L502.229 591.705L502.229 590.093L494.050 590.093L494.050 591.705L492.044 591.705L492.044 597.918L494.050 597.918L494.050 612.113C494.050 614.197 495.426 615.219 498.139 615.219ZM537.382 615.219C540.095 615.219 541.472 614.197 541.472 612.113L541.472 602.636C541.472 600.552 540.095 599.530 537.382 599.530L531.366 599.530C531.327 599.530 531.287 599.491 531.287 599.451L531.287 596.463C531.287 596.423 531.327 596.384 531.366 596.384L533.214 596.384C533.253 596.384 533.293 596.423 533.293 596.463L533.293 597.918L541.472 597.918L541.472 593.278C541.472 591.154 540.095 590.093 537.382 590.093L527.198 590.093C524.485 590.093 523.108 591.154 523.108 593.278L523.108 602.636C523.108 604.760 524.485 605.821 527.198 605.821L533.214 605.821C533.253 605.821 533.293 605.861 533.293 605.900L533.293 608.888C533.293 608.928 533.253 608.967 533.214 608.967L531.366 608.967C531.327 608.967 531.287 608.928 531.287 608.888L531.287 607.394L523.108 607.394L523.108 612.113C523.108 614.197 524.485 615.219 527.198 615.219ZM561.801 615.219L561.801 590.093L553.622 590.093L553.622 599.766L551.617 599.766L551.617 590.093L543.438 590.093L543.438 615.219L551.617 615.219L551.617 605.546L553.622 605.546L553.622 615.219ZM573.951 608.888C573.951 608.928 573.912 608.967 573.873 608.967L572.024 608.967C571.985 608.967 571.946 608.928 571.946 608.888L571.946 596.463C571.946 596.423 571.985 596.384 572.024 596.384L573.873 596.384C573.912 596.384 573.951 596.423 573.951 596.463ZM578.041 615.219C580.754 615.219 582.130 614.197 582.130 612.113L582.130 593.278C582.130 591.154 580.754 590.093 578.041 590.093L567.856 590.093C565.143 590.093 563.767 591.154 563.767 593.278L563.767 612.113C563.767 614.197 565.143 615.219 567.856 615.219ZM594.280 599.805C594.280 599.844 594.241 599.884 594.202 599.884L592.275 599.884L592.275 596.384L594.202 596.384C594.241 596.384 594.280 596.423 594.280 596.463ZM592.275 615.219L592.275 605.821L598.370 605.821C601.083 605.821 602.459 604.760 602.459 602.636L602.459 593.278C602.459 591.154 601.083 590.093 598.370 590.093L584.096 590.093L584.096 615.219Z" fill="#66BB6A"/>
</svg>