<?xml version="1.0" encoding="UTF-8"?><svg xmlns="http://www.w3.org/2000/svg" xmlns:xlink="http://www.w3.org/1999/xlink" width="2480" height="3508" viewBox="0 0 2480 3508"><defs>
    <radialGradient id="flyer-bg" cx="50%" cy="50%" r="85%">
      <stop offset="0%" stop-color="#0A0A0A"/>
      <stop offset="100%" stop-color="#050505"/>
    </radialGradient>
    <filter id="flyer-qr-halo" x="-20%" y="-20%" width="140%" height="140%">
      <feGaussianBlur stdDeviation="18"/>
    </filter>
    <filter id="flyer-neon-glow" x="-50%" y="-50%" width="200%" height="200%">
      <feGaussianBlur stdDeviation="4" result="b1"/>
      <feGaussianBlur in="SourceGraphic" stdDeviation="10" result="b2"/>
      <feMerge>
        <feMergeNode in="b2"/>
        <feMergeNode in="b1"/>
        <feMergeNode in="SourceGraphic"/>
      </feMerge>
    </filter>
    <filter id="flyer-noise">
      <feTurbulence type="fractalNoise" baseFrequency="0.9" numOctaves="2" stitchTiles="stitch"/>
      <feColorMatrix type="matrix" values="0 0 0 0 1  0 0 0 0 1  0 0 0 0 1  0 0 0 0.5 0"/>
    </filter>
    <pattern id="flyer-grain" x="0" y="0" width="256" height="256" patternUnits="userSpaceOnUse">
      <rect width="256" height="256" filter="url(#flyer-noise)"/>
    </pattern></defs><rect x="0" y="0" width="2480" height="3508" fill="url(#flyer-bg)"/><rect x="450" y="1100"
    width="1580" height="1580" rx="24"
    fill="#66BB6A" opacity="0.18" filter="url(#flyer-qr-halo)"/><g transform="translate(490, 1140) scale(1.46484375)"><defs>
      <filter id="qr-badge-halo" x="-50%" y="-50%" width="200%" height="200%">
        <feGaussianBlur stdDeviation="6"/>
      </filter>
      <filter id="qr-noise">
        <feTurbulence type="fractalNoise" baseFrequency="0.9" numOctaves="2" stitchTiles="stitch"/>
        <feColorMatrix type="matrix" values="0 0 0 0 1  0 0 0 0 1  0 0 0 0 1  0 0 0 0.5 0"/>
      </filter>
      <pattern id="qr-grain" x="0" y="0" width="200" height="200" patternUnits="userSpaceOnUse">
        <rect width="200" height="200" filter="url(#qr-noise)"/>
      </pattern></defs><defs><clipPath id="clip-path-background-color-0"><rect x="0" y="0" width="1024" height="1024"/></clipPath><clipPath id="clip-path-dot-color-0"><circle cx="302" cy="32" r="15" transform="rotate(0,302,32)"/><circle cx="332" cy="32" r="15" transform="rotate(0,332,32)"/><circle cx="452" cy="32" r="15" transform="rotate(0,452,32)"/><circle cx="482" cy="32" r="15" transform="rotate(0,482,32)"/><circle cx="542" cy="32" r="15" transform="rotate(0,542,32)"/><circle cx="572" cy="32" r="15" transform="rotate(0,572,32)"/><circle cx="602" cy="32" r="15" transform="rotate(0,602,32)"/><circle cx="632" cy="32" r="15" transform="rotate(0,632,32)"/><circle cx="722" cy="32" r="15" transform="rotate(0,722,32)"/><circle cx="752" cy="32" r="15" transform="rotate(0,752,32)"/><circle cx="302" cy="62" r="15" transform="rotate(0,302,62)"/><circle cx="332" cy="62" r="15" transform="rotate(0,332,62)"/><circle cx="392" cy="62" r="15" transform="rotate(0,392,62)"/><circle cx="452" cy="62" r="15" transform="rotate(0,452,62)"/><circle cx="482" cy="62" r="15" transform="rotate(0,482,62)"/><circle cx="512" cy="62" r="15" transform="rotate(0,512,62)"/><circle cx="542" cy="62" r="15" transform="rotate(0,542,62)"/><circle cx="632" cy="62" r="15" transform="rotate(0,632,62)"/><circle cx="722" cy="62" r="15" transform="rotate(0,722,62)"/><circle cx="332" cy="92" r="15" transform="rotate(0,332,92)"/><circle cx="362" cy="92" r="15" transform="rotate(0,362,92)"/><circle cx="452" cy="92" r="15" transform="rotate(0,452,92)"/><circle cx="482" cy="92" r="15" transform="rotate(0,482,92)"/><circle cx="572" cy="92" r="15" transform="rotate(0,572,92)"/><circle cx="602" cy="92" r="15" transform="rotate(0,602,92)"/><circle cx="722" cy="92" r="15" transform="rotate(0,722,92)"/><circle cx="422" cy="122" r="15" transform="rotate(0,422,122)"/><circle cx="452" cy="122" r="15" transform="rotate(0,452,122)"/><circle cx="512" cy="122" r="15" transform="rotate(0,512,122)"/><circle cx="572" cy="122" r="15" transform="rotate(0,572,122)"/><circle cx="632" cy="122" r="15" transform="rotate(0,632,122)"/><circle cx="692" cy="122" r="15" transform="rotate(0,692,122)"/><circle cx="722" cy="122" r="15" transform="rotate(0,722,122)"/><circle cx="272" cy="152" r="15" transform="rotate(0,272,152)"/><circle cx="302" cy="152" r="15" transform="rotate(0,302,152)"/><circle cx="332" cy="152" r="15" transform="rotate(0,332,152)"/><circle cx="362" cy="152" r="15" transform="rotate(0,362,152)"/><circle cx="452" cy="152" r="15" transform="rotate(0,452,152)"/><circle cx="512" cy="152" r="15" transform="rotate(0,512,152)"/><circle cx="542" cy="152" r="15" transform="rotate(0,542,152)"/><circle cx="572" cy="152" r="15" transform="rotate(0,572,152)"/><circle cx="662" cy="152" r="15" transform="rotate(0,662,152)"/><circle cx="752" cy="152" r="15" transform="rotate(0,752,152)"/><circle cx="302" cy="182" r="15" transform="rotate(0,302,182)"/><circle cx="332" cy="182" r="15" transform="rotate(0,332,182)"/><circle cx="362" cy="182" r="15" transform="rotate(0,362,182)"/><circle cx="392" cy="182" r="15" transform="rotate(0,392,182)"/><circle cx="452" cy="182" r="15" transform="rotate(0,452,182)"/><circle cx="542" cy="182" r="15" transform="rotate(0,542,182)"/><circle cx="602" cy="182" r="15" transform="rotate(0,602,182)"/><circle cx="632" cy="182" r="15" transform="rotate(0,632,182)"/><circle cx="662" cy="182" r="15" transform="rotate(0,662,182)"/><circle cx="752" cy="182" r="15" transform="rotate(0,752,182)"/><circle cx="272" cy="212" r="15" transform="rotate(0,272,212)"/><circle cx="332" cy="212" r="15" transform="rotate(0,332,212)"/><circle cx="392" cy="212" r="15" transform="rotate(0,392,212)"/><circle cx="452" cy="212" r="15" transform="rotate(0,452,212)"/><circle cx="512" cy="212" r="15" transform="rotate(0,512,212)"/><circle cx="572" cy="212" r="15" transform="rotate(0,572,212)"/><circle cx="632" cy="212" r="15" transform="rotate(0,632,212)"/><circle cx="692" cy="212" r="15" transform="rotate(0,692,212)"/><circle cx="752" cy="212" r="15" transform="rotate(0,752,212)"/><circle cx="272" cy="242" r="15" transform="rotate(0,272,242)"/><circle cx="302" cy="242" r="15" transform="rotate(0,302,242)"/><circle cx="482" cy="242" r="15" transform="rotate(0,482,242)"/><circle cx="542" cy="242" r="15" transform="rotate(0,542,242)"/><circle cx="602" cy="242" r="15" transform="rotate(0,602,242)"/><circle cx="722" cy="242" r="15" transform="rotate(0,722,242)"/><circle cx="92" cy="272" r="15" transform="rotate(0,92,272)"/><circle cx="122" cy="272" r="15" transform="rotate(0,122,272)"/><circle cx="212" cy="272" r="15" transform="rotate(0,212,272)"/><circle cx="242" cy="272" r="15" transform="rotate(0,242,272)"/><circle cx="272" cy="272" r="15" transform="rotate(0,272,272)"/><circle cx="542" cy="272" r="15" transform="rotate(0,542,272)"/><circle cx="572" cy="272" r="15" transform="rotate(0,572,272)"/><circle cx="602" cy="272" r="15" transform="rotate(0,602,272)"/><circle cx="632" cy="272" r="15" transform="rotate(0,632,272)"/><circle cx="662" cy="272" r="15" transform="rotate(0,662,272)"/><circle cx="782" cy="272" r="15" transform="rotate(0,782,272)"/><circle cx="812" cy="272" r="15" transform="rotate(0,812,272)"/><circle cx="872" cy="272" r="15" transform="rotate(0,872,272)"/><circle cx="62" cy="302" r="15" transform="rotate(0,62,302)"/><circle cx="92" cy="302" r="15" transform="rotate(0,92,302)"/><circle cx="122" cy="302" r="15" transform="rotate(0,122,302)"/><circle cx="152" cy="302" r="15" transform="rotate(0,152,302)"/><circle cx="242" cy="302" r="15" transform="rotate(0,242,302)"/><circle cx="272" cy="302" r="15" transform="rotate(0,272,302)"/><circle cx="302" cy="302" r="15" transform="rotate(0,302,302)"/><circle cx="332" cy="302" r="15" transform="rotate(0,332,302)"/><circle cx="362" cy="302" r="15" transform="rotate(0,362,302)"/><circle cx="422" cy="302" r="15" transform="rotate(0,422,302)"/><circle cx="452" cy="302" r="15" transform="rotate(0,452,302)"/><circle cx="482" cy="302" r="15" transform="rotate(0,482,302)"/><circle cx="572" cy="302" r="15" transform="rotate(0,572,302)"/><circle cx="662" cy="302" r="15" transform="rotate(0,662,302)"/><circle cx="692" cy="302" r="15" transform="rotate(0,692,302)"/><circle cx="722" cy="302" r="15" transform="rotate(0,722,302)"/><circle cx="752" cy="302" r="15" transform="rotate(0,752,302)"/><circle cx="782" cy="302" r="15" transform="rotate(0,782,302)"/><circle cx="812" cy="302" r="15" transform="rotate(0,812,302)"/><circle cx="902" cy="302" r="15" transform="rotate(0,902,302)"/><circle cx="932" cy="302" r="15" transform="rotate(0,932,302)"/><circle cx="962" cy="302" r="15" transform="rotate(0,962,302)"/><circle cx="992" cy="302" r="15" transform="rotate(0,992,302)"/><circle cx="92" cy="332" r="15" transform="rotate(0,92,332)"/><circle cx="152" cy="332" r="15" transform="rotate(0,152,332)"/><circle cx="212" cy="332" r="15" transform="rotate(0,212,332)"/><circle cx="242" cy="332" r="15" transform="rotate(0,242,332)"/><circle cx="272" cy="332" r="15" transform="rotate(0,272,332)"/><circle cx="452" cy="332" r="15" transform="rotate(0,452,332)"/><circle cx="482" cy="332" r="15" transform="rotate(0,482,332)"/><circle cx="512" cy="332" r="15" transform="rotate(0,512,332)"/><circle cx="572" cy="332" r="15" transform="rotate(0,572,332)"/><circle cx="602" cy="332" r="15" transform="rotate(0,602,332)"/><circle cx="632" cy="332" r="15" transform="rotate(0,632,332)"/><circle cx="722" cy="332" r="15" transform="rotate(0,722,332)"/><circle cx="812" cy="332" r="15" transform="rotate(0,812,332)"/><circle cx="902" cy="332" r="15" transform="rotate(0,902,332)"/><circle cx="962" cy="332" r="15" transform="rotate(0,962,332)"/><circle cx="992" cy="332" r="15" transform="rotate(0,992,332)"/><circle cx="92" cy="362" r="15" transform="rotate(0,92,362)"/><circle cx="122" cy="362" r="15" transform="rotate(0,122,362)"/><circle cx="272" cy="362" r="15" transform="rotate(0,272,362)"/><circle cx="302" cy="362" r="15" transform="rotate(0,302,362)"/><circle cx="332" cy="362" r="15" transform="rotate(0,332,362)"/><circle cx="392" cy="362" r="15" transform="rotate(0,392,362)"/><circle cx="542" cy="362" r="15" transform="rotate(0,542,362)"/><circle cx="572" cy="362" r="15" transform="rotate(0,572,362)"/><circle cx="602" cy="362" r="15" transform="rotate(0,602,362)"/><circle cx="692" cy="362" r="15" transform="rotate(0,692,362)"/><circle cx="842" cy="362" r="15" transform="rotate(0,842,362)"/><circle cx="872" cy="362" r="15" transform="rotate(0,872,362)"/><circle cx="962" cy="362" r="15" transform="rotate(0,962,362)"/><circle cx="992" cy="362" r="15" transform="rotate(0,992,362)"/><circle cx="92" cy="392" r="15" transform="rotate(0,92,392)"/><circle cx="182" cy="392" r="15" transform="rotate(0,182,392)"/><circle cx="212" cy="392" r="15" transform="rotate(0,212,392)"/><circle cx="272" cy="392" r="15" transform="rotate(0,272,392)"/><circle cx="332" cy="392" r="15" transform="rotate(0,332,392)"/><circle cx="422" cy="392" r="15" transform="rotate(0,422,392)"/><circle cx="452" cy="392" r="15" transform="rotate(0,452,392)"/><circle cx="512" cy="392" r="15" transform="rotate(0,512,392)"/><circle cx="542" cy="392" r="15" transform="rotate(0,542,392)"/><circle cx="632" cy="392" r="15" transform="rotate(0,632,392)"/><circle cx="692" cy="392" r="15" transform="rotate(0,692,392)"/><circle cx="752" cy="392" r="15" transform="rotate(0,752,392)"/><circle cx="842" cy="392" r="15" transform="rotate(0,842,392)"/><circle cx="872" cy="392" r="15" transform="rotate(0,872,392)"/><circle cx="962" cy="392" r="15" transform="rotate(0,962,392)"/><circle cx="32" cy="422" r="15" transform="rotate(0,32,422)"/><circle cx="62" cy="422" r="15" transform="rotate(0,62,422)"/><circle cx="92" cy="422" r="15" transform="rotate(0,92,422)"/><circle cx="152" cy="422" r="15" transform="rotate(0,152,422)"/><circle cx="182" cy="422" r="15" transform="rotate(0,182,422)"/><circle cx="242" cy="422" r="15" transform="rotate(0,242,422)"/><circle cx="272" cy="422" r="15" transform="rotate(0,272,422)"/><circle cx="302" cy="422" r="15" transform="rotate(0,302,422)"/><circle cx="392" cy="422" r="15" transform="rotate(0,392,422)"/><circle cx="452" cy="422" r="15" transform="rotate(0,452,422)"/><circle cx="482" cy="422" r="15" transform="rotate(0,482,422)"/><circle cx="542" cy="422" r="15" transform="rotate(0,542,422)"/><circle cx="602" cy="422" r="15" transform="rotate(0,602,422)"/><circle cx="662" cy="422" r="15" transform="rotate(0,662,422)"/><circle cx="692" cy="422" r="15" transform="rotate(0,692,422)"/><circle cx="752" cy="422" r="15" transform="rotate(0,752,422)"/><circle cx="842" cy="422" r="15" transform="rotate(0,842,422)"/><circle cx="902" cy="422" r="15" transform="rotate(0,902,422)"/><circle cx="32" cy="452" r="15" transform="rotate(0,32,452)"/><circle cx="122" cy="452" r="15" transform="rotate(0,122,452)"/><circle cx="152" cy="452" r="15" transform="rotate(0,152,452)"/><circle cx="182" cy="452" r="15" transform="rotate(0,182,452)"/><circle cx="212" cy="452" r="15" transform="rotate(0,212,452)"/><circle cx="272" cy="452" r="15" transform="rotate(0,272,452)"/><circle cx="302" cy="452" r="15" transform="rotate(0,302,452)"/><circle cx="422" cy="452" r="15" transform="rotate(0,422,452)"/><circle cx="482" cy="452" r="15" transform="rotate(0,482,452)"/><circle cx="512" cy="452" r="15" transform="rotate(0,512,452)"/><circle cx="572" cy="452" r="15" transform="rotate(0,572,452)"/><circle cx="602" cy="452" r="15" transform="rotate(0,602,452)"/><circle cx="632" cy="452" r="15" transform="rotate(0,632,452)"/><circle cx="662" cy="452" r="15" transform="rotate(0,662,452)"/><circle cx="782" cy="452" r="15" transform="rotate(0,782,452)"/><circle cx="812" cy="452" r="15" transform="rotate(0,812,452)"/><circle cx="842" cy="452" r="15" transform="rotate(0,842,452)"/><circle cx="872" cy="452" r="15" transform="rotate(0,872,452)"/><circle cx="932" cy="452" r="15" transform="rotate(0,932,452)"/><circle cx="152" cy="482" r="15" transform="rotate(0,152,482)"/><circle cx="332" cy="482" r="15" transform="rotate(0,332,482)"/><circle cx="422" cy="482" r="15" transform="rotate(0,422,482)"/><circle cx="482" cy="482" r="15" transform="rotate(0,482,482)"/><circle cx="572" cy="482" r="15" transform="rotate(0,572,482)"/><circle cx="632" cy="482" r="15" transform="rotate(0,632,482)"/><circle cx="662" cy="482" r="15" transform="rotate(0,662,482)"/><circle cx="692" cy="482" r="15" transform="rotate(0,692,482)"/><circle cx="722" cy="482" r="15" transform="rotate(0,722,482)"/><circle cx="902" cy="482" r="15" transform="rotate(0,902,482)"/><circle cx="932" cy="482" r="15" transform="rotate(0,932,482)"/><circle cx="992" cy="482" r="15" transform="rotate(0,992,482)"/><circle cx="32" cy="512" r="15" transform="rotate(0,32,512)"/><circle cx="212" cy="512" r="15" transform="rotate(0,212,512)"/><circle cx="242" cy="512" r="15" transform="rotate(0,242,512)"/><circle cx="272" cy="512" r="15" transform="rotate(0,272,512)"/><circle cx="332" cy="512" r="15" transform="rotate(0,332,512)"/><circle cx="362" cy="512" r="15" transform="rotate(0,362,512)"/><circle cx="422" cy="512" r="15" transform="rotate(0,422,512)"/><circle cx="452" cy="512" r="15" transform="rotate(0,452,512)"/><circle cx="482" cy="512" r="15" transform="rotate(0,482,512)"/><circle cx="512" cy="512" r="15" transform="rotate(0,512,512)"/><circle cx="602" cy="512" r="15" transform="rotate(0,602,512)"/><circle cx="632" cy="512" r="15" transform="rotate(0,632,512)"/><circle cx="662" cy="512" r="15" transform="rotate(0,662,512)"/><circle cx="752" cy="512" r="15" transform="rotate(0,752,512)"/><circle cx="782" cy="512" r="15" transform="rotate(0,782,512)"/><circle cx="812" cy="512" r="15" transform="rotate(0,812,512)"/><circle cx="872" cy="512" r="15" transform="rotate(0,872,512)"/><circle cx="902" cy="512" r="15" transform="rotate(0,902,512)"/><circle cx="932" cy="512" r="15" transform="rotate(0,932,512)"/><circle cx="992" cy="512" r="15" transform="rotate(0,992,512)"/><circle cx="92" cy="542" r="15" transform="rotate(0,92,542)"/><circle cx="122" cy="542" r="15" transform="rotate(0,122,542)"/><circle cx="152" cy="542" r="15" transform="rotate(0,152,542)"/><circle cx="332" cy="542" r="15" transform="rotate(0,332,542)"/><circle cx="362" cy="542" r="15" transform="rotate(0,362,542)"/><circle cx="392" cy="542" r="15" transform="rotate(0,392,542)"/><circle cx="482" cy="542" r="15" transform="rotate(0,482,542)"/><circle cx="512" cy="542" r="15" transform="rotate(0,512,542)"/><circle cx="542" cy="542" r="15" transform="rotate(0,542,542)"/><circle cx="692" cy="542" r="15" transform="rotate(0,692,542)"/><circle cx="722" cy="542" r="15" transform="rotate(0,722,542)"/><circle cx="782" cy="542" r="15" transform="rotate(0,782,542)"/><circle cx="812" cy="542" r="15" transform="rotate(0,812,542)"/><circle cx="842" cy="542" r="15" transform="rotate(0,842,542)"/><circle cx="872" cy="542" r="15" transform="rotate(0,872,542)"/><circle cx="932" cy="542" r="15" transform="rotate(0,932,542)"/><circle cx="992" cy="542" r="15" transform="rotate(0,992,542)"/><circle cx="32" cy="572" r="15" transform="rotate(0,32,572)"/><circle cx="62" cy="572" r="15" transform="rotate(0,62,572)"/><circle cx="92" cy="572" r="15" transform="rotate(0,92,572)"/><circle cx="122" cy="572" r="15" transform="rotate(0,122,572)"/><circle cx="212" cy="572" r="15" transform="rotate(0,212,572)"/><circle cx="242" cy="572" r="15" transform="rotate(0,242,572)"/><circle cx="272" cy="572" r="15" transform="rotate(0,272,572)"/><circle cx="302" cy="572" r="15" transform="rotate(0,302,572)"/><circle cx="362" cy="572" r="15" transform="rotate(0,362,572)"/><circle cx="422" cy="572" r="15" transform="rotate(0,422,572)"/><circle cx="452" cy="572" r="15" transform="rotate(0,452,572)"/><circle cx="512" cy="572" r="15" transform="rotate(0,512,572)"/><circle cx="602" cy="572" r="15" transform="rotate(0,602,572)"/><circle cx="632" cy="572" r="15" transform="rotate(0,632,572)"/><circle cx="692" cy="572" r="15" transform="rotate(0,692,572)"/><circle cx="782" cy="572" r="15" transform="rotate(0,782,572)"/><circle cx="812" cy="572" r="15" transform="rotate(0,812,572)"/><circle cx="872" cy="572" r="15" transform="rotate(0,872,572)"/><circle cx="932" cy="572" r="15" transform="rotate(0,932,572)"/><circle cx="962" cy="572" r="15" transform="rotate(0,962,572)"/><circle cx="62" cy="602" r="15" transform="rotate(0,62,602)"/><circle cx="92" cy="602" r="15" transform="rotate(0,92,602)"/><circle cx="122" cy="602" r="15" transform="rotate(0,122,602)"/><circle cx="152" cy="602" r="15" transform="rotate(0,152,602)"/><circle cx="182" cy="602" r="15" transform="rotate(0,182,602)"/><circle cx="242" cy="602" r="15" transform="rotate(0,242,602)"/><circle cx="362" cy="602" r="15" transform="rotate(0,362,602)"/><circle cx="542" cy="602" r="15" transform="rotate(0,542,602)"/><circle cx="632" cy="602" r="15" transform="rotate(0,632,602)"/><circle cx="692" cy="602" r="15" transform="rotate(0,692,602)"/><circle cx="812" cy="602" r="15" transform="rotate(0,812,602)"/><circle cx="962" cy="602" r="15" transform="rotate(0,962,602)"/><circle cx="992" cy="602" r="15" transform="rotate(0,992,602)"/><circle cx="32" cy="632" r="15" transform="rotate(0,32,632)"/><circle cx="212" cy="632" r="15" transform="rotate(0,212,632)"/><circle cx="272" cy="632" r="15" transform="rotate(0,272,632)"/><circle cx="332" cy="632" r="15" transform="rotate(0,332,632)"/><circle cx="392" cy="632" r="15" transform="rotate(0,392,632)"/><circle cx="422" cy="632" r="15" transform="rotate(0,422,632)"/><circle cx="482" cy="632" r="15" transform="rotate(0,482,632)"/><circle cx="632" cy="632" r="15" transform="rotate(0,632,632)"/><circle cx="662" cy="632" r="15" transform="rotate(0,662,632)"/><circle cx="782" cy="632" r="15" transform="rotate(0,782,632)"/><circle cx="902" cy="632" r="15" transform="rotate(0,902,632)"/><circle cx="932" cy="632" r="15" transform="rotate(0,932,632)"/><circle cx="32" cy="662" r="15" transform="rotate(0,32,662)"/><circle cx="62" cy="662" r="15" transform="rotate(0,62,662)"/><circle cx="92" cy="662" r="15" transform="rotate(0,92,662)"/><circle cx="122" cy="662" r="15" transform="rotate(0,122,662)"/><circle cx="152" cy="662" r="15" transform="rotate(0,152,662)"/><circle cx="182" cy="662" r="15" transform="rotate(0,182,662)"/><circle cx="242" cy="662" r="15" transform="rotate(0,242,662)"/><circle cx="272" cy="662" r="15" transform="rotate(0,272,662)"/><circle cx="362" cy="662" r="15" transform="rotate(0,362,662)"/><circle cx="392" cy="662" r="15" transform="rotate(0,392,662)"/><circle cx="512" cy="662" r="15" transform="rotate(0,512,662)"/><circle cx="542" cy="662" r="15" transform="rotate(0,542,662)"/><circle cx="602" cy="662" r="15" transform="rotate(0,602,662)"/><circle cx="632" cy="662" r="15" transform="rotate(0,632,662)"/><circle cx="662" cy="662" r="15" transform="rotate(0,662,662)"/><circle cx="722" cy="662" r="15" transform="rotate(0,722,662)"/><circle cx="812" cy="662" r="15" transform="rotate(0,812,662)"/><circle cx="962" cy="662" r="15" transform="rotate(0,962,662)"/><circle cx="992" cy="662" r="15" transform="rotate(0,992,662)"/><circle cx="92" cy="692" r="15" transform="rotate(0,92,692)"/><circle cx="122" cy="692" r="15" transform="rotate(0,122,692)"/><circle cx="182" cy="692" r="15" transform="rotate(0,182,692)"/><circle cx="212" cy="692" r="15" transform="rotate(0,212,692)"/><circle cx="332" cy="692" r="15" transform="rotate(0,332,692)"/><circle cx="392" cy="692" r="15" transform="rotate(0,392,692)"/><circle cx="422" cy="692" r="15" transform="rotate(0,422,692)"/><circle cx="512" cy="692" r="15" transform="rotate(0,512,692)"/><circle cx="542" cy="692" r="15" transform="rotate(0,542,692)"/><circle cx="602" cy="692" r="15" transform="rotate(0,602,692)"/><circle cx="662" cy="692" r="15" transform="rotate(0,662,692)"/><circle cx="692" cy="692" r="15" transform="rotate(0,692,692)"/><circle cx="722" cy="692" r="15" transform="rotate(0,722,692)"/><circle cx="812" cy="692" r="15" transform="rotate(0,812,692)"/><circle cx="872" cy="692" r="15" transform="rotate(0,872,692)"/><circle cx="962" cy="692" r="15" transform="rotate(0,962,692)"/><circle cx="992" cy="692" r="15" transform="rotate(0,992,692)"/><circle cx="62" cy="722" r="15" transform="rotate(0,62,722)"/><circle cx="92" cy="722" r="15" transform="rotate(0,92,722)"/><circle cx="152" cy="722" r="15" transform="rotate(0,152,722)"/><circle cx="182" cy="722" r="15" transform="rotate(0,182,722)"/><circle cx="272" cy="722" r="15" transform="rotate(0,272,722)"/><circle cx="302" cy="722" r="15" transform="rotate(0,302,722)"/><circle cx="422" cy="722" r="15" transform="rotate(0,422,722)"/><circle cx="452" cy="722" r="15" transform="rotate(0,452,722)"/><circle cx="482" cy="722" r="15" transform="rotate(0,482,722)"/><circle cx="572" cy="722" r="15" transform="rotate(0,572,722)"/><circle cx="632" cy="722" r="15" transform="rotate(0,632,722)"/><circle cx="692" cy="722" r="15" transform="rotate(0,692,722)"/><circle cx="722" cy="722" r="15" transform="rotate(0,722,722)"/><circle cx="752" cy="722" r="15" transform="rotate(0,752,722)"/><circle cx="782" cy="722" r="15" transform="rotate(0,782,722)"/><circle cx="872" cy="722" r="15" transform="rotate(0,872,722)"/><circle cx="902" cy="722" r="15" transform="rotate(0,902,722)"/><circle cx="962" cy="722" r="15" transform="rotate(0,962,722)"/><circle cx="32" cy="752" r="15" transform="rotate(0,32,752)"/><circle cx="212" cy="752" r="15" transform="rotate(0,212,752)"/><circle cx="242" cy="752" r="15" transform="rotate(0,242,752)"/><circle cx="272" cy="752" r="15" transform="rotate(0,272,752)"/><circle cx="392" cy="752" r="15" transform="rotate(0,392,752)"/><circle cx="452" cy="752" r="15" transform="rotate(0,452,752)"/><circle cx="482" cy="752" r="15" transform="rotate(0,482,752)"/><circle cx="542" cy="752" r="15" transform="rotate(0,542,752)"/><circle cx="602" cy="752" r="15" transform="rotate(0,602,752)"/><circle cx="632" cy="752" r="15" transform="rotate(0,632,752)"/><circle cx="692" cy="752" r="15" transform="rotate(0,692,752)"/><circle cx="722" cy="752" r="15" transform="rotate(0,722,752)"/><circle cx="752" cy="752" r="15" transform="rotate(0,752,752)"/><circle cx="782" cy="752" r="15" transform="rotate(0,782,752)"/><circle cx="812" cy="752" r="15" transform="rotate(0,812,752)"/><circle cx="842" cy="752" r="15" transform="rotate(0,842,752)"/><circle cx="872" cy="752" r="15" transform="rotate(0,872,752)"/><circle cx="902" cy="752" r="15" transform="rotate(0,902,752)"/><circle cx="992" cy="752" r="15" transform="rotate(0,992,752)"/><circle cx="272" cy="782" r="15" transform="rotate(0,272,782)"/><circle cx="332" cy="782" r="15" transform="rotate(0,332,782)"/><circle cx="392" cy="782" r="15" transform="rotate(0,392,782)"/><circle cx="452" cy="782" r="15" transform="rotate(0,452,782)"/><circle cx="542" cy="782" r="15" transform="rotate(0,542,782)"/><circle cx="572" cy="782" r="15" transform="rotate(0,572,782)"/><circle cx="752" cy="782" r="15" transform="rotate(0,752,782)"/><circle cx="872" cy="782" r="15" transform="rotate(0,872,782)"/><circle cx="932" cy="782" r="15" transform="rotate(0,932,782)"/><circle cx="962" cy="782" r="15" transform="rotate(0,962,782)"/><circle cx="272" cy="812" r="15" transform="rotate(0,272,812)"/><circle cx="362" cy="812" r="15" transform="rotate(0,362,812)"/><circle cx="422" cy="812" r="15" transform="rotate(0,422,812)"/><circle cx="542" cy="812" r="15" transform="rotate(0,542,812)"/><circle cx="572" cy="812" r="15" transform="rotate(0,572,812)"/><circle cx="602" cy="812" r="15" transform="rotate(0,602,812)"/><circle cx="692" cy="812" r="15" transform="rotate(0,692,812)"/><circle cx="722" cy="812" r="15" transform="rotate(0,722,812)"/><circle cx="752" cy="812" r="15" transform="rotate(0,752,812)"/><circle cx="812" cy="812" r="15" transform="rotate(0,812,812)"/><circle cx="872" cy="812" r="15" transform="rotate(0,872,812)"/><circle cx="902" cy="812" r="15" transform="rotate(0,902,812)"/><circle cx="302" cy="842" r="15" transform="rotate(0,302,842)"/><circle cx="332" cy="842" r="15" transform="rotate(0,332,842)"/><circle cx="362" cy="842" r="15" transform="rotate(0,362,842)"/><circle cx="512" cy="842" r="15" transform="rotate(0,512,842)"/><circle cx="662" cy="842" r="15" transform="rotate(0,662,842)"/><circle cx="722" cy="842" r="15" transform="rotate(0,722,842)"/><circle cx="752" cy="842" r="15" transform="rotate(0,752,842)"/><circle cx="872" cy="842" r="15" transform="rotate(0,872,842)"/><circle cx="902" cy="842" r="15" transform="rotate(0,902,842)"/><circle cx="932" cy="842" r="15" transform="rotate(0,932,842)"/><circle cx="962" cy="842" r="15" transform="rotate(0,962,842)"/><circle cx="992" cy="842" r="15" transform="rotate(0,992,842)"/><circle cx="392" cy="872" r="15" transform="rotate(0,392,872)"/><circle cx="422" cy="872" r="15" transform="rotate(0,422,872)"/><circle cx="512" cy="872" r="15" transform="rotate(0,512,872)"/><circle cx="542" cy="872" r="15" transform="rotate(0,542,872)"/><circle cx="602" cy="872" r="15" transform="rotate(0,602,872)"/><circle cx="722" cy="872" r="15" transform="rotate(0,722,872)"/><circle cx="752" cy="872" r="15" transform="rotate(0,752,872)"/><circle cx="782" cy="872" r="15" transform="rotate(0,782,872)"/><circle cx="812" cy="872" r="15" transform="rotate(0,812,872)"/><circle cx="842" cy="872" r="15" transform="rotate(0,842,872)"/><circle cx="872" cy="872" r="15" transform="rotate(0,872,872)"/><circle cx="932" cy="872" r="15" transform="rotate(0,932,872)"/><circle cx="962" cy="872" r="15" transform="rotate(0,962,872)"/><circle cx="272" cy="902" r="15" transform="rotate(0,272,902)"/><circle cx="302" cy="902" r="15" transform="rotate(0,302,902)"/><circle cx="332" cy="902" r="15" transform="rotate(0,332,902)"/><circle cx="392" cy="902" r="15" transform="rotate(0,392,902)"/><circle cx="422" cy="902" r="15" transform="rotate(0,422,902)"/><circle cx="452" cy="902" r="15" transform="rotate(0,452,902)"/><circle cx="482" cy="902" r="15" transform="rotate(0,482,902)"/><circle cx="602" cy="902" r="15" transform="rotate(0,602,902)"/><circle cx="632" cy="902" r="15" transform="rotate(0,632,902)"/><circle cx="692" cy="902" r="15" transform="rotate(0,692,902)"/><circle cx="722" cy="902" r="15" transform="rotate(0,722,902)"/><circle cx="752" cy="902" r="15" transform="rotate(0,752,902)"/><circle cx="842" cy="902" r="15" transform="rotate(0,842,902)"/><circle cx="962" cy="902" r="15" transform="rotate(0,962,902)"/><circle cx="992" cy="902" r="15" transform="rotate(0,992,902)"/><circle cx="272" cy="932" r="15" transform="rotate(0,272,932)"/><circle cx="332" cy="932" r="15" transform="rotate(0,332,932)"/><circle cx="362" cy="932" r="15" transform="rotate(0,362,932)"/><circle cx="392" cy="932" r="15" transform="rotate(0,392,932)"/><circle cx="542" cy="932" r="15" transform="rotate(0,542,932)"/><circle cx="602" cy="932" r="15" transform="rotate(0,602,932)"/><circle cx="632" cy="932" r="15" transform="rotate(0,632,932)"/><circle cx="692" cy="932" r="15" transform="rotate(0,692,932)"/><circle cx="722" cy="932" r="15" transform="rotate(0,722,932)"/><circle cx="782" cy="932" r="15" transform="rotate(0,782,932)"/><circle cx="812" cy="932" r="15" transform="rotate(0,812,932)"/><circle cx="902" cy="932" r="15" transform="rotate(0,902,932)"/><circle cx="302" cy="962" r="15" transform="rotate(0,302,962)"/><circle cx="362" cy="962" r="15" transform="rotate(0,362,962)"/><circle cx="392" cy="962" r="15" transform="rotate(0,392,962)"/><circle cx="422" cy="962" r="15" transform="rotate(0,422,962)"/><circle cx="482" cy="962" r="15" transform="rotate(0,482,962)"/><circle cx="542" cy="962" r="15" transform="rotate(0,542,962)"/><circle cx="602" cy="962" r="15" transform="rotate(0,602,962)"/><circle cx="722" cy="962" r="15" transform="rotate(0,722,962)"/><circle cx="752" cy="962" r="15" transform="rotate(0,752,962)"/><circle cx="782" cy="962" r="15" transform="rotate(0,782,962)"/><circle cx="992" cy="962" r="15" transform="rotate(0,992,962)"/><circle cx="302" cy="992" r="15" transform="rotate(0,302,992)"/><circle cx="332" cy="992" r="15" transform="rotate(0,332,992)"/><circle cx="392" cy="992" r="15" transform="rotate(0,392,992)"/><circle cx="452" cy="992" r="15" transform="rotate(0,452,992)"/><circle cx="512" cy="992" r="15" transform="rotate(0,512,992)"/><circle cx="662" cy="992" r="15" transform="rotate(0,662,992)"/><circle cx="722" cy="992" r="15" transform="rotate(0,722,992)"/><circle cx="842" cy="992" r="15" transform="rotate(0,842,992)"/><circle cx="872" cy="992" r="15" transform="rotate(0,872,992)"/><circle cx="932" cy="992" r="15" transform="rotate(0,932,992)"/></clipPath><linearGradient id="dot-color-0" gradientUnits="userSpaceOnUse" x1="512" y1="0" x2="512" y2="1024"><stop offset="0%" stop-color="#66BB6A"/><stop offset="100%" stop-color="#388E3C"/></linearGradient><clipPath id="clip-path-corners-square-color-0-0-0"><path clip-rule="evenodd" d="M 122 17a 105 105 0 1 0 0.1 0zm 0 30a 75 75 0 1 1 -0.1 0Z" transform="rotate(0,122,122)"/></clipPath><linearGradient id="corners-square-color-0-0-0" gradientUnits="userSpaceOnUse" x1="17" y1="17" x2="227" y2="227"><stop offset="0%" stop-color="#81C784"/><stop offset="100%" stop-color="#388E3C"/></linearGradient><clipPath id="clip-path-corners-dot-color-0-0-0"><circle cx="122" cy="122" r="45" transform="rotate(0,122,122)"/></clipPath><clipPath id="clip-path-corners-square-color-1-0-0"><path clip-rule="evenodd" d="M 902 17a 105 105 0 1 0 0.1 0zm 0 30a 75 75 0 1 1 -0.1 0Z" transform="rotate(90,902,122)"/></clipPath><linearGradient id="corners-square-color-1-0-0" gradientUnits="userSpaceOnUse" x1="1007" y1="17" x2="797" y2="227"><stop offset="0%" stop-color="#81C784"/><stop offset="100%" stop-color="#388E3C"/></linearGradient><clipPath id="clip-path-corners-dot-color-1-0-0"><circle cx="902" cy="122" r="45" transform="rotate(90,902,122)"/></clipPath><clipPath id="clip-path-corners-square-color-0-1-0"><path clip-rule="evenodd" d="M 122 797a 105 105 0 1 0 0.1 0zm 0 30a 75 75 0 1 1 -0.1 0Z" transform="rotate(-90,122,902)"/></clipPath><linearGradient id="corners-square-color-0-1-0" gradientUnits="userSpaceOnUse" x1="17" y1="1007" x2="227" y2="797"><stop offset="0%" stop-color="#81C784"/><stop offset="100%" stop-color="#388E3C"/></linearGradient><clipPath id="clip-path-corners-dot-color-0-1-0"><circle cx="122" cy="902" r="45" transform="rotate(-90,122,902)"/></clipPath></defs><rect x="0" y="0" height="1024" width="1024" clip-path="url('#clip-path-background-color-0')" fill="#0A0A0A"/><rect x="0" y="0" height="1024" width="1024" clip-path="url('#clip-path-dot-color-0')" fill="url('#dot-color-0')"/><rect x="17" y="17" height="210" width="210" clip-path="url('#clip-path-corners-square-color-0-0-0')" fill="url('#corners-square-color-0-0-0')"/><rect x="77" y="77" height="90" width="90" clip-path="url('#clip-path-corners-dot-color-0-0-0')" fill="#66BB6A"/><rect x="797" y="17" height="210" width="210" clip-path="url('#clip-path-corners-square-color-1-0-0')" fill="url('#corners-square-color-1-0-0')"/><rect x="857" y="77" height="90" width="90" clip-path="url('#clip-path-corners-dot-color-1-0-0')" fill="#66BB6A"/><rect x="17" y="797" height="210" width="210" clip-path="url('#clip-path-corners-square-color-0-1-0')" fill="url('#corners-square-color-0-1-0')"/><rect x="77" y="857" height="90" width="90" clip-path="url('#clip-path-corners-dot-color-0-1-0')" fill="#66BB6A"/><rect x="309.91999999999996" y="361.12"
    width="404.16" height="301.76"
    fill="#0A0A0A" rx="16"/><rect x="337.91999999999996" y="389.12"
    width="348.16" height="245.76" rx="12"
    fill="none" stroke="#81C784" stroke-width="6" opacity="0.35"
    filter="url(#qr-badge-halo)"/><rect x="337.91999999999996" y="389.12"
    width="348.16" height="245.76" rx="12"
    fill="#0A0A0A" stroke="#66BB6A" stroke-width="2.5"/><rect x="341.91999999999996" y="393.12"
    width="340.16" height="237.76" rx="10"
    fill="#1B3A1B" opacity="0.25"/><g id="vyra-wordmark"><path d="M420.044 551.322L436.043 453.956L405.112 453.956L397.188 512.772L389.113 453.956L356.962 453.956L372.657 551.322ZM491.201 551.322L491.201 516.581C504.153 516.581 510.705 510.029 510.705 496.773L510.705 453.956L479.012 453.956L479.012 493.421C479.012 493.573 478.859 493.725 478.707 493.725L471.545 493.725C471.393 493.725 471.241 493.573 471.241 493.421L471.241 453.956L439.547 453.956L439.547 496.773C439.547 510.029 446.252 516.581 459.508 516.581L459.508 551.322ZM588.262 551.322L588.262 510.638C588.262 505.915 585.671 503.325 580.338 502.563C585.519 501.953 588.109 499.363 588.109 494.640L588.109 466.298C588.109 458.070 582.929 453.956 572.415 453.956L517.104 453.956L517.104 551.322L548.798 551.322L548.798 512.315L556.264 512.315C556.416 512.315 556.569 512.467 556.569 512.619L556.569 551.322ZM556.569 492.659C556.569 492.811 556.416 492.963 556.264 492.963L548.798 492.963L548.798 478.336L556.264 478.336C556.416 478.336 556.569 478.488 556.569 478.641ZM635.344 490.525L627.574 490.525L627.574 478.641C627.574 478.488 627.726 478.336 627.878 478.336L635.040 478.336C635.192 478.336 635.344 478.488 635.344 478.641ZM667.038 551.322L667.038 466.298C667.038 458.070 661.705 453.956 651.191 453.956L611.727 453.956C601.213 453.956 595.880 458.070 595.880 466.298L595.880 551.322L627.574 551.322L627.574 514.905L635.344 514.905L635.344 551.322Z" fill="#F5F5F5"/></g><path d="M439.904 615.219L439.904 593.278C439.904 591.154 438.528 590.093 435.814 590.093C433.141 590.093 431.096 590.643 429.720 591.705L429.720 590.093L421.541 590.093L421.541 615.219L429.720 615.219L429.720 596.463C429.720 596.423 429.759 596.384 429.798 596.384L431.646 596.384C431.686 596.384 431.725 596.423 431.725 596.463L431.725 615.219ZM450.088 615.219L450.088 590.093L441.909 590.093L441.909 615.219ZM470.417 615.219L470.417 599.844L462.239 599.844L462.239 608.967L460.312 608.967C460.272 608.967 460.233 608.928 460.233 608.888L460.233 596.463C460.233 596.423 460.272 596.384 460.312 596.384L462.160 596.384C462.199 596.384 462.239 596.423 462.239 596.463L462.239 597.524L470.417 597.524L470.417 593.278C470.417 591.154 469.041 590.093 466.328 590.093L456.144 590.093C453.430 590.093 452.054 591.154 452.054 593.278L452.054 612.113C452.054 614.197 453.430 615.219 456.144 615.219ZM490.786 615.219L490.786 590.093L482.607 590.093L482.607 599.766L480.602 599.766L480.602 590.093L472.423 590.093L472.423 615.219L480.602 615.219L480.602 605.546L482.607 605.546L482.607 615.219ZM508.323 615.219C511.037 615.219 512.413 614.197 512.413 612.113L512.413 599.530L504.273 599.530L504.273 608.888C504.273 608.928 504.234 608.967 504.195 608.967L502.307 608.967C502.268 608.967 502.229 608.928 502.229 608.888L502.229 597.918L512.413 597.918L512.413 591.705L502.229 591.705L502.229 590.093L494.050 590.093L494.050 591.705L492.044 591.705L492.044 597.918L494.050 597.918L494.050 612.113C494.050 614.197 495.426 615.219 498.139 615.219ZM537.382 615.219C540.095 615.219 541.472 614.197 541.472 612.113L541.472 602.636C541.472 600.552 540.095 599.530 537.382 599.530L531.366 599.530C531.327 599.530 531.287 599.491 531.287 599.451L531.287 596.463C531.287 596.423 531.327 596.384 531.366 596.384L533.214 596.384C533.253 596.384 533.293 596.423 533.293 596.463L533.293 597.918L541.472 597.918L541.472 593.278C541.472 591.154 540.095 590.093 537.382 590.093L527.198 590.093C524.485 590.093 523.108 591.154 523.108 593.278L523.108 602.636C523.108 604.760 524.485 605.821 527.198 605.821L533.214 605.821C533.253 605.821 533.293 605.861 533.293 605.900L533.293 608.888C533.293 608.928 533.253 608.967 533.214 608.967L531.366 608.967C531.327 608.967 531.287 608.928 531.287 608.888L531.287 607.394L523.108 607.394L523.108 612.113C523.108 614.197 524.485 615.219 527.198 615.219ZM561.801 615.219L561.801 590.093L553.622 590.093L553.622 599.766L551.617 599.766L551.617 590.093L543.438 590.093L543.438 615.219L551.617 615.219L551.617 605.546L553.622 605.546L553.622 615.219ZM573.951 608.888C573.951 608.928 573.912 608.967 573.873 608.967L572.024 608.967C571.985 608.967 571.946 608.928 571.946 608.888L571.946 596.463C571.946 596.423 571.985 596.384 572.024 596.384L573.873 596.384C573.912 596.384 573.951 596.423 573.951 596.463ZM578.041 615.219C580.754 615.219 582.130 614.197 582.130 612.113L582.130 593.278C582.130 591.154 580.754 590.093 578.041 590.093L567.856 590.093C565.143 590.093 563.767 591.154 563.767 593.278L563.767 612.113C563.767 614.197 565.143 615.219 567.856 615.219ZM594.280 599.805C594.280 599.844 594.241 599.884 594.202 599.884L592.275 599.884L592.275 596.384L594.202 596.384C594.241 596.384 594.280 596.423 594.280 596.463ZM592.275 615.219L592.275 605.821L598.370 605.821C601.083 605.821 602.459 604.760 602.459 602.636L602.459 593.278C602.459 591.154 601.083 590.093 598.370 590.093L584.096 590.093L584.096 615.219Z" fill="#66BB6A"/><rect x="0" y="0" width="1024" height="1024"
    fill="url(#qr-grain)" opacity="0.025"/></g><g id="serial-number">
    <text x="1240" y="220" text-anchor="middle"
          font-family="Consolas, Menlo, 'Courier New', monospace"
          font-size="36"
          font-weight="700"
          letter-spacing="3"
          fill="#B3B3B3">
      <tspan fill="#E8935A">★</tspan>
      <tspan dx="10">14 RUE LEVEILLÉ · 02600 VILLERS-COTTERÊTS</tspan>
      <tspan dx="10" fill="#E8935A">★</tspan>
    </text>
  </g><g id="vyra-wordmark"><path d="M926.180 800L980.780 467.720L875.220 467.720L848.180 668.440L820.620 467.720L710.900 467.720L764.460 800ZM1169.020 800L1169.020 681.440C1213.220 681.440 1235.580 659.080 1235.580 613.840L1235.580 467.720L1127.420 467.720L1127.420 602.400C1127.420 602.920 1126.900 603.440 1126.380 603.440L1101.940 603.440C1101.420 603.440 1100.900 602.920 1100.900 602.400L1100.900 467.720L992.740 467.720L992.740 613.840C992.740 659.080 1015.620 681.440 1060.860 681.440L1060.860 800ZM1500.260 800L1500.260 661.160C1500.260 645.040 1491.420 636.200 1473.220 633.600C1490.900 631.520 1499.740 622.680 1499.740 606.560L1499.740 509.840C1499.740 481.760 1482.060 467.720 1446.180 467.720L1257.420 467.720L1257.420 800L1365.580 800L1365.580 666.880L1391.060 666.880C1391.580 666.880 1392.100 667.400 1392.100 667.920L1392.100 800ZM1392.100 599.800C1392.100 600.320 1391.580 600.840 1391.060 600.840L1365.580 600.840L1365.580 550.920L1391.060 550.920C1391.580 550.920 1392.100 551.440 1392.100 551.960ZM1660.940 592.520L1634.420 592.520L1634.420 551.960C1634.420 551.440 1634.940 550.920 1635.460 550.920L1659.900 550.920C1660.420 550.920 1660.940 551.440 1660.940 551.960ZM1769.100 800L1769.100 509.840C1769.100 481.760 1750.900 467.720 1715.020 467.720L1580.340 467.720C1544.460 467.720 1526.260 481.760 1526.260 509.840L1526.260 800L1634.420 800L1634.420 675.720L1660.940 675.720L1660.940 800Z" fill="#F5F5F5"/></g><g id="night-shop" filter="url(#flyer-neon-glow)"><path d="M1001.645 940L1001.645 867.460C1001.645 860.440 997.095 856.930 988.125 856.930C979.285 856.930 972.525 858.750 967.975 862.260L967.975 856.930L940.935 856.930L940.935 940L967.975 940L967.975 877.990C967.975 877.860 968.105 877.730 968.235 877.730L974.345 877.730C974.475 877.730 974.605 877.860 974.605 877.990L974.605 940ZM1035.315 940L1035.315 856.930L1008.275 856.930L1008.275 940ZM1102.525 940L1102.525 889.170L1075.485 889.170L1075.485 919.330L1069.115 919.330C1068.985 919.330 1068.855 919.200 1068.855 919.070L1068.855 877.990C1068.855 877.860 1068.985 877.730 1069.115 877.730L1075.225 877.730C1075.355 877.730 1075.485 877.860 1075.485 877.990L1075.485 881.500L1102.525 881.500L1102.525 867.460C1102.525 860.440 1097.975 856.930 1089.005 856.930L1055.335 856.930C1046.365 856.930 1041.815 860.440 1041.815 867.460L1041.815 929.730C1041.815 936.620 1046.365 940 1055.335 940ZM1169.865 940L1169.865 856.930L1142.825 856.930L1142.825 888.910L1136.195 888.910L1136.195 856.930L1109.155 856.930L1109.155 940L1136.195 940L1136.195 908.020L1142.825 908.020L1142.825 940ZM1227.845 940C1236.815 940 1241.365 936.620 1241.365 929.730L1241.365 888.130L1214.455 888.130L1214.455 919.070C1214.455 919.200 1214.325 919.330 1214.195 919.330L1207.955 919.330C1207.825 919.330 1207.695 919.200 1207.695 919.070L1207.695 882.800L1241.365 882.800L1241.365 862.260L1207.695 862.260L1207.695 856.930L1180.655 856.930L1180.655 862.260L1174.025 862.260L1174.025 882.800L1180.655 882.800L1180.655 929.730C1180.655 936.620 1185.205 940 1194.175 940ZM1323.915 940C1332.885 940 1337.435 936.620 1337.435 929.730L1337.435 898.400C1337.435 891.510 1332.885 888.130 1323.915 888.130L1304.025 888.130C1303.895 888.130 1303.765 888 1303.765 887.870L1303.765 877.990C1303.765 877.860 1303.895 877.730 1304.025 877.730L1310.135 877.730C1310.265 877.730 1310.395 877.860 1310.395 877.990L1310.395 882.800L1337.435 882.800L1337.435 867.460C1337.435 860.440 1332.885 856.930 1323.915 856.930L1290.245 856.930C1281.275 856.930 1276.725 860.440 1276.725 867.460L1276.725 898.400C1276.725 905.420 1281.275 908.930 1290.245 908.930L1310.135 908.930C1310.265 908.930 1310.395 909.060 1310.395 909.190L1310.395 919.070C1310.395 919.200 1310.265 919.330 1310.135 919.330L1304.025 919.330C1303.895 919.330 1303.765 919.200 1303.765 919.070L1303.765 914.130L1276.725 914.130L1276.725 929.730C1276.725 936.620 1281.275 940 1290.245 940ZM1404.645 940L1404.645 856.930L1377.605 856.930L1377.605 888.910L1370.975 888.910L1370.975 856.930L1343.935 856.930L1343.935 940L1370.975 940L1370.975 908.020L1377.605 908.020L1377.605 940ZM1444.815 919.070C1444.815 919.200 1444.685 919.330 1444.555 919.330L1438.445 919.330C1438.315 919.330 1438.185 919.200 1438.185 919.070L1438.185 877.990C1438.185 877.860 1438.315 877.730 1438.445 877.730L1444.555 877.730C1444.685 877.730 1444.815 877.860 1444.815 877.990ZM1458.335 940C1467.305 940 1471.855 936.620 1471.855 929.730L1471.855 867.460C1471.855 860.440 1467.305 856.930 1458.335 856.930L1424.665 856.930C1415.695 856.930 1411.145 860.440 1411.145 867.460L1411.145 929.730C1411.145 936.620 1415.695 940 1424.665 940ZM1512.025 889.040C1512.025 889.170 1511.895 889.300 1511.765 889.300L1505.395 889.300L1505.395 877.730L1511.765 877.730C1511.895 877.730 1512.025 877.860 1512.025 877.990ZM1505.395 940L1505.395 908.930L1525.545 908.930C1534.515 908.930 1539.065 905.420 1539.065 898.400L1539.065 867.460C1539.065 860.440 1534.515 856.930 1525.545 856.930L1478.355 856.930L1478.355 940Z" fill="#66BB6A"/></g><g transform="translate(2100, 340) rotate(-6)">
    <rect x="-132.48000000000002" y="-40.8" width="264.96000000000004" height="81.6" rx="4"
          fill="rgba(10,10,10,0.72)" stroke="#E8935A" stroke-width="2"/>
    <text x="0" y="16.32" text-anchor="middle"
          font-family="Arial Black, Arial, sans-serif"
          font-size="48" font-weight="900"
          letter-spacing="1.5" fill="#E8935A">SNACKS</text>
  </g><g transform="translate(400, 420) rotate(5)">
    <rect x="-201.60000000000002" y="-40.8" width="403.20000000000005" height="81.6" rx="4"
          fill="rgba(10,10,10,0.72)" stroke="#66BB6A" stroke-width="2"/>
    <text x="0" y="16.32" text-anchor="middle"
          font-family="Arial Black, Arial, sans-serif"
          font-size="48" font-weight="900"
          letter-spacing="1.5" fill="#66BB6A">CBD &amp; PUFF</text>
  </g><g transform="translate(420, 840) rotate(-4)">
    <rect x="-236.16000000000003" y="-40.8" width="472.32000000000005" height="81.6" rx="4"
          fill="rgba(10,10,10,0.72)" stroke="#D4849A" stroke-width="2"/>
    <text x="0" y="16.32" text-anchor="middle"
          font-family="Arial Black, Arial, sans-serif"
          font-size="48" font-weight="900"
          letter-spacing="1.5" fill="#D4849A">IMPORT US/JP</text>
  </g><g transform="translate(2080, 890) rotate(7)">
    <rect x="-184.32" y="-40.8" width="368.64" height="81.6" rx="4"
          fill="rgba(10,10,10,0.72)" stroke="#B388C9" stroke-width="2"/>
    <text x="0" y="16.32" text-anchor="middle"
          font-family="Arial Black, Arial, sans-serif"
          font-size="48" font-weight="900"
          letter-spacing="1.5" fill="#B388C9">LIVRAISON</text>
  </g><path d="M625.634 1050C630.326 1050 632.706 1048.232 632.706 1044.628L632.706 1028.240C632.706 1024.636 630.326 1022.868 625.634 1022.868L615.230 1022.868C615.162 1022.868 615.094 1022.800 615.094 1022.732L615.094 1017.564C615.094 1017.496 615.162 1017.428 615.230 1017.428L618.426 1017.428C618.494 1017.428 618.562 1017.496 618.562 1017.564L618.562 1020.080L632.706 1020.080L632.706 1012.056C632.706 1008.384 630.326 1006.548 625.634 1006.548L608.022 1006.548C603.330 1006.548 600.950 1008.384 600.950 1012.056L600.950 1028.240C600.950 1031.912 603.330 1033.748 608.022 1033.748L618.426 1033.748C618.494 1033.748 618.562 1033.816 618.562 1033.884L618.562 1039.052C618.562 1039.120 618.494 1039.188 618.426 1039.188L615.230 1039.188C615.162 1039.188 615.094 1039.120 615.094 1039.052L615.094 1036.468L600.950 1036.468L600.950 1044.628C600.950 1048.232 603.330 1050 608.022 1050ZM667.862 1050L667.862 1012.056C667.862 1008.384 665.482 1006.548 660.790 1006.548C656.166 1006.548 652.630 1007.500 650.250 1009.336L650.250 1006.548L636.106 1006.548L636.106 1050L650.250 1050L650.250 1017.564C650.250 1017.496 650.318 1017.428 650.386 1017.428L653.582 1017.428C653.650 1017.428 653.718 1017.496 653.718 1017.564L653.718 1050ZM688.874 1022.868L685.406 1022.868L685.406 1017.564C685.406 1017.496 685.474 1017.428 685.542 1017.428L688.738 1017.428C688.806 1017.428 688.874 1017.496 688.874 1017.564ZM703.018 1050L703.018 1012.056C703.018 1008.384 700.638 1006.548 695.946 1006.548L678.334 1006.548C673.642 1006.548 671.262 1008.384 671.262 1012.056L671.262 1050L685.406 1050L685.406 1033.748L688.874 1033.748L688.874 1050ZM731.034 1050C735.726 1050 738.106 1048.232 738.106 1044.628L738.106 1028.920L723.962 1028.920L723.962 1039.052C723.962 1039.120 723.894 1039.188 723.826 1039.188L720.630 1039.188C720.562 1039.188 720.494 1039.120 720.494 1039.052L720.494 1017.564C720.494 1017.496 720.562 1017.428 720.630 1017.428L723.826 1017.428C723.894 1017.428 723.962 1017.496 723.962 1017.564L723.962 1024.908L738.106 1024.908L738.106 1012.056C738.106 1008.384 735.726 1006.548 731.034 1006.548L713.422 1006.548C708.730 1006.548 706.350 1008.384 706.350 1012.056L706.350 1044.628C706.350 1048.232 708.730 1050 713.422 1050ZM774.690 1050L764.558 1027.492L774.282 1006.548L759.390 1006.548L755.174 1017.632L755.174 1006.548L741.506 1006.548L741.506 1050L755.174 1050L755.174 1038.372L759.798 1050ZM800.870 1050C805.562 1050 807.942 1048.232 807.942 1044.628L807.942 1028.240C807.942 1024.636 805.562 1022.868 800.870 1022.868L790.466 1022.868C790.398 1022.868 790.330 1022.800 790.330 1022.732L790.330 1017.564C790.330 1017.496 790.398 1017.428 790.466 1017.428L793.662 1017.428C793.730 1017.428 793.798 1017.496 793.798 1017.564L793.798 1020.080L807.942 1020.080L807.942 1012.056C807.942 1008.384 805.562 1006.548 800.870 1006.548L783.258 1006.548C778.566 1006.548 776.186 1008.384 776.186 1012.056L776.186 1028.240C776.186 1031.912 778.566 1033.748 783.258 1033.748L793.662 1033.748C793.730 1033.748 793.798 1033.816 793.798 1033.884L793.798 1039.052C793.798 1039.120 793.730 1039.188 793.662 1039.188L790.466 1039.188C790.398 1039.188 790.330 1039.120 790.330 1039.052L790.330 1036.468L776.186 1036.468L776.186 1044.628C776.186 1048.232 778.566 1050 783.258 1050Z" fill="#E8935A"/><text x="852.942" y="1050" text-anchor="middle" font-family="Arial, sans-serif" font-size="68" fill="#808080">·</text><path d="M915.554 1023.820C915.554 1023.888 915.486 1023.956 915.418 1023.956L912.086 1023.956L912.086 1017.428L915.418 1017.428C915.486 1017.428 915.554 1017.496 915.554 1017.564ZM922.626 1050C927.318 1050 929.698 1048.232 929.698 1044.628L929.698 1031.844C929.698 1029.736 928.542 1028.580 926.162 1028.240C928.474 1027.968 929.630 1026.812 929.630 1024.704L929.630 1012.056C929.630 1008.384 927.318 1006.548 922.626 1006.548L897.942 1006.548L897.942 1050ZM915.554 1039.052C915.554 1039.120 915.486 1039.188 915.418 1039.188L912.086 1039.188L912.086 1032.592L915.418 1032.592C915.486 1032.592 915.554 1032.660 915.554 1032.728ZM950.642 1039.052C950.642 1039.120 950.574 1039.188 950.506 1039.188L947.310 1039.188C947.242 1039.188 947.174 1039.120 947.174 1039.052L947.174 1017.564C947.174 1017.496 947.242 1017.428 947.310 1017.428L950.506 1017.428C950.574 1017.428 950.642 1017.496 950.642 1017.564ZM957.714 1050C962.406 1050 964.786 1048.232 964.786 1044.628L964.786 1012.056C964.786 1008.384 962.406 1006.548 957.714 1006.548L940.102 1006.548C935.410 1006.548 933.030 1008.384 933.030 1012.056L933.030 1044.628C933.030 1048.232 935.410 1050 940.102 1050ZM982.330 1050L982.330 1006.548L968.186 1006.548L968.186 1050ZM1010.414 1050C1015.106 1050 1017.486 1048.232 1017.486 1044.628L1017.486 1028.240C1017.486 1024.636 1015.106 1022.868 1010.414 1022.868L1000.010 1022.868C999.942 1022.868 999.874 1022.800 999.874 1022.732L999.874 1017.564C999.874 1017.496 999.942 1017.428 1000.010 1017.428L1003.206 1017.428C1003.274 1017.428 1003.342 1017.496 1003.342 1017.564L1003.342 1020.080L1017.486 1020.080L1017.486 1012.056C1017.486 1008.384 1015.106 1006.548 1010.414 1006.548L992.802 1006.548C988.110 1006.548 985.730 1008.384 985.730 1012.056L985.730 1028.240C985.730 1031.912 988.110 1033.748 992.802 1033.748L1003.206 1033.748C1003.274 1033.748 1003.342 1033.816 1003.342 1033.884L1003.342 1039.052C1003.342 1039.120 1003.274 1039.188 1003.206 1039.188L1000.010 1039.188C999.942 1039.188 999.874 1039.120 999.874 1039.052L999.874 1036.468L985.730 1036.468L985.730 1044.628C985.730 1048.232 988.110 1050 992.802 1050ZM1045.434 1050C1050.126 1050 1052.506 1048.232 1052.506 1044.628L1052.506 1028.240C1052.506 1024.636 1050.126 1022.868 1045.434 1022.868L1035.030 1022.868C1034.962 1022.868 1034.894 1022.800 1034.894 1022.732L1034.894 1017.564C1034.894 1017.496 1034.962 1017.428 1035.030 1017.428L1038.226 1017.428C1038.294 1017.428 1038.362 1017.496 1038.362 1017.564L1038.362 1020.080L1052.506 1020.080L1052.506 1012.056C1052.506 1008.384 1050.126 1006.548 1045.434 1006.548L1027.822 1006.548C1023.130 1006.548 1020.750 1008.384 1020.750 1012.056L1020.750 1028.240C1020.750 1031.912 1023.130 1033.748 1027.822 1033.748L1038.226 1033.748C1038.294 1033.748 1038.362 1033.816 1038.362 1033.884L1038.362 1039.052C1038.362 1039.120 1038.294 1039.188 1038.226 1039.188L1035.030 1039.188C1034.962 1039.188 1034.894 1039.120 1034.894 1039.052L1034.894 1036.468L1020.750 1036.468L1020.750 1044.628C1020.750 1048.232 1023.130 1050 1027.822 1050ZM1073.382 1039.052C1073.382 1039.120 1073.314 1039.188 1073.246 1039.188L1070.050 1039.188C1069.982 1039.188 1069.914 1039.120 1069.914 1039.052L1069.914 1017.564C1069.914 1017.496 1069.982 1017.428 1070.050 1017.428L1073.246 1017.428C1073.314 1017.428 1073.382 1017.496 1073.382 1017.564ZM1080.454 1050C1085.146 1050 1087.526 1048.232 1087.526 1044.628L1087.526 1012.056C1087.526 1008.384 1085.146 1006.548 1080.454 1006.548L1062.842 1006.548C1058.150 1006.548 1055.770 1008.384 1055.770 1012.056L1055.770 1044.628C1055.770 1048.232 1058.150 1050 1062.842 1050ZM1122.682 1050L1122.682 1012.056C1122.682 1008.384 1120.302 1006.548 1115.610 1006.548C1110.986 1006.548 1107.450 1007.500 1105.070 1009.336L1105.070 1006.548L1090.926 1006.548L1090.926 1050L1105.070 1050L1105.070 1017.564C1105.070 1017.496 1105.138 1017.428 1105.206 1017.428L1108.402 1017.428C1108.470 1017.428 1108.538 1017.496 1108.538 1017.564L1108.538 1050ZM1150.698 1050C1155.390 1050 1157.770 1048.232 1157.770 1044.628L1157.770 1028.240C1157.770 1024.636 1155.390 1022.868 1150.698 1022.868L1140.294 1022.868C1140.226 1022.868 1140.158 1022.800 1140.158 1022.732L1140.158 1017.564C1140.158 1017.496 1140.226 1017.428 1140.294 1017.428L1143.490 1017.428C1143.558 1017.428 1143.626 1017.496 1143.626 1017.564L1143.626 1020.080L1157.770 1020.080L1157.770 1012.056C1157.770 1008.384 1155.390 1006.548 1150.698 1006.548L1133.086 1006.548C1128.394 1006.548 1126.014 1008.384 1126.014 1012.056L1126.014 1028.240C1126.014 1031.912 1128.394 1033.748 1133.086 1033.748L1143.490 1033.748C1143.558 1033.748 1143.626 1033.816 1143.626 1033.884L1143.626 1039.052C1143.626 1039.120 1143.558 1039.188 1143.490 1039.188L1140.294 1039.188C1140.226 1039.188 1140.158 1039.120 1140.158 1039.052L1140.158 1036.468L1126.014 1036.468L1126.014 1044.628C1126.014 1048.232 1128.394 1050 1133.086 1050Z" fill="#66BB6A"/><text x="1202.77" y="1050" text-anchor="middle" font-family="Arial, sans-serif" font-size="68" fill="#808080">·</text><path d="M1265.382 1023.344C1265.382 1023.412 1265.314 1023.480 1265.246 1023.480L1261.914 1023.480L1261.914 1017.428L1265.246 1017.428C1265.314 1017.428 1265.382 1017.496 1265.382 1017.564ZM1261.914 1050L1261.914 1033.748L1272.454 1033.748C1277.146 1033.748 1279.526 1031.912 1279.526 1028.240L1279.526 1012.056C1279.526 1008.384 1277.146 1006.548 1272.454 1006.548L1247.770 1006.548L1247.770 1050ZM1306.930 1050C1311.622 1050 1314.002 1048.232 1314.002 1044.628L1314.002 1006.548L1299.858 1006.548L1299.858 1039.052C1299.858 1039.120 1299.790 1039.188 1299.722 1039.188L1296.526 1039.188C1296.458 1039.188 1296.390 1039.120 1296.390 1039.052L1296.390 1006.548L1282.246 1006.548L1282.246 1044.628C1282.246 1048.232 1284.626 1050 1289.318 1050ZM1331.546 1050L1331.546 1030.960L1343.786 1030.960L1343.786 1020.080L1331.546 1020.080L1331.546 1017.564C1331.546 1017.496 1331.614 1017.428 1331.682 1017.428L1343.922 1017.428L1343.922 1006.548L1324.474 1006.548C1319.782 1006.548 1317.402 1008.452 1317.402 1012.056L1317.402 1050ZM1360.786 1050L1360.786 1030.960L1373.026 1030.960L1373.026 1020.080L1360.786 1020.080L1360.786 1017.564C1360.786 1017.496 1360.854 1017.428 1360.922 1017.428L1373.162 1017.428L1373.162 1006.548L1353.714 1006.548C1349.022 1006.548 1346.642 1008.452 1346.642 1012.056L1346.642 1050ZM1425.250 1050L1425.250 1039.188L1420.830 1039.188L1420.830 1033.340L1425.250 1033.340L1425.250 1023.276L1405.190 1023.276C1405.122 1023.276 1405.054 1023.208 1405.054 1023.140L1405.054 1017.564C1405.054 1017.496 1405.122 1017.428 1405.190 1017.428L1408.386 1017.428C1408.454 1017.428 1408.522 1017.496 1408.522 1017.564L1408.522 1018.720L1420.830 1018.720L1420.830 1012.056C1420.830 1008.384 1418.450 1006.548 1413.758 1006.548L1397.982 1006.548C1393.290 1006.548 1390.910 1008.384 1390.910 1012.056L1390.910 1024.840C1390.910 1026.812 1392.066 1027.968 1394.446 1028.240C1392.066 1028.716 1390.910 1029.872 1390.910 1031.708L1390.910 1044.628C1390.910 1048.232 1393.290 1050 1397.982 1050ZM1408.522 1039.188L1405.190 1039.188C1405.122 1039.188 1405.054 1039.120 1405.054 1039.052L1405.054 1033.476C1405.054 1033.408 1405.122 1033.340 1405.190 1033.340L1408.522 1033.340ZM1467.342 1050C1472.034 1050 1474.414 1048.232 1474.414 1044.628L1474.414 1028.920L1460.270 1028.920L1460.270 1039.052C1460.270 1039.120 1460.202 1039.188 1460.134 1039.188L1456.938 1039.188C1456.870 1039.188 1456.802 1039.120 1456.802 1039.052L1456.802 1017.564C1456.802 1017.496 1456.870 1017.428 1456.938 1017.428L1460.134 1017.428C1460.202 1017.428 1460.270 1017.496 1460.270 1017.564L1460.270 1024.908L1474.414 1024.908L1474.414 1012.056C1474.414 1008.384 1472.034 1006.548 1467.342 1006.548L1449.730 1006.548C1445.038 1006.548 1442.658 1008.384 1442.658 1012.056L1442.658 1044.628C1442.658 1048.232 1445.038 1050 1449.730 1050ZM1495.426 1023.820C1495.426 1023.888 1495.358 1023.956 1495.290 1023.956L1491.958 1023.956L1491.958 1017.428L1495.290 1017.428C1495.358 1017.428 1495.426 1017.496 1495.426 1017.564ZM1502.498 1050C1507.190 1050 1509.570 1048.232 1509.570 1044.628L1509.570 1031.844C1509.570 1029.736 1508.414 1028.580 1506.034 1028.240C1508.346 1027.968 1509.502 1026.812 1509.502 1024.704L1509.502 1012.056C1509.502 1008.384 1507.190 1006.548 1502.498 1006.548L1477.814 1006.548L1477.814 1050ZM1495.426 1039.052C1495.426 1039.120 1495.358 1039.188 1495.290 1039.188L1491.958 1039.188L1491.958 1032.592L1495.290 1032.592C1495.358 1032.592 1495.426 1032.660 1495.426 1032.728ZM1530.650 1039.052C1530.650 1039.120 1530.582 1039.188 1530.514 1039.188L1527.182 1039.188L1527.182 1017.428L1530.514 1017.428C1530.582 1017.428 1530.650 1017.496 1530.650 1017.564ZM1537.722 1050C1542.414 1050 1544.794 1048.232 1544.794 1044.628L1544.794 1012.056C1544.794 1008.384 1542.414 1006.548 1537.722 1006.548L1513.038 1006.548L1513.038 1050Z" fill="#D4849A"/><text x="1589.794" y="1050" text-anchor="middle" font-family="Arial, sans-serif" font-size="68" fill="#808080">·</text><path d="M1648.938 1050L1648.938 1006.548L1634.794 1006.548L1634.794 1050ZM1701.842 1050L1701.842 1012.600C1701.842 1009.064 1698.034 1006.548 1693.138 1006.548C1688.718 1006.548 1685.658 1007.160 1683.550 1009.812C1681.986 1007.636 1679.946 1006.548 1675.798 1006.548C1671.718 1006.548 1668.318 1007.500 1666.618 1009.336L1666.618 1006.548L1652.474 1006.548L1652.474 1050L1666.618 1050L1666.618 1017.564C1666.618 1017.496 1666.686 1017.428 1666.754 1017.428L1669.950 1017.428C1670.018 1017.428 1670.086 1017.496 1670.086 1017.564L1670.086 1050L1684.230 1050L1684.230 1017.564C1684.230 1017.496 1684.298 1017.428 1684.366 1017.428L1687.698 1017.428C1687.766 1017.428 1687.834 1017.496 1687.834 1017.564L1687.834 1050ZM1722.922 1023.344C1722.922 1023.412 1722.854 1023.480 1722.786 1023.480L1719.454 1023.480L1719.454 1017.428L1722.786 1017.428C1722.854 1017.428 1722.922 1017.496 1722.922 1017.564ZM1719.454 1050L1719.454 1033.748L1729.994 1033.748C1734.686 1033.748 1737.066 1031.912 1737.066 1028.240L1737.066 1012.056C1737.066 1008.384 1734.686 1006.548 1729.994 1006.548L1705.310 1006.548L1705.310 1050ZM1757.330 1039.052C1757.330 1039.120 1757.262 1039.188 1757.194 1039.188L1753.998 1039.188C1753.930 1039.188 1753.862 1039.120 1753.862 1039.052L1753.862 1017.564C1753.862 1017.496 1753.930 1017.428 1753.998 1017.428L1757.194 1017.428C1757.262 1017.428 1757.330 1017.496 1757.330 1017.564ZM1764.402 1050C1769.094 1050 1771.474 1048.232 1771.474 1044.628L1771.474 1012.056C1771.474 1008.384 1769.094 1006.548 1764.402 1006.548L1746.790 1006.548C1742.098 1006.548 1739.718 1008.384 1739.718 1012.056L1739.718 1044.628C1739.718 1048.232 1742.098 1050 1746.790 1050ZM1806.630 1050L1806.630 1031.844C1806.630 1029.736 1805.474 1028.580 1803.094 1028.240C1805.406 1027.968 1806.562 1026.812 1806.562 1024.704L1806.562 1012.056C1806.562 1008.384 1804.250 1006.548 1799.558 1006.548L1774.874 1006.548L1774.874 1050L1789.018 1050L1789.018 1032.592L1792.350 1032.592C1792.418 1032.592 1792.486 1032.660 1792.486 1032.728L1792.486 1050ZM1792.486 1023.820C1792.486 1023.888 1792.418 1023.956 1792.350 1023.956L1789.018 1023.956L1789.018 1017.428L1792.350 1017.428C1792.418 1017.428 1792.486 1017.496 1792.486 1017.564ZM1836.890 1050C1841.582 1050 1843.962 1048.232 1843.962 1044.628L1843.962 1022.868L1829.886 1022.868L1829.886 1039.052C1829.886 1039.120 1829.818 1039.188 1829.750 1039.188L1826.486 1039.188C1826.418 1039.188 1826.350 1039.120 1826.350 1039.052L1826.350 1020.080L1843.962 1020.080L1843.962 1009.336L1826.350 1009.336L1826.350 1006.548L1812.206 1006.548L1812.206 1009.336L1808.738 1009.336L1808.738 1020.080L1812.206 1020.080L1812.206 1044.628C1812.206 1048.232 1814.586 1050 1819.278 1050ZM1871.978 1050C1876.670 1050 1879.050 1048.232 1879.050 1044.628L1879.050 1028.240C1879.050 1024.636 1876.670 1022.868 1871.978 1022.868L1861.574 1022.868C1861.506 1022.868 1861.438 1022.800 1861.438 1022.732L1861.438 1017.564C1861.438 1017.496 1861.506 1017.428 1861.574 1017.428L1864.770 1017.428C1864.838 1017.428 1864.906 1017.496 1864.906 1017.564L1864.906 1020.080L1879.050 1020.080L1879.050 1012.056C1879.050 1008.384 1876.670 1006.548 1871.978 1006.548L1854.366 1006.548C1849.674 1006.548 1847.294 1008.384 1847.294 1012.056L1847.294 1028.240C1847.294 1031.912 1849.674 1033.748 1854.366 1033.748L1864.770 1033.748C1864.838 1033.748 1864.906 1033.816 1864.906 1033.884L1864.906 1039.052C1864.906 1039.120 1864.838 1039.188 1864.770 1039.188L1861.574 1039.188C1861.506 1039.188 1861.438 1039.120 1861.438 1039.052L1861.438 1036.468L1847.294 1036.468L1847.294 1044.628C1847.294 1048.232 1849.674 1050 1854.366 1050Z" fill="#B388C9"/><path d="M870.480 2750C876 2750 878.800 2747.920 878.800 2743.680L878.800 2724.400C878.800 2720.160 876 2718.080 870.480 2718.080L858.240 2718.080C858.160 2718.080 858.080 2718 858.080 2717.920L858.080 2711.840C858.080 2711.760 858.160 2711.680 858.240 2711.680L862 2711.680C862.080 2711.680 862.160 2711.760 862.160 2711.840L862.160 2714.800L878.800 2714.800L878.800 2705.360C878.800 2701.040 876 2698.880 870.480 2698.880L849.760 2698.880C844.240 2698.880 841.440 2701.040 841.440 2705.360L841.440 2724.400C841.440 2728.720 844.240 2730.880 849.760 2730.880L862 2730.880C862.080 2730.880 862.160 2730.960 862.160 2731.040L862.160 2737.120C862.160 2737.200 862.080 2737.280 862 2737.280L858.240 2737.280C858.160 2737.280 858.080 2737.200 858.080 2737.120L858.080 2734.080L841.440 2734.080L841.440 2743.680C841.440 2747.920 844.240 2750 849.760 2750ZM911.680 2750C917.200 2750 920 2747.920 920 2743.680L920 2725.200L903.360 2725.200L903.360 2737.120C903.360 2737.200 903.280 2737.280 903.200 2737.280L899.440 2737.280C899.360 2737.280 899.280 2737.200 899.280 2737.120L899.280 2711.840C899.280 2711.760 899.360 2711.680 899.440 2711.680L903.200 2711.680C903.280 2711.680 903.360 2711.760 903.360 2711.840L903.360 2720.480L920 2720.480L920 2705.360C920 2701.040 917.200 2698.880 911.680 2698.880L890.960 2698.880C885.440 2698.880 882.640 2701.040 882.640 2705.360L882.640 2743.680C882.640 2747.920 885.440 2750 890.960 2750ZM944.640 2718.080L940.560 2718.080L940.560 2711.840C940.560 2711.760 940.640 2711.680 940.720 2711.680L944.480 2711.680C944.560 2711.680 944.640 2711.760 944.640 2711.840ZM961.280 2750L961.280 2705.360C961.280 2701.040 958.480 2698.880 952.960 2698.880L932.240 2698.880C926.720 2698.880 923.920 2701.040 923.920 2705.360L923.920 2750L940.560 2750L940.560 2730.880L944.640 2730.880L944.640 2750ZM1002.720 2750L1002.720 2705.360C1002.720 2701.040 999.920 2698.880 994.400 2698.880C988.960 2698.880 984.800 2700 982.000 2702.160L982.000 2698.880L965.360 2698.880L965.360 2750L982.000 2750L982.000 2711.840C982.000 2711.760 982.080 2711.680 982.160 2711.680L985.920 2711.680C986.000 2711.680 986.080 2711.760 986.080 2711.840L986.080 2750ZM1045.360 2718.640C1045.360 2718.720 1045.280 2718.800 1045.200 2718.800L1041.280 2718.800L1041.280 2711.680L1045.200 2711.680C1045.280 2711.680 1045.360 2711.760 1045.360 2711.840ZM1041.280 2750L1041.280 2730.880L1053.680 2730.880C1059.200 2730.880 1062 2728.720 1062 2724.400L1062 2705.360C1062 2701.040 1059.200 2698.880 1053.680 2698.880L1024.640 2698.880L1024.640 2750ZM1085.840 2737.120C1085.840 2737.200 1085.760 2737.280 1085.680 2737.280L1081.920 2737.280C1081.840 2737.280 1081.760 2737.200 1081.760 2737.120L1081.760 2711.840C1081.760 2711.760 1081.840 2711.680 1081.920 2711.680L1085.680 2711.680C1085.760 2711.680 1085.840 2711.760 1085.840 2711.840ZM1094.160 2750C1099.680 2750 1102.480 2747.920 1102.480 2743.680L1102.480 2705.360C1102.480 2701.040 1099.680 2698.880 1094.160 2698.880L1073.440 2698.880C1067.920 2698.880 1065.120 2701.040 1065.120 2705.360L1065.120 2743.680C1065.120 2747.920 1067.920 2750 1073.440 2750ZM1135.440 2750C1140.960 2750 1143.760 2747.920 1143.760 2743.680L1143.760 2698.880L1127.120 2698.880L1127.120 2737.120C1127.120 2737.200 1127.040 2737.280 1126.960 2737.280L1123.200 2737.280C1123.120 2737.280 1123.040 2737.200 1123.040 2737.120L1123.040 2698.880L1106.400 2698.880L1106.400 2743.680C1106.400 2747.920 1109.200 2750 1114.720 2750ZM1185.200 2750L1185.200 2728.640C1185.200 2726.160 1183.840 2724.800 1181.040 2724.400C1183.760 2724.080 1185.120 2722.720 1185.120 2720.240L1185.120 2705.360C1185.120 2701.040 1182.400 2698.880 1176.880 2698.880L1147.840 2698.880L1147.840 2750L1164.480 2750L1164.480 2729.520L1168.400 2729.520C1168.480 2729.520 1168.560 2729.600 1168.560 2729.680L1168.560 2750ZM1168.560 2719.200C1168.560 2719.280 1168.480 2719.360 1168.400 2719.360L1164.480 2719.360L1164.480 2711.680L1168.400 2711.680C1168.480 2711.680 1168.560 2711.760 1168.560 2711.840ZM1234.560 2750L1234.560 2737.280L1223.760 2737.280L1223.760 2698.880L1207.120 2698.880L1207.120 2750ZM1266.080 2750L1266.080 2737.280L1254.480 2737.280L1254.480 2730.880L1265.840 2730.880L1265.840 2718.080L1254.480 2718.080L1254.480 2711.680L1266 2711.680L1266 2698.880L1237.840 2698.880L1237.840 2750ZM1316.800 2750C1322.320 2750 1325.120 2747.920 1325.120 2743.680L1325.120 2725.200L1308.480 2725.200L1308.480 2737.120C1308.480 2737.200 1308.400 2737.280 1308.320 2737.280L1304.560 2737.280C1304.480 2737.280 1304.400 2737.200 1304.400 2737.120L1304.400 2711.840C1304.400 2711.760 1304.480 2711.680 1304.560 2711.680L1308.320 2711.680C1308.400 2711.680 1308.480 2711.760 1308.480 2711.840L1308.480 2720.480L1325.120 2720.480L1325.120 2705.360C1325.120 2701.040 1322.320 2698.880 1316.800 2698.880L1296.080 2698.880C1290.560 2698.880 1287.760 2701.040 1287.760 2705.360L1287.760 2743.680C1287.760 2747.920 1290.560 2750 1296.080 2750ZM1349.760 2718.080L1345.680 2718.080L1345.680 2711.840C1345.680 2711.760 1345.760 2711.680 1345.840 2711.680L1349.600 2711.680C1349.680 2711.680 1349.760 2711.760 1349.760 2711.840ZM1366.400 2750L1366.400 2705.360C1366.400 2701.040 1363.600 2698.880 1358.080 2698.880L1337.360 2698.880C1331.840 2698.880 1329.040 2701.040 1329.040 2705.360L1329.040 2750L1345.680 2750L1345.680 2730.880L1349.760 2730.880L1349.760 2750ZM1402.000 2750C1407.520 2750 1410.320 2747.920 1410.320 2743.680L1410.320 2718.080L1393.760 2718.080L1393.760 2737.120C1393.760 2737.200 1393.680 2737.280 1393.600 2737.280L1389.760 2737.280C1389.680 2737.280 1389.600 2737.200 1389.600 2737.120L1389.600 2714.800L1410.320 2714.800L1410.320 2702.160L1389.600 2702.160L1389.600 2698.880L1372.960 2698.880L1372.960 2702.160L1368.880 2702.160L1368.880 2714.800L1372.960 2714.800L1372.960 2743.680C1372.960 2747.920 1375.760 2750 1381.280 2750ZM1435.040 2718.080L1430.960 2718.080L1430.960 2711.840C1430.960 2711.760 1431.040 2711.680 1431.120 2711.680L1434.880 2711.680C1434.960 2711.680 1435.040 2711.760 1435.040 2711.840ZM1451.680 2750L1451.680 2705.360C1451.680 2701.040 1448.880 2698.880 1443.360 2698.880L1422.640 2698.880C1417.120 2698.880 1414.320 2701.040 1414.320 2705.360L1414.320 2750L1430.960 2750L1430.960 2730.880L1435.040 2730.880L1435.040 2750ZM1483.200 2750L1483.200 2737.280L1472.400 2737.280L1472.400 2698.880L1455.760 2698.880L1455.760 2750ZM1507.040 2737.120C1507.040 2737.200 1506.960 2737.280 1506.880 2737.280L1503.120 2737.280C1503.040 2737.280 1502.960 2737.200 1502.960 2737.120L1502.960 2711.840C1502.960 2711.760 1503.040 2711.680 1503.120 2711.680L1506.880 2711.680C1506.960 2711.680 1507.040 2711.760 1507.040 2711.840ZM1515.360 2750C1520.880 2750 1523.680 2747.920 1523.680 2743.680L1523.680 2705.360C1523.680 2701.040 1520.880 2698.880 1515.360 2698.880L1494.640 2698.880C1489.120 2698.880 1486.320 2701.040 1486.320 2705.360L1486.320 2743.680C1486.320 2747.920 1489.120 2750 1494.640 2750ZM1564.880 2750L1564.880 2718.720L1548.240 2718.720L1548.240 2737.280L1544.320 2737.280C1544.240 2737.280 1544.160 2737.200 1544.160 2737.120L1544.160 2711.840C1544.160 2711.760 1544.240 2711.680 1544.320 2711.680L1548.080 2711.680C1548.160 2711.680 1548.240 2711.760 1548.240 2711.840L1548.240 2714L1564.880 2714L1564.880 2705.360C1564.880 2701.040 1562.080 2698.880 1556.560 2698.880L1535.840 2698.880C1530.320 2698.880 1527.520 2701.040 1527.520 2705.360L1527.520 2743.680C1527.520 2747.920 1530.320 2750 1535.840 2750ZM1597.920 2750C1603.440 2750 1606.240 2747.920 1606.240 2743.680L1606.240 2698.880L1589.600 2698.880L1589.600 2737.120C1589.600 2737.200 1589.520 2737.280 1589.440 2737.280L1585.680 2737.280C1585.600 2737.280 1585.520 2737.200 1585.520 2737.120L1585.520 2698.880L1568.880 2698.880L1568.880 2743.680C1568.880 2747.920 1571.680 2750 1577.200 2750ZM1638.560 2750L1638.560 2737.280L1626.960 2737.280L1626.960 2730.880L1638.320 2730.880L1638.320 2718.080L1626.960 2718.080L1626.960 2711.680L1638.480 2711.680L1638.480 2698.880L1610.320 2698.880L1610.320 2750Z" fill="#66BB6A"/><text x="1240" y="2806" text-anchor="middle"
    font-family="Arial, sans-serif" font-size="44" fill="#81C784">▼</text><text x="1240" y="2880" text-anchor="middle"
          font-family="Consolas, Menlo, 'Courier New', monospace"
          font-size="38" font-weight="700" letter-spacing="4"
          fill="#F5F5F5">14 RUE LEVEILLÉ · 02600 VILLERS-COTTERÊTS</text><text x="1240" y="2948.4" text-anchor="middle"
          font-family="Consolas, Menlo, 'Courier New', monospace"
          font-size="38" font-weight="700" letter-spacing="4"
          fill="#B3B3B3">OUVERT DE 18:00 À 02:00 · 7J/7</text><text x="1240" y="3016.8" text-anchor="middle"
          font-family="Consolas, Menlo, 'Courier New', monospace"
          font-size="38" font-weight="700" letter-spacing="4"
          fill="#66BB6A">@VYRA_NIGHTSHOP · 07 57 53 99 24</text><svg x="0" y="3188" width="2480" height="220"
    viewBox="0 0 1440 200" preserveAspectRatio="xMidYEnd slice">
    <defs>
      <linearGradient id="skyline-fade" x1="0" y1="0" x2="0" y2="1">
        <stop offset="0%" stop-color="#050505" stop-opacity="0"/>
        <stop offset="100%" stop-color="#050505" stop-opacity="0.8"/>
      </linearGradient>
    </defs>
    <g fill="#141414"><rect x="0" y="130" width="60" height="70"/><rect x="60" y="100" width="80" height="100"/><rect x="140" y="120" width="50" height="80"/><rect x="190" y="80" width="95" height="120"/><rect x="285" y="110" width="60" height="90"/><rect x="345" y="70" width="110" height="130"/><rect x="455" y="95" width="75" height="105"/><rect x="530" y="55" width="130" height="145"/><rect x="660" y="85" width="70" height="115"/><rect x="730" y="110" width="50" height="90"/><rect x="780" y="65" width="120" height="135"/><rect x="900" y="100" width="80" height="100"/><rect x="980" y="75" width="100" height="125"/><rect x="1080" y="115" width="55" height="85"/><rect x="1135" y="90" width="85" height="110"/><rect x="1220" y="105" width="70" height="95"/><rect x="1290" y="130" width="55" height="70"/><rect x="1345" y="95" width="95" height="105"/></g>
    <g fill="#E8935A" opacity="0.75"><rect x="70" y="115" width="6" height="6"/><rect x="82" y="115" width="6" height="6"/><rect x="200" y="100" width="5" height="5"/><rect x="215" y="100" width="5" height="5"/><rect x="260" y="120" width="5" height="5"/><rect x="360" y="90" width="6" height="6"/><rect x="380" y="90" width="6" height="6"/><rect x="400" y="110" width="6" height="6"/><rect x="550" y="75" width="7" height="7"/><rect x="580" y="75" width="7" height="7"/><rect x="610" y="95" width="7" height="7"/><rect x="800" y="85" width="6" height="6"/><rect x="830" y="85" width="6" height="6"/><rect x="860" y="105" width="6" height="6"/><rect x="1000" y="95" width="6" height="6"/><rect x="1030" y="95" width="6" height="6"/><rect x="1160" y="110" width="5" height="5"/><rect x="1370" y="115" width="6" height="6"/><rect x="1400" y="115" width="6" height="6"/></g>
    <g fill="#F5F5F5" opacity="0.35"><rect x="75" y="135" width="4" height="4"/><rect x="210" y="130" width="4" height="4"/><rect x="395" y="130" width="5" height="5"/><rect x="570" y="110" width="5" height="5"/><rect x="815" y="120" width="4" height="4"/><rect x="1020" y="130" width="4" height="4"/><rect x="1380" y="140" width="4" height="4"/></g>
    <rect x="205" y="90" width="38" height="8" fill="#66BB6A"/><rect x="560" y="68" width="55" height="10" fill="#E8935A"/><rect x="810" y="78" width="48" height="9" fill="#9B6BB0"/><rect x="1005" y="88" width="42" height="8" fill="#D4849A"/><rect x="1370" y="107" width="40" height="7" fill="#66BB6A"/>
    <rect x="0" y="0" width="1440" height="200" fill="url(#skyline-fade)"/>
  </svg><g id="marquee-strip">
    <rect x="0" y="3408" width="2480" height="100" fill="#E8935A"/>
    <rect x="0" y="3408" width="2480" height="3" fill="#050505"/>
    <rect x="0" y="3505" width="2480" height="3" fill="#050505"/>
    <text x="1240" y="3471.6" text-anchor="middle"
          font-family="Arial Black, Arial, sans-serif"
          font-size="40" font-weight="900"
          letter-spacing="2"><tspan dx="0" fill="#0A0A0A">OUVERT 7J/7</tspan><tspan dx="32" fill="#A15F2E">✦</tspan><tspan dx="32" fill="#0A0A0A">IMPORTS US &amp; JP</tspan><tspan dx="32" fill="#A15F2E">✦</tspan><tspan dx="32" fill="#0A0A0A">CBD PREMIUM</tspan><tspan dx="32" fill="#A15F2E">✦</tspan><tspan dx="32" fill="#0A0A0A">LIVRAISON V-C</tspan></text>
  </g><g id="frame-corners">
    <rect x="60" y="60" width="120" height="5" fill="#66BB6A"/>
    <rect x="60" y="60" width="5" height="120" fill="#66BB6A"/>
    <rect x="2300" y="60" width="120" height="5" fill="#66BB6A"/>
    <rect x="2415" y="60" width="5" height="120" fill="#66BB6A"/>
    <rect x="60" y="3383" width="120" height="5" fill="#66BB6A"/>
    <rect x="60" y="3268" width="5" height="120" fill="#66BB6A"/>
    <rect x="2300" y="3383" width="120" height="5" fill="#66BB6A"/>
    <rect x="2415" y="3268" width="5" height="120" fill="#66BB6A"/></g><rect x="0" y="0" width="2480" height="3508" fill="url(#flyer-grain)" opacity="0.035"/></svg>