<?xml version="1.0" encoding="UTF-8"?><svg xmlns="http://www.w3.org/2000/svg" xmlns:xlink="http://www.w3.org/1999/xlink" width="1080" height="1920" viewBox="0 0 1080 1920"><defs>
    <radialGradient id="story-bg" cx="50%" cy="40%" r="80%">
      <stop offset="0%" stop-color="#0A0A0A"/>
      <stop offset="100%" stop-color="#050505"/>
    </radialGradient>
    <filter id="story-qr-halo" x="-20%" y="-20%" width="140%" height="140%">
      <feGaussianBlur stdDeviation="12"/>
    </filter>
    <filter id="story-neon-glow" x="-50%" y="-50%" width="200%" height="200%">
      <feGaussianBlur stdDeviation="2.2" result="b1"/>
      <feGaussianBlur in="SourceGraphic" stdDeviation="5" result="b2"/>
      <feMerge>
        <feMergeNode in="b2"/>
        <feMergeNode in="b1"/>
        <feMergeNode in="SourceGraphic"/>
      </feMerge>
    </filter>
    <filter id="story-noise">
      <feTurbulence type="fractalNoise" baseFrequency="0.9" numOctaves="2" stitchTiles="stitch"/>
      <feColorMatrix type="matrix" values="0 0 0 0 1  0 0 0 0 1  0 0 0 0 1  0 0 0 0.5 0"/>
    </filter>
    <pattern id="story-grain" x="0" y="0" width="256" height="256" patternUnits="userSpaceOnUse">
      <rect width="256" height="256" filter="url(#story-noise)"/>
    </pattern></defs><rect x="0" y="0" width="1080" height="1920" fill="url(#story-bg)"/><rect x="170" y="620"
    width="740" height="740" rx="16"
    fill="#66BB6A" opacity="0.22" filter="url(#story-qr-halo)"/><g transform="translate(190, 640) scale(0.68359375)"><defs>
      <filter id="qr-badge-halo" x="-50%" y="-50%" width="200%" height="200%">
        <feGaussianBlur stdDeviation="6"/>
      </filter>
      <filter id="qr-noise">
        <feTurbulence type="fractalNoise" baseFrequency="0.9" numOctaves="2" stitchTiles="stitch"/>
        <feColorMatrix type="matrix" values="0 0 0 0 1  0 0 0 0 1  0 0 0 0 1  0 0 0 0.5 0"/>
      </filter>
      <pattern id="qr-grain" x="0" y="0" width="200" height="200" patternUnits="userSpaceOnUse">
        <rect width="200" height="200" filter="url(#qr-noise)"/>
      </pattern></defs><defs><clipPath id="clip-path-background-color-0"><rect x="0" y="0" width="1024" height="1024"/></clipPath><clipPath id="clip-path-dot-color-0"><circle cx="302" cy="32" r="15" transform="rotate(0,302,32)"/><circle cx="332" cy="32" r="15" transform="rotate(0,332,32)"/><circle cx="452" cy="32" r="15" transform="rotate(0,452,32)"/><circle cx="482" cy="32" r="15" transform="rotate(0,482,32)"/><circle cx="542" cy="32" r="15" transform="rotate(0,542,32)"/><circle cx="572" cy="32" r="15" transform="rotate(0,572,32)"/><circle cx="602" cy="32" r="15" transform="rotate(0,602,32)"/><circle cx="632" cy="32" r="15" transform="rotate(0,632,32)"/><circle cx="722" cy="32" r="15" transform="rotate(0,722,32)"/><circle cx="752" cy="32" r="15" transform="rotate(0,752,32)"/><circle cx="302" cy="62" r="15" transform="rotate(0,302,62)"/><circle cx="332" cy="62" r="15" transform="rotate(0,332,62)"/><circle cx="392" cy="62" r="15" transform="rotate(0,392,62)"/><circle cx="452" cy="62" r="15" transform="rotate(0,452,62)"/><circle cx="482" cy="62" r="15" transform="rotate(0,482,62)"/><circle cx="512" cy="62" r="15" transform="rotate(0,512,62)"/><circle cx="542" cy="62" r="15" transform="rotate(0,542,62)"/><circle cx="632" cy="62" r="15" transform="rotate(0,632,62)"/><circle cx="722" cy="62" r="15" transform="rotate(0,722,62)"/><circle cx="332" cy="92" r="15" transform="rotate(0,332,92)"/><circle cx="362" cy="92" r="15" transform="rotate(0,362,92)"/><circle cx="452" cy="92" r="15" transform="rotate(0,452,92)"/><circle cx="482" cy="92" r="15" transform="rotate(0,482,92)"/><circle cx="572" cy="92" r="15" transform="rotate(0,572,92)"/><circle cx="602" cy="92" r="15" transform="rotate(0,602,92)"/><circle cx="722" cy="92" r="15" transform="rotate(0,722,92)"/><circle cx="422" cy="122" r="15" transform="rotate(0,422,122)"/><circle cx="452" cy="122" r="15" transform="rotate(0,452,122)"/><circle cx="512" cy="122" r="15" transform="rotate(0,512,122)"/><circle cx="572" cy="122" r="15" transform="rotate(0,572,122)"/><circle cx="632" cy="122" r="15" transform="rotate(0,632,122)"/><circle cx="692" cy="122" r="15" transform="rotate(0,692,122)"/><circle cx="722" cy="122" r="15" transform="rotate(0,722,122)"/><circle cx="272" cy="152" r="15" transform="rotate(0,272,152)"/><circle cx="302" cy="152" r="15" transform="rotate(0,302,152)"/><circle cx="332" cy="152" r="15" transform="rotate(0,332,152)"/><circle cx="362" cy="152" r="15" transform="rotate(0,362,152)"/><circle cx="452" cy="152" r="15" transform="rotate(0,452,152)"/><circle cx="512" cy="152" r="15" transform="rotate(0,512,152)"/><circle cx="542" cy="152" r="15" transform="rotate(0,542,152)"/><circle cx="572" cy="152" r="15" transform="rotate(0,572,152)"/><circle cx="662" cy="152" r="15" transform="rotate(0,662,152)"/><circle cx="752" cy="152" r="15" transform="rotate(0,752,152)"/><circle cx="302" cy="182" r="15" transform="rotate(0,302,182)"/><circle cx="332" cy="182" r="15" transform="rotate(0,332,182)"/><circle cx="362" cy="182" r="15" transform="rotate(0,362,182)"/><circle cx="392" cy="182" r="15" transform="rotate(0,392,182)"/><circle cx="452" cy="182" r="15" transform="rotate(0,452,182)"/><circle cx="542" cy="182" r="15" transform="rotate(0,542,182)"/><circle cx="602" cy="182" r="15" transform="rotate(0,602,182)"/><circle cx="632" cy="182" r="15" transform="rotate(0,632,182)"/><circle cx="662" cy="182" r="15" transform="rotate(0,662,182)"/><circle cx="752" cy="182" r="15" transform="rotate(0,752,182)"/><circle cx="272" cy="212" r="15" transform="rotate(0,272,212)"/><circle cx="332" cy="212" r="15" transform="rotate(0,332,212)"/><circle cx="392" cy="212" r="15" transform="rotate(0,392,212)"/><circle cx="452" cy="212" r="15" transform="rotate(0,452,212)"/><circle cx="512" cy="212" r="15" transform="rotate(0,512,212)"/><circle cx="572" cy="212" r="15" transform="rotate(0,572,212)"/><circle cx="632" cy="212" r="15" transform="rotate(0,632,212)"/><circle cx="692" cy="212" r="15" transform="rotate(0,692,212)"/><circle cx="752" cy="212" r="15" transform="rotate(0,752,212)"/><circle cx="272" cy="242" r="15" transform="rotate(0,272,242)"/><circle cx="302" cy="242" r="15" transform="rotate(0,302,242)"/><circle cx="482" cy="242" r="15" transform="rotate(0,482,242)"/><circle cx="542" cy="242" r="15" transform="rotate(0,542,242)"/><circle cx="602" cy="242" r="15" transform="rotate(0,602,242)"/><circle cx="722" cy="242" r="15" transform="rotate(0,722,242)"/><circle cx="92" cy="272" r="15" transform="rotate(0,92,272)"/><circle cx="122" cy="272" r="15" transform="rotate(0,122,272)"/><circle cx="212" cy="272" r="15" transform="rotate(0,212,272)"/><circle cx="242" cy="272" r="15" transform="rotate(0,242,272)"/><circle cx="272" cy="272" r="15" transform="rotate(0,272,272)"/><circle cx="542" cy="272" r="15" transform="rotate(0,542,272)"/><circle cx="572" cy="272" r="15" transform="rotate(0,572,272)"/><circle cx="602" cy="272" r="15" transform="rotate(0,602,272)"/><circle cx="632" cy="272" r="15" transform="rotate(0,632,272)"/><circle cx="662" cy="272" r="15" transform="rotate(0,662,272)"/><circle cx="782" cy="272" r="15" transform="rotate(0,782,272)"/><circle cx="812" cy="272" r="15" transform="rotate(0,812,272)"/><circle cx="872" cy="272" r="15" transform="rotate(0,872,272)"/><circle cx="62" cy="302" r="15" transform="rotate(0,62,302)"/><circle cx="92" cy="302" r="15" transform="rotate(0,92,302)"/><circle cx="122" cy="302" r="15" transform="rotate(0,122,302)"/><circle cx="152" cy="302" r="15" transform="rotate(0,152,302)"/><circle cx="242" cy="302" r="15" transform="rotate(0,242,302)"/><circle cx="272" cy="302" r="15" transform="rotate(0,272,302)"/><circle cx="302" cy="302" r="15" transform="rotate(0,302,302)"/><circle cx="332" cy="302" r="15" transform="rotate(0,332,302)"/><circle cx="362" cy="302" r="15" transform="rotate(0,362,302)"/><circle cx="422" cy="302" r="15" transform="rotate(0,422,302)"/><circle cx="452" cy="302" r="15" transform="rotate(0,452,302)"/><circle cx="482" cy="302" r="15" transform="rotate(0,482,302)"/><circle cx="572" cy="302" r="15" transform="rotate(0,572,302)"/><circle cx="662" cy="302" r="15" transform="rotate(0,662,302)"/><circle cx="692" cy="302" r="15" transform="rotate(0,692,302)"/><circle cx="722" cy="302" r="15" transform="rotate(0,722,302)"/><circle cx="752" cy="302" r="15" transform="rotate(0,752,302)"/><circle cx="782" cy="302" r="15" transform="rotate(0,782,302)"/><circle cx="812" cy="302" r="15" transform="rotate(0,812,302)"/><circle cx="902" cy="302" r="15" transform="rotate(0,902,302)"/><circle cx="932" cy="302" r="15" transform="rotate(0,932,302)"/><circle cx="962" cy="302" r="15" transform="rotate(0,962,302)"/><circle cx="992" cy="302" r="15" transform="rotate(0,992,302)"/><circle cx="92" cy="332" r="15" transform="rotate(0,92,332)"/><circle cx="152" cy="332" r="15" transform="rotate(0,152,332)"/><circle cx="212" cy="332" r="15" transform="rotate(0,212,332)"/><circle cx="242" cy="332" r="15" transform="rotate(0,242,332)"/><circle cx="272" cy="332" r="15" transform="rotate(0,272,332)"/><circle cx="452" cy="332" r="15" transform="rotate(0,452,332)"/><circle cx="482" cy="332" r="15" transform="rotate(0,482,332)"/><circle cx="512" cy="332" r="15" transform="rotate(0,512,332)"/><circle cx="572" cy="332" r="15" transform="rotate(0,572,332)"/><circle cx="602" cy="332" r="15" transform="rotate(0,602,332)"/><circle cx="632" cy="332" r="15" transform="rotate(0,632,332)"/><circle cx="722" cy="332" r="15" transform="rotate(0,722,332)"/><circle cx="812" cy="332" r="15" transform="rotate(0,812,332)"/><circle cx="902" cy="332" r="15" transform="rotate(0,902,332)"/><circle cx="962" cy="332" r="15" transform="rotate(0,962,332)"/><circle cx="992" cy="332" r="15" transform="rotate(0,992,332)"/><circle cx="92" cy="362" r="15" transform="rotate(0,92,362)"/><circle cx="122" cy="362" r="15" transform="rotate(0,122,362)"/><circle cx="272" cy="362" r="15" transform="rotate(0,272,362)"/><circle cx="302" cy="362" r="15" transform="rotate(0,302,362)"/><circle cx="332" cy="362" r="15" transform="rotate(0,332,362)"/><circle cx="392" cy="362" r="15" transform="rotate(0,392,362)"/><circle cx="542" cy="362" r="15" transform="rotate(0,542,362)"/><circle cx="572" cy="362" r="15" transform="rotate(0,572,362)"/><circle cx="602" cy="362" r="15" transform="rotate(0,602,362)"/><circle cx="692" cy="362" r="15" transform="rotate(0,692,362)"/><circle cx="842" cy="362" r="15" transform="rotate(0,842,362)"/><circle cx="872" cy="362" r="15" transform="rotate(0,872,362)"/><circle cx="962" cy="362" r="15" transform="rotate(0,962,362)"/><circle cx="992" cy="362" r="15" transform="rotate(0,992,362)"/><circle cx="92" cy="392" r="15" transform="rotate(0,92,392)"/><circle cx="182" cy="392" r="15" transform="rotate(0,182,392)"/><circle cx="212" cy="392" r="15" transform="rotate(0,212,392)"/><circle cx="272" cy="392" r="15" transform="rotate(0,272,392)"/><circle cx="332" cy="392" r="15" transform="rotate(0,332,392)"/><circle cx="422" cy="392" r="15" transform="rotate(0,422,392)"/><circle cx="452" cy="392" r="15" transform="rotate(0,452,392)"/><circle cx="512" cy="392" r="15" transform="rotate(0,512,392)"/><circle cx="542" cy="392" r="15" transform="rotate(0,542,392)"/><circle cx="632" cy="392" r="15" transform="rotate(0,632,392)"/><circle cx="692" cy="392" r="15" transform="rotate(0,692,392)"/><circle cx="752" cy="392" r="15" transform="rotate(0,752,392)"/><circle cx="842" cy="392" r="15" transform="rotate(0,842,392)"/><circle cx="872" cy="392" r="15" transform="rotate(0,872,392)"/><circle cx="962" cy="392" r="15" transform="rotate(0,962,392)"/><circle cx="32" cy="422" r="15" transform="rotate(0,32,422)"/><circle cx="62" cy="422" r="15" transform="rotate(0,62,422)"/><circle cx="92" cy="422" r="15" transform="rotate(0,92,422)"/><circle cx="152" cy="422" r="15" transform="rotate(0,152,422)"/><circle cx="182" cy="422" r="15" transform="rotate(0,182,422)"/><circle cx="242" cy="422" r="15" transform="rotate(0,242,422)"/><circle cx="272" cy="422" r="15" transform="rotate(0,272,422)"/><circle cx="302" cy="422" r="15" transform="rotate(0,302,422)"/><circle cx="392" cy="422" r="15" transform="rotate(0,392,422)"/><circle cx="452" cy="422" r="15" transform="rotate(0,452,422)"/><circle cx="482" cy="422" r="15" transform="rotate(0,482,422)"/><circle cx="542" cy="422" r="15" transform="rotate(0,542,422)"/><circle cx="602" cy="422" r="15" transform="rotate(0,602,422)"/><circle cx="662" cy="422" r="15" transform="rotate(0,662,422)"/><circle cx="692" cy="422" r="15" transform="rotate(0,692,422)"/><circle cx="752" cy="422" r="15" transform="rotate(0,752,422)"/><circle cx="842" cy="422" r="15" transform="rotate(0,842,422)"/><circle cx="902" cy="422" r="15" transform="rotate(0,902,422)"/><circle cx="32" cy="452" r="15" transform="rotate(0,32,452)"/><circle cx="122" cy="452" r="15" transform="rotate(0,122,452)"/><circle cx="152" cy="452" r="15" transform="rotate(0,152,452)"/><circle cx="182" cy="452" r="15" transform="rotate(0,182,452)"/><circle cx="212" cy="452" r="15" transform="rotate(0,212,452)"/><circle cx="272" cy="452" r="15" transform="rotate(0,272,452)"/><circle cx="302" cy="452" r="15" transform="rotate(0,302,452)"/><circle cx="422" cy="452" r="15" transform="rotate(0,422,452)"/><circle cx="482" cy="452" r="15" transform="rotate(0,482,452)"/><circle cx="512" cy="452" r="15" transform="rotate(0,512,452)"/><circle cx="572" cy="452" r="15" transform="rotate(0,572,452)"/><circle cx="602" cy="452" r="15" transform="rotate(0,602,452)"/><circle cx="632" cy="452" r="15" transform="rotate(0,632,452)"/><circle cx="662" cy="452" r="15" transform="rotate(0,662,452)"/><circle cx="782" cy="452" r="15" transform="rotate(0,782,452)"/><circle cx="812" cy="452" r="15" transform="rotate(0,812,452)"/><circle cx="842" cy="452" r="15" transform="rotate(0,842,452)"/><circle cx="872" cy="452" r="15" transform="rotate(0,872,452)"/><circle cx="932" cy="452" r="15" transform="rotate(0,932,452)"/><circle cx="152" cy="482" r="15" transform="rotate(0,152,482)"/><circle cx="332" cy="482" r="15" transform="rotate(0,332,482)"/><circle cx="422" cy="482" r="15" transform="rotate(0,422,482)"/><circle cx="482" cy="482" r="15" transform="rotate(0,482,482)"/><circle cx="572" cy="482" r="15" transform="rotate(0,572,482)"/><circle cx="632" cy="482" r="15" transform="rotate(0,632,482)"/><circle cx="662" cy="482" r="15" transform="rotate(0,662,482)"/><circle cx="692" cy="482" r="15" transform="rotate(0,692,482)"/><circle cx="722" cy="482" r="15" transform="rotate(0,722,482)"/><circle cx="902" cy="482" r="15" transform="rotate(0,902,482)"/><circle cx="932" cy="482" r="15" transform="rotate(0,932,482)"/><circle cx="992" cy="482" r="15" transform="rotate(0,992,482)"/><circle cx="32" cy="512" r="15" transform="rotate(0,32,512)"/><circle cx="212" cy="512" r="15" transform="rotate(0,212,512)"/><circle cx="242" cy="512" r="15" transform="rotate(0,242,512)"/><circle cx="272" cy="512" r="15" transform="rotate(0,272,512)"/><circle cx="332" cy="512" r="15" transform="rotate(0,332,512)"/><circle cx="362" cy="512" r="15" transform="rotate(0,362,512)"/><circle cx="422" cy="512" r="15" transform="rotate(0,422,512)"/><circle cx="452" cy="512" r="15" transform="rotate(0,452,512)"/><circle cx="482" cy="512" r="15" transform="rotate(0,482,512)"/><circle cx="512" cy="512" r="15" transform="rotate(0,512,512)"/><circle cx="602" cy="512" r="15" transform="rotate(0,602,512)"/><circle cx="632" cy="512" r="15" transform="rotate(0,632,512)"/><circle cx="662" cy="512" r="15" transform="rotate(0,662,512)"/><circle cx="752" cy="512" r="15" transform="rotate(0,752,512)"/><circle cx="782" cy="512" r="15" transform="rotate(0,782,512)"/><circle cx="812" cy="512" r="15" transform="rotate(0,812,512)"/><circle cx="872" cy="512" r="15" transform="rotate(0,872,512)"/><circle cx="902" cy="512" r="15" transform="rotate(0,902,512)"/><circle cx="932" cy="512" r="15" transform="rotate(0,932,512)"/><circle cx="992" cy="512" r="15" transform="rotate(0,992,512)"/><circle cx="92" cy="542" r="15" transform="rotate(0,92,542)"/><circle cx="122" cy="542" r="15" transform="rotate(0,122,542)"/><circle cx="152" cy="542" r="15" transform="rotate(0,152,542)"/><circle cx="332" cy="542" r="15" transform="rotate(0,332,542)"/><circle cx="362" cy="542" r="15" transform="rotate(0,362,542)"/><circle cx="392" cy="542" r="15" transform="rotate(0,392,542)"/><circle cx="482" cy="542" r="15" transform="rotate(0,482,542)"/><circle cx="512" cy="542" r="15" transform="rotate(0,512,542)"/><circle cx="542" cy="542" r="15" transform="rotate(0,542,542)"/><circle cx="692" cy="542" r="15" transform="rotate(0,692,542)"/><circle cx="722" cy="542" r="15" transform="rotate(0,722,542)"/><circle cx="782" cy="542" r="15" transform="rotate(0,782,542)"/><circle cx="812" cy="542" r="15" transform="rotate(0,812,542)"/><circle cx="842" cy="542" r="15" transform="rotate(0,842,542)"/><circle cx="872" cy="542" r="15" transform="rotate(0,872,542)"/><circle cx="932" cy="542" r="15" transform="rotate(0,932,542)"/><circle cx="992" cy="542" r="15" transform="rotate(0,992,542)"/><circle cx="32" cy="572" r="15" transform="rotate(0,32,572)"/><circle cx="62" cy="572" r="15" transform="rotate(0,62,572)"/><circle cx="92" cy="572" r="15" transform="rotate(0,92,572)"/><circle cx="122" cy="572" r="15" transform="rotate(0,122,572)"/><circle cx="212" cy="572" r="15" transform="rotate(0,212,572)"/><circle cx="242" cy="572" r="15" transform="rotate(0,242,572)"/><circle cx="272" cy="572" r="15" transform="rotate(0,272,572)"/><circle cx="302" cy="572" r="15" transform="rotate(0,302,572)"/><circle cx="362" cy="572" r="15" transform="rotate(0,362,572)"/><circle cx="422" cy="572" r="15" transform="rotate(0,422,572)"/><circle cx="452" cy="572" r="15" transform="rotate(0,452,572)"/><circle cx="512" cy="572" r="15" transform="rotate(0,512,572)"/><circle cx="602" cy="572" r="15" transform="rotate(0,602,572)"/><circle cx="632" cy="572" r="15" transform="rotate(0,632,572)"/><circle cx="692" cy="572" r="15" transform="rotate(0,692,572)"/><circle cx="782" cy="572" r="15" transform="rotate(0,782,572)"/><circle cx="812" cy="572" r="15" transform="rotate(0,812,572)"/><circle cx="872" cy="572" r="15" transform="rotate(0,872,572)"/><circle cx="932" cy="572" r="15" transform="rotate(0,932,572)"/><circle cx="962" cy="572" r="15" transform="rotate(0,962,572)"/><circle cx="62" cy="602" r="15" transform="rotate(0,62,602)"/><circle cx="92" cy="602" r="15" transform="rotate(0,92,602)"/><circle cx="122" cy="602" r="15" transform="rotate(0,122,602)"/><circle cx="152" cy="602" r="15" transform="rotate(0,152,602)"/><circle cx="182" cy="602" r="15" transform="rotate(0,182,602)"/><circle cx="242" cy="602" r="15" transform="rotate(0,242,602)"/><circle cx="362" cy="602" r="15" transform="rotate(0,362,602)"/><circle cx="542" cy="602" r="15" transform="rotate(0,542,602)"/><circle cx="632" cy="602" r="15" transform="rotate(0,632,602)"/><circle cx="692" cy="602" r="15" transform="rotate(0,692,602)"/><circle cx="812" cy="602" r="15" transform="rotate(0,812,602)"/><circle cx="962" cy="602" r="15" transform="rotate(0,962,602)"/><circle cx="992" cy="602" r="15" transform="rotate(0,992,602)"/><circle cx="32" cy="632" r="15" transform="rotate(0,32,632)"/><circle cx="212" cy="632" r="15" transform="rotate(0,212,632)"/><circle cx="272" cy="632" r="15" transform="rotate(0,272,632)"/><circle cx="332" cy="632" r="15" transform="rotate(0,332,632)"/><circle cx="392" cy="632" r="15" transform="rotate(0,392,632)"/><circle cx="422" cy="632" r="15" transform="rotate(0,422,632)"/><circle cx="482" cy="632" r="15" transform="rotate(0,482,632)"/><circle cx="632" cy="632" r="15" transform="rotate(0,632,632)"/><circle cx="662" cy="632" r="15" transform="rotate(0,662,632)"/><circle cx="782" cy="632" r="15" transform="rotate(0,782,632)"/><circle cx="902" cy="632" r="15" transform="rotate(0,902,632)"/><circle cx="932" cy="632" r="15" transform="rotate(0,932,632)"/><circle cx="32" cy="662" r="15" transform="rotate(0,32,662)"/><circle cx="62" cy="662" r="15" transform="rotate(0,62,662)"/><circle cx="92" cy="662" r="15" transform="rotate(0,92,662)"/><circle cx="122" cy="662" r="15" transform="rotate(0,122,662)"/><circle cx="152" cy="662" r="15" transform="rotate(0,152,662)"/><circle cx="182" cy="662" r="15" transform="rotate(0,182,662)"/><circle cx="242" cy="662" r="15" transform="rotate(0,242,662)"/><circle cx="272" cy="662" r="15" transform="rotate(0,272,662)"/><circle cx="362" cy="662" r="15" transform="rotate(0,362,662)"/><circle cx="392" cy="662" r="15" transform="rotate(0,392,662)"/><circle cx="512" cy="662" r="15" transform="rotate(0,512,662)"/><circle cx="542" cy="662" r="15" transform="rotate(0,542,662)"/><circle cx="602" cy="662" r="15" transform="rotate(0,602,662)"/><circle cx="632" cy="662" r="15" transform="rotate(0,632,662)"/><circle cx="662" cy="662" r="15" transform="rotate(0,662,662)"/><circle cx="722" cy="662" r="15" transform="rotate(0,722,662)"/><circle cx="812" cy="662" r="15" transform="rotate(0,812,662)"/><circle cx="962" cy="662" r="15" transform="rotate(0,962,662)"/><circle cx="992" cy="662" r="15" transform="rotate(0,992,662)"/><circle cx="92" cy="692" r="15" transform="rotate(0,92,692)"/><circle cx="122" cy="692" r="15" transform="rotate(0,122,692)"/><circle cx="182" cy="692" r="15" transform="rotate(0,182,692)"/><circle cx="212" cy="692" r="15" transform="rotate(0,212,692)"/><circle cx="332" cy="692" r="15" transform="rotate(0,332,692)"/><circle cx="392" cy="692" r="15" transform="rotate(0,392,692)"/><circle cx="422" cy="692" r="15" transform="rotate(0,422,692)"/><circle cx="512" cy="692" r="15" transform="rotate(0,512,692)"/><circle cx="542" cy="692" r="15" transform="rotate(0,542,692)"/><circle cx="602" cy="692" r="15" transform="rotate(0,602,692)"/><circle cx="662" cy="692" r="15" transform="rotate(0,662,692)"/><circle cx="692" cy="692" r="15" transform="rotate(0,692,692)"/><circle cx="722" cy="692" r="15" transform="rotate(0,722,692)"/><circle cx="812" cy="692" r="15" transform="rotate(0,812,692)"/><circle cx="872" cy="692" r="15" transform="rotate(0,872,692)"/><circle cx="962" cy="692" r="15" transform="rotate(0,962,692)"/><circle cx="992" cy="692" r="15" transform="rotate(0,992,692)"/><circle cx="62" cy="722" r="15" transform="rotate(0,62,722)"/><circle cx="92" cy="722" r="15" transform="rotate(0,92,722)"/><circle cx="152" cy="722" r="15" transform="rotate(0,152,722)"/><circle cx="182" cy="722" r="15" transform="rotate(0,182,722)"/><circle cx="272" cy="722" r="15" transform="rotate(0,272,722)"/><circle cx="302" cy="722" r="15" transform="rotate(0,302,722)"/><circle cx="422" cy="722" r="15" transform="rotate(0,422,722)"/><circle cx="452" cy="722" r="15" transform="rotate(0,452,722)"/><circle cx="482" cy="722" r="15" transform="rotate(0,482,722)"/><circle cx="572" cy="722" r="15" transform="rotate(0,572,722)"/><circle cx="632" cy="722" r="15" transform="rotate(0,632,722)"/><circle cx="692" cy="722" r="15" transform="rotate(0,692,722)"/><circle cx="722" cy="722" r="15" transform="rotate(0,722,722)"/><circle cx="752" cy="722" r="15" transform="rotate(0,752,722)"/><circle cx="782" cy="722" r="15" transform="rotate(0,782,722)"/><circle cx="872" cy="722" r="15" transform="rotate(0,872,722)"/><circle cx="902" cy="722" r="15" transform="rotate(0,902,722)"/><circle cx="962" cy="722" r="15" transform="rotate(0,962,722)"/><circle cx="32" cy="752" r="15" transform="rotate(0,32,752)"/><circle cx="212" cy="752" r="15" transform="rotate(0,212,752)"/><circle cx="242" cy="752" r="15" transform="rotate(0,242,752)"/><circle cx="272" cy="752" r="15" transform="rotate(0,272,752)"/><circle cx="392" cy="752" r="15" transform="rotate(0,392,752)"/><circle cx="452" cy="752" r="15" transform="rotate(0,452,752)"/><circle cx="482" cy="752" r="15" transform="rotate(0,482,752)"/><circle cx="542" cy="752" r="15" transform="rotate(0,542,752)"/><circle cx="602" cy="752" r="15" transform="rotate(0,602,752)"/><circle cx="632" cy="752" r="15" transform="rotate(0,632,752)"/><circle cx="692" cy="752" r="15" transform="rotate(0,692,752)"/><circle cx="722" cy="752" r="15" transform="rotate(0,722,752)"/><circle cx="752" cy="752" r="15" transform="rotate(0,752,752)"/><circle cx="782" cy="752" r="15" transform="rotate(0,782,752)"/><circle cx="812" cy="752" r="15" transform="rotate(0,812,752)"/><circle cx="842" cy="752" r="15" transform="rotate(0,842,752)"/><circle cx="872" cy="752" r="15" transform="rotate(0,872,752)"/><circle cx="902" cy="752" r="15" transform="rotate(0,902,752)"/><circle cx="992" cy="752" r="15" transform="rotate(0,992,752)"/><circle cx="272" cy="782" r="15" transform="rotate(0,272,782)"/><circle cx="332" cy="782" r="15" transform="rotate(0,332,782)"/><circle cx="392" cy="782" r="15" transform="rotate(0,392,782)"/><circle cx="452" cy="782" r="15" transform="rotate(0,452,782)"/><circle cx="542" cy="782" r="15" transform="rotate(0,542,782)"/><circle cx="572" cy="782" r="15" transform="rotate(0,572,782)"/><circle cx="752" cy="782" r="15" transform="rotate(0,752,782)"/><circle cx="872" cy="782" r="15" transform="rotate(0,872,782)"/><circle cx="932" cy="782" r="15" transform="rotate(0,932,782)"/><circle cx="962" cy="782" r="15" transform="rotate(0,962,782)"/><circle cx="272" cy="812" r="15" transform="rotate(0,272,812)"/><circle cx="362" cy="812" r="15" transform="rotate(0,362,812)"/><circle cx="422" cy="812" r="15" transform="rotate(0,422,812)"/><circle cx="542" cy="812" r="15" transform="rotate(0,542,812)"/><circle cx="572" cy="812" r="15" transform="rotate(0,572,812)"/><circle cx="602" cy="812" r="15" transform="rotate(0,602,812)"/><circle cx="692" cy="812" r="15" transform="rotate(0,692,812)"/><circle cx="722" cy="812" r="15" transform="rotate(0,722,812)"/><circle cx="752" cy="812" r="15" transform="rotate(0,752,812)"/><circle cx="812" cy="812" r="15" transform="rotate(0,812,812)"/><circle cx="872" cy="812" r="15" transform="rotate(0,872,812)"/><circle cx="902" cy="812" r="15" transform="rotate(0,902,812)"/><circle cx="302" cy="842" r="15" transform="rotate(0,302,842)"/><circle cx="332" cy="842" r="15" transform="rotate(0,332,842)"/><circle cx="362" cy="842" r="15" transform="rotate(0,362,842)"/><circle cx="512" cy="842" r="15" transform="rotate(0,512,842)"/><circle cx="662" cy="842" r="15" transform="rotate(0,662,842)"/><circle cx="722" cy="842" r="15" transform="rotate(0,722,842)"/><circle cx="752" cy="842" r="15" transform="rotate(0,752,842)"/><circle cx="872" cy="842" r="15" transform="rotate(0,872,842)"/><circle cx="902" cy="842" r="15" transform="rotate(0,902,842)"/><circle cx="932" cy="842" r="15" transform="rotate(0,932,842)"/><circle cx="962" cy="842" r="15" transform="rotate(0,962,842)"/><circle cx="992" cy="842" r="15" transform="rotate(0,992,842)"/><circle cx="392" cy="872" r="15" transform="rotate(0,392,872)"/><circle cx="422" cy="872" r="15" transform="rotate(0,422,872)"/><circle cx="512" cy="872" r="15" transform="rotate(0,512,872)"/><circle cx="542" cy="872" r="15" transform="rotate(0,542,872)"/><circle cx="602" cy="872" r="15" transform="rotate(0,602,872)"/><circle cx="722" cy="872" r="15" transform="rotate(0,722,872)"/><circle cx="752" cy="872" r="15" transform="rotate(0,752,872)"/><circle cx="782" cy="872" r="15" transform="rotate(0,782,872)"/><circle cx="812" cy="872" r="15" transform="rotate(0,812,872)"/><circle cx="842" cy="872" r="15" transform="rotate(0,842,872)"/><circle cx="872" cy="872" r="15" transform="rotate(0,872,872)"/><circle cx="932" cy="872" r="15" transform="rotate(0,932,872)"/><circle cx="962" cy="872" r="15" transform="rotate(0,962,872)"/><circle cx="272" cy="902" r="15" transform="rotate(0,272,902)"/><circle cx="302" cy="902" r="15" transform="rotate(0,302,902)"/><circle cx="332" cy="902" r="15" transform="rotate(0,332,902)"/><circle cx="392" cy="902" r="15" transform="rotate(0,392,902)"/><circle cx="422" cy="902" r="15" transform="rotate(0,422,902)"/><circle cx="452" cy="902" r="15" transform="rotate(0,452,902)"/><circle cx="482" cy="902" r="15" transform="rotate(0,482,902)"/><circle cx="602" cy="902" r="15" transform="rotate(0,602,902)"/><circle cx="632" cy="902" r="15" transform="rotate(0,632,902)"/><circle cx="692" cy="902" r="15" transform="rotate(0,692,902)"/><circle cx="722" cy="902" r="15" transform="rotate(0,722,902)"/><circle cx="752" cy="902" r="15" transform="rotate(0,752,902)"/><circle cx="842" cy="902" r="15" transform="rotate(0,842,902)"/><circle cx="962" cy="902" r="15" transform="rotate(0,962,902)"/><circle cx="992" cy="902" r="15" transform="rotate(0,992,902)"/><circle cx="272" cy="932" r="15" transform="rotate(0,272,932)"/><circle cx="332" cy="932" r="15" transform="rotate(0,332,932)"/><circle cx="362" cy="932" r="15" transform="rotate(0,362,932)"/><circle cx="392" cy="932" r="15" transform="rotate(0,392,932)"/><circle cx="542" cy="932" r="15" transform="rotate(0,542,932)"/><circle cx="602" cy="932" r="15" transform="rotate(0,602,932)"/><circle cx="632" cy="932" r="15" transform="rotate(0,632,932)"/><circle cx="692" cy="932" r="15" transform="rotate(0,692,932)"/><circle cx="722" cy="932" r="15" transform="rotate(0,722,932)"/><circle cx="782" cy="932" r="15" transform="rotate(0,782,932)"/><circle cx="812" cy="932" r="15" transform="rotate(0,812,932)"/><circle cx="902" cy="932" r="15" transform="rotate(0,902,932)"/><circle cx="302" cy="962" r="15" transform="rotate(0,302,962)"/><circle cx="362" cy="962" r="15" transform="rotate(0,362,962)"/><circle cx="392" cy="962" r="15" transform="rotate(0,392,962)"/><circle cx="422" cy="962" r="15" transform="rotate(0,422,962)"/><circle cx="482" cy="962" r="15" transform="rotate(0,482,962)"/><circle cx="542" cy="962" r="15" transform="rotate(0,542,962)"/><circle cx="602" cy="962" r="15" transform="rotate(0,602,962)"/><circle cx="722" cy="962" r="15" transform="rotate(0,722,962)"/><circle cx="752" cy="962" r="15" transform="rotate(0,752,962)"/><circle cx="782" cy="962" r="15" transform="rotate(0,782,962)"/><circle cx="992" cy="962" r="15" transform="rotate(0,992,962)"/><circle cx="302" cy="992" r="15" transform="rotate(0,302,992)"/><circle cx="332" cy="992" r="15" transform="rotate(0,332,992)"/><circle cx="392" cy="992" r="15" transform="rotate(0,392,992)"/><circle cx="452" cy="992" r="15" transform="rotate(0,452,992)"/><circle cx="512" cy="992" r="15" transform="rotate(0,512,992)"/><circle cx="662" cy="992" r="15" transform="rotate(0,662,992)"/><circle cx="722" cy="992" r="15" transform="rotate(0,722,992)"/><circle cx="842" cy="992" r="15" transform="rotate(0,842,992)"/><circle cx="872" cy="992" r="15" transform="rotate(0,872,992)"/><circle cx="932" cy="992" r="15" transform="rotate(0,932,992)"/></clipPath><linearGradient id="dot-color-0" gradientUnits="userSpaceOnUse" x1="512" y1="0" x2="512" y2="1024"><stop offset="0%" stop-color="#66BB6A"/><stop offset="100%" stop-color="#388E3C"/></linearGradient><clipPath id="clip-path-corners-square-color-0-0-0"><path clip-rule="evenodd" d="M 122 17a 105 105 0 1 0 0.1 0zm 0 30a 75 75 0 1 1 -0.1 0Z" transform="rotate(0,122,122)"/></clipPath><linearGradient id="corners-square-color-0-0-0" gradientUnits="userSpaceOnUse" x1="17" y1="17" x2="227" y2="227"><stop offset="0%" stop-color="#81C784"/><stop offset="100%" stop-color="#388E3C"/></linearGradient><clipPath id="clip-path-corners-dot-color-0-0-0"><circle cx="122" cy="122" r="45" transform="rotate(0,122,122)"/></clipPath><clipPath id="clip-path-corners-square-color-1-0-0"><path clip-rule="evenodd" d="M 902 17a 105 105 0 1 0 0.1 0zm 0 30a 75 75 0 1 1 -0.1 0Z" transform="rotate(90,902,122)"/></clipPath><linearGradient id="corners-square-color-1-0-0" gradientUnits="userSpaceOnUse" x1="1007" y1="17" x2="797" y2="227"><stop offset="0%" stop-color="#81C784"/><stop offset="100%" stop-color="#388E3C"/></linearGradient><clipPath id="clip-path-corners-dot-color-1-0-0"><circle cx="902" cy="122" r="45" transform="rotate(90,902,122)"/></clipPath><clipPath id="clip-path-corners-square-color-0-1-0"><path clip-rule="evenodd" d="M 122 797a 105 105 0 1 0 0.1 0zm 0 30a 75 75 0 1 1 -0.1 0Z" transform="rotate(-90,122,902)"/></clipPath><linearGradient id="corners-square-color-0-1-0" gradientUnits="userSpaceOnUse" x1="17" y1="1007" x2="227" y2="797"><stop offset="0%" stop-color="#81C784"/><stop offset="100%" stop-color="#388E3C"/></linearGradient><clipPath id="clip-path-corners-dot-color-0-1-0"><circle cx="122" cy="902" r="45" transform="rotate(-90,122,902)"/></clipPath></defs><rect x="0" y="0" height="1024" width="1024" clip-path="url('#clip-path-background-color-0')" fill="#0A0A0A"/><rect x="0" y="0" height="1024" width="1024" clip-path="url('#clip-path-dot-color-0')" fill="url('#dot-color-0')"/><rect x="17" y="17" height="210" width="210" clip-path="url('#clip-path-corners-square-color-0-0-0')" fill="url('#corners-square-color-0-0-0')"/><rect x="77" y="77" height="90" width="90" clip-path="url('#clip-path-corners-dot-color-0-0-0')" fill="#66BB6A"/><rect x="797" y="17" height="210" width="210" clip-path="url('#clip-path-corners-square-color-1-0-0')" fill="url('#corners-square-color-1-0-0')"/><rect x="857" y="77" height="90" width="90" clip-path="url('#clip-path-corners-dot-color-1-0-0')" fill="#66BB6A"/><rect x="17" y="797" height="210" width="210" clip-path="url('#clip-path-corners-square-color-0-1-0')" fill="url('#corners-square-color-0-1-0')"/><rect x="77" y="857" height="90" width="90" clip-path="url('#clip-path-corners-dot-color-0-1-0')" fill="#66BB6A"/><rect x="309.91999999999996" y="361.12"
    width="404.16" height="301.76"
    fill="#0A0A0A" rx="16"/><rect x="337.91999999999996" y="389.12"
    width="348.16" height="245.76" rx="12"
    fill="none" stroke="#81C784" stroke-width="6" opacity="0.35"
    filter="url(#qr-badge-halo)"/><rect x="337.91999999999996" y="389.12"
    width="348.16" height="245.76" rx="12"
    fill="#0A0A0A" stroke="#66BB6A" stroke-width="2.5"/><rect x="341.91999999999996" y="393.12"
    width="340.16" height="237.76" rx="10"
    fill="#1B3A1B" opacity="0.25"/><g id="vyra-wordmark"><path d="M420.044 551.322L436.043 453.956L405.112 453.956L397.188 512.772L389.113 453.956L356.962 453.956L372.657 551.322ZM491.201 551.322L491.201 516.581C504.153 516.581 510.705 510.029 510.705 496.773L510.705 453.956L479.012 453.956L479.012 493.421C479.012 493.573 478.859 493.725 478.707 493.725L471.545 493.725C471.393 493.725 471.241 493.573 471.241 493.421L471.241 453.956L439.547 453.956L439.547 496.773C439.547 510.029 446.252 516.581 459.508 516.581L459.508 551.322ZM588.262 551.322L588.262 510.638C588.262 505.915 585.671 503.325 580.338 502.563C585.519 501.953 588.109 499.363 588.109 494.640L588.109 466.298C588.109 458.070 582.929 453.956 572.415 453.956L517.104 453.956L517.104 551.322L548.798 551.322L548.798 512.315L556.264 512.315C556.416 512.315 556.569 512.467 556.569 512.619L556.569 551.322ZM556.569 492.659C556.569 492.811 556.416 492.963 556.264 492.963L548.798 492.963L548.798 478.336L556.264 478.336C556.416 478.336 556.569 478.488 556.569 478.641ZM635.344 490.525L627.574 490.525L627.574 478.641C627.574 478.488 627.726 478.336 627.878 478.336L635.040 478.336C635.192 478.336 635.344 478.488 635.344 478.641ZM667.038 551.322L667.038 466.298C667.038 458.070 661.705 453.956 651.191 453.956L611.727 453.956C601.213 453.956 595.880 458.070 595.880 466.298L595.880 551.322L627.574 551.322L627.574 514.905L635.344 514.905L635.344 551.322Z" fill="#F5F5F5"/></g><path d="M439.904 615.219L439.904 593.278C439.904 591.154 438.528 590.093 435.814 590.093C433.141 590.093 431.096 590.643 429.720 591.705L429.720 590.093L421.541 590.093L421.541 615.219L429.720 615.219L429.720 596.463C429.720 596.423 429.759 596.384 429.798 596.384L431.646 596.384C431.686 596.384 431.725 596.423 431.725 596.463L431.725 615.219ZM450.088 615.219L450.088 590.093L441.909 590.093L441.909 615.219ZM470.417 615.219L470.417 599.844L462.239 599.844L462.239 608.967L460.312 608.967C460.272 608.967 460.233 608.928 460.233 608.888L460.233 596.463C460.233 596.423 460.272 596.384 460.312 596.384L462.160 596.384C462.199 596.384 462.239 596.423 462.239 596.463L462.239 597.524L470.417 597.524L470.417 593.278C470.417 591.154 469.041 590.093 466.328 590.093L456.144 590.093C453.430 590.093 452.054 591.154 452.054 593.278L452.054 612.113C452.054 614.197 453.430 615.219 456.144 615.219ZM490.786 615.219L490.786 590.093L482.607 590.093L482.607 599.766L480.602 599.766L480.602 590.093L472.423 590.093L472.423 615.219L480.602 615.219L480.602 605.546L482.607 605.546L482.607 615.219ZM508.323 615.219C511.037 615.219 512.413 614.197 512.413 612.113L512.413 599.530L504.273 599.530L504.273 608.888C504.273 608.928 504.234 608.967 504.195 608.967L502.307 608.967C502.268 608.967 502.229 608.928 502.229 608.888L502.229 597.918L512.413 597.918L512.413 591.705L502.229 591.705L502.229 590.093L494.050 590.093L494.050 591.705L492.044 591.705L492.044 597.918L494.050 597.918L494.050 612.113C494.050 614.197 495.426 615.219 498.139 615.219ZM537.382 615.219C540.095 615.219 541.472 614.197 541.472 612.113L541.472 602.636C541.472 600.552 540.095 599.530 537.382 599.530L531.366 599.530C531.327 599.530 531.287 599.491 531.287 599.451L531.287 596.463C531.287 596.423 531.327 596.384 531.366 596.384L533.214 596.384C533.253 596.384 533.293 596.423 533.293 596.463L533.293 597.918L541.472 597.918L541.472 593.278C541.472 591.154 540.095 590.093 537.382 590.093L527.198 590.093C524.485 590.093 523.108 591.154 523.108 593.278L523.108 602.636C523.108 604.760 524.485 605.821 527.198 605.821L533.214 605.821C533.253 605.821 533.293 605.861 533.293 605.900L533.293 608.888C533.293 608.928 533.253 608.967 533.214 608.967L531.366 608.967C531.327 608.967 531.287 608.928 531.287 608.888L531.287 607.394L523.108 607.394L523.108 612.113C523.108 614.197 524.485 615.219 527.198 615.219ZM561.801 615.219L561.801 590.093L553.622 590.093L553.622 599.766L551.617 599.766L551.617 590.093L543.438 590.093L543.438 615.219L551.617 615.219L551.617 605.546L553.622 605.546L553.622 615.219ZM573.951 608.888C573.951 608.928 573.912 608.967 573.873 608.967L572.024 608.967C571.985 608.967 571.946 608.928 571.946 608.888L571.946 596.463C571.946 596.423 571.985 596.384 572.024 596.384L573.873 596.384C573.912 596.384 573.951 596.423 573.951 596.463ZM578.041 615.219C580.754 615.219 582.130 614.197 582.130 612.113L582.130 593.278C582.130 591.154 580.754 590.093 578.041 590.093L567.856 590.093C565.143 590.093 563.767 591.154 563.767 593.278L563.767 612.113C563.767 614.197 565.143 615.219 567.856 615.219ZM594.280 599.805C594.280 599.844 594.241 599.884 594.202 599.884L592.275 599.884L592.275 596.384L594.202 596.384C594.241 596.384 594.280 596.423 594.280 596.463ZM592.275 615.219L592.275 605.821L598.370 605.821C601.083 605.821 602.459 604.760 602.459 602.636L602.459 593.278C602.459 591.154 601.083 590.093 598.370 590.093L584.096 590.093L584.096 615.219Z" fill="#66BB6A"/><rect x="0" y="0" width="1024" height="1024"
    fill="url(#qr-grain)" opacity="0.025"/></g><g id="serial-number">
    <text x="540" y="255" text-anchor="middle"
          font-family="Consolas, Menlo, 'Courier New', monospace"
          font-size="18"
          font-weight="700"
          letter-spacing="3"
          fill="#B3B3B3">
      <tspan fill="#E8935A">★</tspan>
      <tspan dx="10">14 RUE LEVEILLÉ · 02600 VILLERS-COTTERÊTS</tspan>
      <tspan dx="10" fill="#E8935A">★</tspan>
    </text>
  </g><g id="vyra-wordmark"><path d="M395.160 470L420.360 316.640L371.640 316.640L359.160 409.280L346.440 316.640L295.800 316.640L320.520 470ZM507.240 470L507.240 415.280C527.640 415.280 537.960 404.960 537.960 384.080L537.960 316.640L488.040 316.640L488.040 378.800C488.040 379.040 487.800 379.280 487.560 379.280L476.280 379.280C476.040 379.280 475.800 379.040 475.800 378.800L475.800 316.640L425.880 316.640L425.880 384.080C425.880 404.960 436.440 415.280 457.320 415.280L457.320 470ZM660.120 470L660.120 405.920C660.120 398.480 656.040 394.400 647.640 393.200C655.800 392.240 659.880 388.160 659.880 380.720L659.880 336.080C659.880 323.120 651.720 316.640 635.160 316.640L548.040 316.640L548.040 470L597.960 470L597.960 408.560L609.720 408.560C609.960 408.560 610.200 408.800 610.200 409.040L610.200 470ZM610.200 377.600C610.200 377.840 609.960 378.080 609.720 378.080L597.960 378.080L597.960 355.040L609.720 355.040C609.960 355.040 610.200 355.280 610.200 355.520ZM734.280 374.240L722.040 374.240L722.040 355.520C722.040 355.280 722.280 355.040 722.520 355.040L733.800 355.040C734.040 355.040 734.280 355.280 734.280 355.520ZM784.200 470L784.200 336.080C784.200 323.120 775.800 316.640 759.240 316.640L697.080 316.640C680.520 316.640 672.120 323.120 672.120 336.080L672.120 470L722.040 470L722.040 412.640L734.280 412.640L734.280 470Z" fill="#F5F5F5"/></g><g id="night-shop" filter="url(#story-neon-glow)"><path d="M433.657 538L433.657 505.636C433.657 502.504 431.627 500.938 427.625 500.938C423.681 500.938 420.665 501.750 418.635 503.316L418.635 500.938L406.571 500.938L406.571 538L418.635 538L418.635 510.334C418.635 510.276 418.693 510.218 418.751 510.218L421.477 510.218C421.535 510.218 421.593 510.276 421.593 510.334L421.593 538ZM448.679 538L448.679 500.938L436.615 500.938L436.615 538ZM478.665 538L478.665 515.322L466.601 515.322L466.601 528.778L463.759 528.778C463.701 528.778 463.643 528.720 463.643 528.662L463.643 510.334C463.643 510.276 463.701 510.218 463.759 510.218L466.485 510.218C466.543 510.218 466.601 510.276 466.601 510.334L466.601 511.900L478.665 511.900L478.665 505.636C478.665 502.504 476.635 500.938 472.633 500.938L457.611 500.938C453.609 500.938 451.579 502.504 451.579 505.636L451.579 533.418C451.579 536.492 453.609 538 457.611 538ZM508.709 538L508.709 500.938L496.645 500.938L496.645 515.206L493.687 515.206L493.687 500.938L481.623 500.938L481.623 538L493.687 538L493.687 523.732L496.645 523.732L496.645 538ZM534.577 538C538.579 538 540.609 536.492 540.609 533.418L540.609 514.858L528.603 514.858L528.603 528.662C528.603 528.720 528.545 528.778 528.487 528.778L525.703 528.778C525.645 528.778 525.587 528.720 525.587 528.662L525.587 512.480L540.609 512.480L540.609 503.316L525.587 503.316L525.587 500.938L513.523 500.938L513.523 503.316L510.565 503.316L510.565 512.480L513.523 512.480L513.523 533.418C513.523 536.492 515.553 538 519.555 538ZM577.439 538C581.441 538 583.471 536.492 583.471 533.418L583.471 519.440C583.471 516.366 581.441 514.858 577.439 514.858L568.565 514.858C568.507 514.858 568.449 514.800 568.449 514.742L568.449 510.334C568.449 510.276 568.507 510.218 568.565 510.218L571.291 510.218C571.349 510.218 571.407 510.276 571.407 510.334L571.407 512.480L583.471 512.480L583.471 505.636C583.471 502.504 581.441 500.938 577.439 500.938L562.417 500.938C558.415 500.938 556.385 502.504 556.385 505.636L556.385 519.440C556.385 522.572 558.415 524.138 562.417 524.138L571.291 524.138C571.349 524.138 571.407 524.196 571.407 524.254L571.407 528.662C571.407 528.720 571.349 528.778 571.291 528.778L568.565 528.778C568.507 528.778 568.449 528.720 568.449 528.662L568.449 526.458L556.385 526.458L556.385 533.418C556.385 536.492 558.415 538 562.417 538ZM613.457 538L613.457 500.938L601.393 500.938L601.393 515.206L598.435 515.206L598.435 500.938L586.371 500.938L586.371 538L598.435 538L598.435 523.732L601.393 523.732L601.393 538ZM631.379 528.662C631.379 528.720 631.321 528.778 631.263 528.778L628.537 528.778C628.479 528.778 628.421 528.720 628.421 528.662L628.421 510.334C628.421 510.276 628.479 510.218 628.537 510.218L631.263 510.218C631.321 510.218 631.379 510.276 631.379 510.334ZM637.411 538C641.413 538 643.443 536.492 643.443 533.418L643.443 505.636C643.443 502.504 641.413 500.938 637.411 500.938L622.389 500.938C618.387 500.938 616.357 502.504 616.357 505.636L616.357 533.418C616.357 536.492 618.387 538 622.389 538ZM661.365 515.264C661.365 515.322 661.307 515.380 661.249 515.380L658.407 515.380L658.407 510.218L661.249 510.218C661.307 510.218 661.365 510.276 661.365 510.334ZM658.407 538L658.407 524.138L667.397 524.138C671.399 524.138 673.429 522.572 673.429 519.440L673.429 505.636C673.429 502.504 671.399 500.938 667.397 500.938L646.343 500.938L646.343 538Z" fill="#66BB6A"/></g><g transform="translate(930, 330) rotate(-6)">
    <rect x="-66.24000000000001" y="-20.4" width="132.48000000000002" height="40.8" rx="4"
          fill="rgba(10,10,10,0.72)" stroke="#E8935A" stroke-width="2"/>
    <text x="0" y="8.16" text-anchor="middle"
          font-family="Arial Black, Arial, sans-serif"
          font-size="24" font-weight="900"
          letter-spacing="1.5" fill="#E8935A">SNACKS</text>
  </g><g transform="translate(150, 380) rotate(5)">
    <rect x="-100.80000000000001" y="-20.4" width="201.60000000000002" height="40.8" rx="4"
          fill="rgba(10,10,10,0.72)" stroke="#66BB6A" stroke-width="2"/>
    <text x="0" y="8.16" text-anchor="middle"
          font-family="Arial Black, Arial, sans-serif"
          font-size="24" font-weight="900"
          letter-spacing="1.5" fill="#66BB6A">CBD &amp; PUFF</text>
  </g><path d="M265.515 600C267.585 600 268.635 599.220 268.635 597.630L268.635 590.400C268.635 588.810 267.585 588.030 265.515 588.030L260.925 588.030C260.895 588.030 260.865 588 260.865 587.970L260.865 585.690C260.865 585.660 260.895 585.630 260.925 585.630L262.335 585.630C262.365 585.630 262.395 585.660 262.395 585.690L262.395 586.800L268.635 586.800L268.635 583.260C268.635 581.640 267.585 580.830 265.515 580.830L257.745 580.830C255.675 580.830 254.625 581.640 254.625 583.260L254.625 590.400C254.625 592.020 255.675 592.830 257.745 592.830L262.335 592.830C262.365 592.830 262.395 592.860 262.395 592.890L262.395 595.170C262.395 595.200 262.365 595.230 262.335 595.230L260.925 595.230C260.895 595.230 260.865 595.200 260.865 595.170L260.865 594.030L254.625 594.030L254.625 597.630C254.625 599.220 255.675 600 257.745 600ZM284.145 600L284.145 583.260C284.145 581.640 283.095 580.830 281.025 580.830C278.985 580.830 277.425 581.250 276.375 582.060L276.375 580.830L270.135 580.830L270.135 600L276.375 600L276.375 585.690C276.375 585.660 276.405 585.630 276.435 585.630L277.845 585.630C277.875 585.630 277.905 585.660 277.905 585.690L277.905 600ZM293.415 588.030L291.885 588.030L291.885 585.690C291.885 585.660 291.915 585.630 291.945 585.630L293.355 585.630C293.385 585.630 293.415 585.660 293.415 585.690ZM299.655 600L299.655 583.260C299.655 581.640 298.605 580.830 296.535 580.830L288.765 580.830C286.695 580.830 285.645 581.640 285.645 583.260L285.645 600L291.885 600L291.885 592.830L293.415 592.830L293.415 600ZM312.015 600C314.085 600 315.135 599.220 315.135 597.630L315.135 590.700L308.895 590.700L308.895 595.170C308.895 595.200 308.865 595.230 308.835 595.230L307.425 595.230C307.395 595.230 307.365 595.200 307.365 595.170L307.365 585.690C307.365 585.660 307.395 585.630 307.425 585.630L308.835 585.630C308.865 585.630 308.895 585.660 308.895 585.690L308.895 588.930L315.135 588.930L315.135 583.260C315.135 581.640 314.085 580.830 312.015 580.830L304.245 580.830C302.175 580.830 301.125 581.640 301.125 583.260L301.125 597.630C301.125 599.220 302.175 600 304.245 600ZM331.275 600L326.805 590.070L331.095 580.830L324.525 580.830L322.665 585.720L322.665 580.830L316.635 580.830L316.635 600L322.665 600L322.665 594.870L324.705 600ZM342.825 600C344.895 600 345.945 599.220 345.945 597.630L345.945 590.400C345.945 588.810 344.895 588.030 342.825 588.030L338.235 588.030C338.205 588.030 338.175 588 338.175 587.970L338.175 585.690C338.175 585.660 338.205 585.630 338.235 585.630L339.645 585.630C339.675 585.630 339.705 585.660 339.705 585.690L339.705 586.800L345.945 586.800L345.945 583.260C345.945 581.640 344.895 580.830 342.825 580.830L335.055 580.830C332.985 580.830 331.935 581.640 331.935 583.260L331.935 590.400C331.935 592.020 332.985 592.830 335.055 592.830L339.645 592.830C339.675 592.830 339.705 592.860 339.705 592.890L339.705 595.170C339.705 595.200 339.675 595.230 339.645 595.230L338.235 595.230C338.205 595.230 338.175 595.200 338.175 595.170L338.175 594.030L331.935 594.030L331.935 597.630C331.935 599.220 332.985 600 335.055 600Z" fill="#E8935A"/><text x="366.945" y="600" text-anchor="middle" font-family="Arial, sans-serif" font-size="30" fill="#808080">·</text><path d="M395.715 588.450C395.715 588.480 395.685 588.510 395.655 588.510L394.185 588.510L394.185 585.630L395.655 585.630C395.685 585.630 395.715 585.660 395.715 585.690ZM398.835 600C400.905 600 401.955 599.220 401.955 597.630L401.955 591.990C401.955 591.060 401.445 590.550 400.395 590.400C401.415 590.280 401.925 589.770 401.925 588.840L401.925 583.260C401.925 581.640 400.905 580.830 398.835 580.830L387.945 580.830L387.945 600ZM395.715 595.170C395.715 595.200 395.685 595.230 395.655 595.230L394.185 595.230L394.185 592.320L395.655 592.320C395.685 592.320 395.715 592.350 395.715 592.380ZM411.195 595.170C411.195 595.200 411.165 595.230 411.135 595.230L409.725 595.230C409.695 595.230 409.665 595.200 409.665 595.170L409.665 585.690C409.665 585.660 409.695 585.630 409.725 585.630L411.135 585.630C411.165 585.630 411.195 585.660 411.195 585.690ZM414.315 600C416.385 600 417.435 599.220 417.435 597.630L417.435 583.260C417.435 581.640 416.385 580.830 414.315 580.830L406.545 580.830C404.475 580.830 403.425 581.640 403.425 583.260L403.425 597.630C403.425 599.220 404.475 600 406.545 600ZM425.175 600L425.175 580.830L418.935 580.830L418.935 600ZM437.565 600C439.635 600 440.685 599.220 440.685 597.630L440.685 590.400C440.685 588.810 439.635 588.030 437.565 588.030L432.975 588.030C432.945 588.030 432.915 588 432.915 587.970L432.915 585.690C432.915 585.660 432.945 585.630 432.975 585.630L434.385 585.630C434.415 585.630 434.445 585.660 434.445 585.690L434.445 586.800L440.685 586.800L440.685 583.260C440.685 581.640 439.635 580.830 437.565 580.830L429.795 580.830C427.725 580.830 426.675 581.640 426.675 583.260L426.675 590.400C426.675 592.020 427.725 592.830 429.795 592.830L434.385 592.830C434.415 592.830 434.445 592.860 434.445 592.890L434.445 595.170C434.445 595.200 434.415 595.230 434.385 595.230L432.975 595.230C432.945 595.230 432.915 595.200 432.915 595.170L432.915 594.030L426.675 594.030L426.675 597.630C426.675 599.220 427.725 600 429.795 600ZM453.015 600C455.085 600 456.135 599.220 456.135 597.630L456.135 590.400C456.135 588.810 455.085 588.030 453.015 588.030L448.425 588.030C448.395 588.030 448.365 588 448.365 587.970L448.365 585.690C448.365 585.660 448.395 585.630 448.425 585.630L449.835 585.630C449.865 585.630 449.895 585.660 449.895 585.690L449.895 586.800L456.135 586.800L456.135 583.260C456.135 581.640 455.085 580.830 453.015 580.830L445.245 580.830C443.175 580.830 442.125 581.640 442.125 583.260L442.125 590.400C442.125 592.020 443.175 592.830 445.245 592.830L449.835 592.830C449.865 592.830 449.895 592.860 449.895 592.890L449.895 595.170C449.895 595.200 449.865 595.230 449.835 595.230L448.425 595.230C448.395 595.230 448.365 595.200 448.365 595.170L448.365 594.030L442.125 594.030L442.125 597.630C442.125 599.220 443.175 600 445.245 600ZM465.345 595.170C465.345 595.200 465.315 595.230 465.285 595.230L463.875 595.230C463.845 595.230 463.815 595.200 463.815 595.170L463.815 585.690C463.815 585.660 463.845 585.630 463.875 585.630L465.285 585.630C465.315 585.630 465.345 585.660 465.345 585.690ZM468.465 600C470.535 600 471.585 599.220 471.585 597.630L471.585 583.260C471.585 581.640 470.535 580.830 468.465 580.830L460.695 580.830C458.625 580.830 457.575 581.640 457.575 583.260L457.575 597.630C457.575 599.220 458.625 600 460.695 600ZM487.095 600L487.095 583.260C487.095 581.640 486.045 580.830 483.975 580.830C481.935 580.830 480.375 581.250 479.325 582.060L479.325 580.830L473.085 580.830L473.085 600L479.325 600L479.325 585.690C479.325 585.660 479.355 585.630 479.385 585.630L480.795 585.630C480.825 585.630 480.855 585.660 480.855 585.690L480.855 600ZM499.455 600C501.525 600 502.575 599.220 502.575 597.630L502.575 590.400C502.575 588.810 501.525 588.030 499.455 588.030L494.865 588.030C494.835 588.030 494.805 588 494.805 587.970L494.805 585.690C494.805 585.660 494.835 585.630 494.865 585.630L496.275 585.630C496.305 585.630 496.335 585.660 496.335 585.690L496.335 586.800L502.575 586.800L502.575 583.260C502.575 581.640 501.525 580.830 499.455 580.830L491.685 580.830C489.615 580.830 488.565 581.640 488.565 583.260L488.565 590.400C488.565 592.020 489.615 592.830 491.685 592.830L496.275 592.830C496.305 592.830 496.335 592.860 496.335 592.890L496.335 595.170C496.335 595.200 496.305 595.230 496.275 595.230L494.865 595.230C494.835 595.230 494.805 595.200 494.805 595.170L494.805 594.030L488.565 594.030L488.565 597.630C488.565 599.220 489.615 600 491.685 600Z" fill="#66BB6A"/><text x="523.575" y="600" text-anchor="middle" font-family="Arial, sans-serif" font-size="30" fill="#808080">·</text><path d="M552.345 588.240C552.345 588.270 552.315 588.300 552.285 588.300L550.815 588.300L550.815 585.630L552.285 585.630C552.315 585.630 552.345 585.660 552.345 585.690ZM550.815 600L550.815 592.830L555.465 592.830C557.535 592.830 558.585 592.020 558.585 590.400L558.585 583.260C558.585 581.640 557.535 580.830 555.465 580.830L544.575 580.830L544.575 600ZM570.675 600C572.745 600 573.795 599.220 573.795 597.630L573.795 580.830L567.555 580.830L567.555 595.170C567.555 595.200 567.525 595.230 567.495 595.230L566.085 595.230C566.055 595.230 566.025 595.200 566.025 595.170L566.025 580.830L559.785 580.830L559.785 597.630C559.785 599.220 560.835 600 562.905 600ZM581.535 600L581.535 591.600L586.935 591.600L586.935 586.800L581.535 586.800L581.535 585.690C581.535 585.660 581.565 585.630 581.595 585.630L586.995 585.630L586.995 580.830L578.415 580.830C576.345 580.830 575.295 581.670 575.295 583.260L575.295 600ZM594.435 600L594.435 591.600L599.835 591.600L599.835 586.800L594.435 586.800L594.435 585.690C594.435 585.660 594.465 585.630 594.495 585.630L599.895 585.630L599.895 580.830L591.315 580.830C589.245 580.830 588.195 581.670 588.195 583.260L588.195 600ZM622.875 600L622.875 595.230L620.925 595.230L620.925 592.650L622.875 592.650L622.875 588.210L614.025 588.210C613.995 588.210 613.965 588.180 613.965 588.150L613.965 585.690C613.965 585.660 613.995 585.630 614.025 585.630L615.435 585.630C615.465 585.630 615.495 585.660 615.495 585.690L615.495 586.200L620.925 586.200L620.925 583.260C620.925 581.640 619.875 580.830 617.805 580.830L610.845 580.830C608.775 580.830 607.725 581.640 607.725 583.260L607.725 588.900C607.725 589.770 608.235 590.280 609.285 590.400C608.235 590.610 607.725 591.120 607.725 591.930L607.725 597.630C607.725 599.220 608.775 600 610.845 600ZM615.495 595.230L614.025 595.230C613.995 595.230 613.965 595.200 613.965 595.170L613.965 592.710C613.965 592.680 613.995 592.650 614.025 592.650L615.495 592.650ZM641.445 600C643.515 600 644.565 599.220 644.565 597.630L644.565 590.700L638.325 590.700L638.325 595.170C638.325 595.200 638.295 595.230 638.265 595.230L636.855 595.230C636.825 595.230 636.795 595.200 636.795 595.170L636.795 585.690C636.795 585.660 636.825 585.630 636.855 585.630L638.265 585.630C638.295 585.630 638.325 585.660 638.325 585.690L638.325 588.930L644.565 588.930L644.565 583.260C644.565 581.640 643.515 580.830 641.445 580.830L633.675 580.830C631.605 580.830 630.555 581.640 630.555 583.260L630.555 597.630C630.555 599.220 631.605 600 633.675 600ZM653.835 588.450C653.835 588.480 653.805 588.510 653.775 588.510L652.305 588.510L652.305 585.630L653.775 585.630C653.805 585.630 653.835 585.660 653.835 585.690ZM656.955 600C659.025 600 660.075 599.220 660.075 597.630L660.075 591.990C660.075 591.060 659.565 590.550 658.515 590.400C659.535 590.280 660.045 589.770 660.045 588.840L660.045 583.260C660.045 581.640 659.025 580.830 656.955 580.830L646.065 580.830L646.065 600ZM653.835 595.170C653.835 595.200 653.805 595.230 653.775 595.230L652.305 595.230L652.305 592.320L653.775 592.320C653.805 592.320 653.835 592.350 653.835 592.380ZM669.375 595.170C669.375 595.200 669.345 595.230 669.315 595.230L667.845 595.230L667.845 585.630L669.315 585.630C669.345 585.630 669.375 585.660 669.375 585.690ZM672.495 600C674.565 600 675.615 599.220 675.615 597.630L675.615 583.260C675.615 581.640 674.565 580.830 672.495 580.830L661.605 580.830L661.605 600Z" fill="#D4849A"/><text x="696.615" y="600" text-anchor="middle" font-family="Arial, sans-serif" font-size="30" fill="#808080">·</text><path d="M723.855 600L723.855 580.830L717.615 580.830L717.615 600ZM747.195 600L747.195 583.500C747.195 581.940 745.515 580.830 743.355 580.830C741.405 580.830 740.055 581.100 739.125 582.270C738.435 581.310 737.535 580.830 735.705 580.830C733.905 580.830 732.405 581.250 731.655 582.060L731.655 580.830L725.415 580.830L725.415 600L731.655 600L731.655 585.690C731.655 585.660 731.685 585.630 731.715 585.630L733.125 585.630C733.155 585.630 733.185 585.660 733.185 585.690L733.185 600L739.425 600L739.425 585.690C739.425 585.660 739.455 585.630 739.485 585.630L740.955 585.630C740.985 585.630 741.015 585.660 741.015 585.690L741.015 600ZM756.495 588.240C756.495 588.270 756.465 588.300 756.435 588.300L754.965 588.300L754.965 585.630L756.435 585.630C756.465 585.630 756.495 585.660 756.495 585.690ZM754.965 600L754.965 592.830L759.615 592.830C761.685 592.830 762.735 592.020 762.735 590.400L762.735 583.260C762.735 581.640 761.685 580.830 759.615 580.830L748.725 580.830L748.725 600ZM771.675 595.170C771.675 595.200 771.645 595.230 771.615 595.230L770.205 595.230C770.175 595.230 770.145 595.200 770.145 595.170L770.145 585.690C770.145 585.660 770.175 585.630 770.205 585.630L771.615 585.630C771.645 585.630 771.675 585.660 771.675 585.690ZM774.795 600C776.865 600 777.915 599.220 777.915 597.630L777.915 583.260C777.915 581.640 776.865 580.830 774.795 580.830L767.025 580.830C764.955 580.830 763.905 581.640 763.905 583.260L763.905 597.630C763.905 599.220 764.955 600 767.025 600ZM793.425 600L793.425 591.990C793.425 591.060 792.915 590.550 791.865 590.400C792.885 590.280 793.395 589.770 793.395 588.840L793.395 583.260C793.395 581.640 792.375 580.830 790.305 580.830L779.415 580.830L779.415 600L785.655 600L785.655 592.320L787.125 592.320C787.155 592.320 787.185 592.350 787.185 592.380L787.185 600ZM787.185 588.450C787.185 588.480 787.155 588.510 787.125 588.510L785.655 588.510L785.655 585.630L787.125 585.630C787.155 585.630 787.185 585.660 787.185 585.690ZM806.775 600C808.845 600 809.895 599.220 809.895 597.630L809.895 588.030L803.685 588.030L803.685 595.170C803.685 595.200 803.655 595.230 803.625 595.230L802.185 595.230C802.155 595.230 802.125 595.200 802.125 595.170L802.125 586.800L809.895 586.800L809.895 582.060L802.125 582.060L802.125 580.830L795.885 580.830L795.885 582.060L794.355 582.060L794.355 586.800L795.885 586.800L795.885 597.630C795.885 599.220 796.935 600 799.005 600ZM822.255 600C824.325 600 825.375 599.220 825.375 597.630L825.375 590.400C825.375 588.810 824.325 588.030 822.255 588.030L817.665 588.030C817.635 588.030 817.605 588 817.605 587.970L817.605 585.690C817.605 585.660 817.635 585.630 817.665 585.630L819.075 585.630C819.105 585.630 819.135 585.660 819.135 585.690L819.135 586.800L825.375 586.800L825.375 583.260C825.375 581.640 824.325 580.830 822.255 580.830L814.485 580.830C812.415 580.830 811.365 581.640 811.365 583.260L811.365 590.400C811.365 592.020 812.415 592.830 814.485 592.830L819.075 592.830C819.105 592.830 819.135 592.860 819.135 592.890L819.135 595.170C819.135 595.200 819.105 595.230 819.075 595.230L817.665 595.230C817.635 595.230 817.605 595.200 817.605 595.170L817.605 594.030L811.365 594.030L811.365 597.630C811.365 599.220 812.415 600 814.485 600Z" fill="#B388C9"/><path d="M345.278 1410C348.314 1410 349.854 1408.856 349.854 1406.524L349.854 1395.920C349.854 1393.588 348.314 1392.444 345.278 1392.444L338.546 1392.444C338.502 1392.444 338.458 1392.400 338.458 1392.356L338.458 1389.012C338.458 1388.968 338.502 1388.924 338.546 1388.924L340.614 1388.924C340.658 1388.924 340.702 1388.968 340.702 1389.012L340.702 1390.640L349.854 1390.640L349.854 1385.448C349.854 1383.072 348.314 1381.884 345.278 1381.884L333.882 1381.884C330.846 1381.884 329.306 1383.072 329.306 1385.448L329.306 1395.920C329.306 1398.296 330.846 1399.484 333.882 1399.484L340.614 1399.484C340.658 1399.484 340.702 1399.528 340.702 1399.572L340.702 1402.916C340.702 1402.960 340.658 1403.004 340.614 1403.004L338.546 1403.004C338.502 1403.004 338.458 1402.960 338.458 1402.916L338.458 1401.244L329.306 1401.244L329.306 1406.524C329.306 1408.856 330.846 1410 333.882 1410ZM367.938 1410C370.974 1410 372.514 1408.856 372.514 1406.524L372.514 1396.360L363.362 1396.360L363.362 1402.916C363.362 1402.960 363.318 1403.004 363.274 1403.004L361.206 1403.004C361.162 1403.004 361.118 1402.960 361.118 1402.916L361.118 1389.012C361.118 1388.968 361.162 1388.924 361.206 1388.924L363.274 1388.924C363.318 1388.924 363.362 1388.968 363.362 1389.012L363.362 1393.764L372.514 1393.764L372.514 1385.448C372.514 1383.072 370.974 1381.884 367.938 1381.884L356.542 1381.884C353.506 1381.884 351.966 1383.072 351.966 1385.448L351.966 1406.524C351.966 1408.856 353.506 1410 356.542 1410ZM386.066 1392.444L383.822 1392.444L383.822 1389.012C383.822 1388.968 383.866 1388.924 383.910 1388.924L385.978 1388.924C386.022 1388.924 386.066 1388.968 386.066 1389.012ZM395.218 1410L395.218 1385.448C395.218 1383.072 393.678 1381.884 390.642 1381.884L379.246 1381.884C376.210 1381.884 374.670 1383.072 374.670 1385.448L374.670 1410L383.822 1410L383.822 1399.484L386.066 1399.484L386.066 1410ZM418.010 1410L418.010 1385.448C418.010 1383.072 416.470 1381.884 413.434 1381.884C410.442 1381.884 408.154 1382.500 406.614 1383.688L406.614 1381.884L397.462 1381.884L397.462 1410L406.614 1410L406.614 1389.012C406.614 1388.968 406.658 1388.924 406.702 1388.924L408.770 1388.924C408.814 1388.924 408.858 1388.968 408.858 1389.012L408.858 1410ZM441.462 1392.752C441.462 1392.796 441.418 1392.840 441.374 1392.840L439.218 1392.840L439.218 1388.924L441.374 1388.924C441.418 1388.924 441.462 1388.968 441.462 1389.012ZM439.218 1410L439.218 1399.484L446.038 1399.484C449.074 1399.484 450.614 1398.296 450.614 1395.920L450.614 1385.448C450.614 1383.072 449.074 1381.884 446.038 1381.884L430.066 1381.884L430.066 1410ZM463.726 1402.916C463.726 1402.960 463.682 1403.004 463.638 1403.004L461.570 1403.004C461.526 1403.004 461.482 1402.960 461.482 1402.916L461.482 1389.012C461.482 1388.968 461.526 1388.924 461.570 1388.924L463.638 1388.924C463.682 1388.924 463.726 1388.968 463.726 1389.012ZM468.302 1410C471.338 1410 472.878 1408.856 472.878 1406.524L472.878 1385.448C472.878 1383.072 471.338 1381.884 468.302 1381.884L456.906 1381.884C453.870 1381.884 452.330 1383.072 452.330 1385.448L452.330 1406.524C452.330 1408.856 453.870 1410 456.906 1410ZM491.006 1410C494.042 1410 495.582 1408.856 495.582 1406.524L495.582 1381.884L486.430 1381.884L486.430 1402.916C486.430 1402.960 486.386 1403.004 486.342 1403.004L484.274 1403.004C484.230 1403.004 484.186 1402.960 484.186 1402.916L484.186 1381.884L475.034 1381.884L475.034 1406.524C475.034 1408.856 476.574 1410 479.610 1410ZM518.374 1410L518.374 1398.252C518.374 1396.888 517.626 1396.140 516.086 1395.920C517.582 1395.744 518.330 1394.996 518.330 1393.632L518.330 1385.448C518.330 1383.072 516.834 1381.884 513.798 1381.884L497.826 1381.884L497.826 1410L506.978 1410L506.978 1398.736L509.134 1398.736C509.178 1398.736 509.222 1398.780 509.222 1398.824L509.222 1410ZM509.222 1393.060C509.222 1393.104 509.178 1393.148 509.134 1393.148L506.978 1393.148L506.978 1388.924L509.134 1388.924C509.178 1388.924 509.222 1388.968 509.222 1389.012ZM546.314 1410C549.350 1410 550.890 1408.856 550.890 1406.524L550.890 1396.360L541.738 1396.360L541.738 1402.916C541.738 1402.960 541.694 1403.004 541.650 1403.004L539.582 1403.004C539.538 1403.004 539.494 1402.960 539.494 1402.916L539.494 1389.012C539.494 1388.968 539.538 1388.924 539.582 1388.924L541.650 1388.924C541.694 1388.924 541.738 1388.968 541.738 1389.012L541.738 1393.764L550.890 1393.764L550.890 1385.448C550.890 1383.072 549.350 1381.884 546.314 1381.884L534.918 1381.884C531.882 1381.884 530.342 1383.072 530.342 1385.448L530.342 1406.524C530.342 1408.856 531.882 1410 534.918 1410ZM564.398 1402.916C564.398 1402.960 564.354 1403.004 564.310 1403.004L562.242 1403.004C562.198 1403.004 562.154 1402.960 562.154 1402.916L562.154 1389.012C562.154 1388.968 562.198 1388.924 562.242 1388.924L564.310 1388.924C564.354 1388.924 564.398 1388.968 564.398 1389.012ZM568.974 1410C572.010 1410 573.550 1408.856 573.550 1406.524L573.550 1385.448C573.550 1383.072 572.010 1381.884 568.974 1381.884L557.578 1381.884C554.542 1381.884 553.002 1383.072 553.002 1385.448L553.002 1406.524C553.002 1408.856 554.542 1410 557.578 1410ZM607.694 1410L607.694 1385.800C607.694 1383.512 605.230 1381.884 602.062 1381.884C599.202 1381.884 597.222 1382.280 595.858 1383.996C594.846 1382.588 593.526 1381.884 590.842 1381.884C588.202 1381.884 586.002 1382.500 584.902 1383.688L584.902 1381.884L575.750 1381.884L575.750 1410L584.902 1410L584.902 1389.012C584.902 1388.968 584.946 1388.924 584.990 1388.924L587.058 1388.924C587.102 1388.924 587.146 1388.968 587.146 1389.012L587.146 1410L596.298 1410L596.298 1389.012C596.298 1388.968 596.342 1388.924 596.386 1388.924L598.542 1388.924C598.586 1388.924 598.630 1388.968 598.630 1389.012L598.630 1410ZM641.882 1410L641.882 1385.800C641.882 1383.512 639.418 1381.884 636.250 1381.884C633.390 1381.884 631.410 1382.280 630.046 1383.996C629.034 1382.588 627.714 1381.884 625.030 1381.884C622.390 1381.884 620.190 1382.500 619.090 1383.688L619.090 1381.884L609.938 1381.884L609.938 1410L619.090 1410L619.090 1389.012C619.090 1388.968 619.134 1388.924 619.178 1388.924L621.246 1388.924C621.290 1388.924 621.334 1388.968 621.334 1389.012L621.334 1410L630.486 1410L630.486 1389.012C630.486 1388.968 630.530 1388.924 630.574 1388.924L632.730 1388.924C632.774 1388.924 632.818 1388.968 632.818 1389.012L632.818 1410ZM655.478 1392.444L653.234 1392.444L653.234 1389.012C653.234 1388.968 653.278 1388.924 653.322 1388.924L655.390 1388.924C655.434 1388.924 655.478 1388.968 655.478 1389.012ZM664.630 1410L664.630 1385.448C664.630 1383.072 663.090 1381.884 660.054 1381.884L648.658 1381.884C645.622 1381.884 644.082 1383.072 644.082 1385.448L644.082 1410L653.234 1410L653.234 1399.484L655.478 1399.484L655.478 1410ZM687.422 1410L687.422 1385.448C687.422 1383.072 685.882 1381.884 682.846 1381.884C679.854 1381.884 677.566 1382.500 676.026 1383.688L676.026 1381.884L666.874 1381.884L666.874 1410L676.026 1410L676.026 1389.012C676.026 1388.968 676.070 1388.924 676.114 1388.924L678.182 1388.924C678.226 1388.924 678.270 1388.968 678.270 1389.012L678.270 1410ZM701.062 1402.916C701.062 1402.960 701.018 1403.004 700.974 1403.004L698.818 1403.004L698.818 1388.924L700.974 1388.924C701.018 1388.924 701.062 1388.968 701.062 1389.012ZM705.638 1410C708.674 1410 710.214 1408.856 710.214 1406.524L710.214 1385.448C710.214 1383.072 708.674 1381.884 705.638 1381.884L689.666 1381.884L689.666 1410ZM727.946 1410L727.946 1403.004L721.566 1403.004L721.566 1399.484L727.814 1399.484L727.814 1392.444L721.566 1392.444L721.566 1388.924L727.902 1388.924L727.902 1381.884L712.414 1381.884L712.414 1410ZM750.694 1410L750.694 1398.252C750.694 1396.888 749.946 1396.140 748.406 1395.920C749.902 1395.744 750.650 1394.996 750.650 1393.632L750.650 1385.448C750.650 1383.072 749.154 1381.884 746.118 1381.884L730.146 1381.884L730.146 1410L739.298 1410L739.298 1398.736L741.454 1398.736C741.498 1398.736 741.542 1398.780 741.542 1398.824L741.542 1410ZM741.542 1393.060C741.542 1393.104 741.498 1393.148 741.454 1393.148L739.298 1393.148L739.298 1388.924L741.454 1388.924C741.498 1388.924 741.542 1388.968 741.542 1389.012Z" fill="#66BB6A"/><text x="540" y="1460" text-anchor="middle"
          font-family="Consolas, Menlo, 'Courier New', monospace"
          font-size="22" font-weight="700" letter-spacing="3"
          fill="#F5F5F5">14 RUE LEVEILLÉ · 02600 VILLERS-COTTERÊTS</text><text x="540" y="1501.8" text-anchor="middle"
          font-family="Consolas, Menlo, 'Courier New', monospace"
          font-size="22" font-weight="700" letter-spacing="3"
          fill="#B3B3B3">18:00–02:00 · 7J/7 · LIVRAISON</text><text x="540" y="1543.6" text-anchor="middle"
          font-family="Consolas, Menlo, 'Courier New', monospace"
          font-size="22" font-weight="700" letter-spacing="3"
          fill="#66BB6A">@VYRA_NIGHTSHOP</text><svg x="0" y="1490" width="1080" height="130"
    viewBox="0 0 1440 200" preserveAspectRatio="xMidYEnd slice">
    <defs>
      <linearGradient id="skyline-fade" x1="0" y1="0" x2="0" y2="1">
        <stop offset="0%" stop-color="#050505" stop-opacity="0"/>
        <stop offset="100%" stop-color="#050505" stop-opacity="0.8"/>
      </linearGradient>
    </defs>
    <g fill="#141414"><rect x="0" y="130" width="60" height="70"/><rect x="60" y="100" width="80" height="100"/><rect x="140" y="120" width="50" height="80"/><rect x="190" y="80" width="95" height="120"/><rect x="285" y="110" width="60" height="90"/><rect x="345" y="70" width="110" height="130"/><rect x="455" y="95" width="75" height="105"/><rect x="530" y="55" width="130" height="145"/><rect x="660" y="85" width="70" height="115"/><rect x="730" y="110" width="50" height="90"/><rect x="780" y="65" width="120" height="135"/><rect x="900" y="100" width="80" height="100"/><rect x="980" y="75" width="100" height="125"/><rect x="1080" y="115" width="55" height="85"/><rect x="1135" y="90" width="85" height="110"/><rect x="1220" y="105" width="70" height="95"/><rect x="1290" y="130" width="55" height="70"/><rect x="1345" y="95" width="95" height="105"/></g>
    <g fill="#E8935A" opacity="0.75"><rect x="70" y="115" width="6" height="6"/><rect x="82" y="115" width="6" height="6"/><rect x="200" y="100" width="5" height="5"/><rect x="215" y="100" width="5" height="5"/><rect x="260" y="120" width="5" height="5"/><rect x="360" y="90" width="6" height="6"/><rect x="380" y="90" width="6" height="6"/><rect x="400" y="110" width="6" height="6"/><rect x="550" y="75" width="7" height="7"/><rect x="580" y="75" width="7" height="7"/><rect x="610" y="95" width="7" height="7"/><rect x="800" y="85" width="6" height="6"/><rect x="830" y="85" width="6" height="6"/><rect x="860" y="105" width="6" height="6"/><rect x="1000" y="95" width="6" height="6"/><rect x="1030" y="95" width="6" height="6"/><rect x="1160" y="110" width="5" height="5"/><rect x="1370" y="115" width="6" height="6"/><rect x="1400" y="115" width="6" height="6"/></g>
    <g fill="#F5F5F5" opacity="0.35"><rect x="75" y="135" width="4" height="4"/><rect x="210" y="130" width="4" height="4"/><rect x="395" y="130" width="5" height="5"/><rect x="570" y="110" width="5" height="5"/><rect x="815" y="120" width="4" height="4"/><rect x="1020" y="130" width="4" height="4"/><rect x="1380" y="140" width="4" height="4"/></g>
    <rect x="205" y="90" width="38" height="8" fill="#66BB6A"/><rect x="560" y="68" width="55" height="10" fill="#E8935A"/><rect x="810" y="78" width="48" height="9" fill="#9B6BB0"/><rect x="1005" y="88" width="42" height="8" fill="#D4849A"/><rect x="1370" y="107" width="40" height="7" fill="#66BB6A"/>
    <rect x="0" y="0" width="1440" height="200" fill="url(#skyline-fade)"/>
  </svg><g id="marquee-strip">
    <rect x="0" y="1620" width="1080" height="54" fill="#E8935A"/>
    <rect x="0" y="1620" width="1080" height="3" fill="#050505"/>
    <rect x="0" y="1671" width="1080" height="3" fill="#050505"/>
    <text x="540" y="1653.12" text-anchor="middle"
          font-family="Arial Black, Arial, sans-serif"
          font-size="18" font-weight="900"
          letter-spacing="2"><tspan dx="0" fill="#0A0A0A">OUVERT 7J/7</tspan><tspan dx="32" fill="#A15F2E">✦</tspan><tspan dx="32" fill="#0A0A0A">LIVRAISON V-C</tspan><tspan dx="32" fill="#A15F2E">✦</tspan><tspan dx="32" fill="#0A0A0A">SNACKS US/JP</tspan><tspan dx="32" fill="#A15F2E">✦</tspan><tspan dx="32" fill="#0A0A0A">CBD PREMIUM</tspan></text>
  </g><g id="frame-corners">
    <rect x="40" y="230" width="56" height="3" fill="#66BB6A"/>
    <rect x="40" y="230" width="3" height="56" fill="#66BB6A"/>
    <rect x="984" y="230" width="56" height="3" fill="#66BB6A"/>
    <rect x="1037" y="230" width="3" height="56" fill="#66BB6A"/>
    <rect x="40" y="1607" width="56" height="3" fill="#66BB6A"/>
    <rect x="40" y="1554" width="3" height="56" fill="#66BB6A"/>
    <rect x="984" y="1607" width="56" height="3" fill="#66BB6A"/>
    <rect x="1037" y="1554" width="3" height="56" fill="#66BB6A"/></g><rect x="0" y="0" width="1080" height="1920" fill="url(#story-grain)" opacity="0.035"/></svg>