<?xml version="1.0" encoding="UTF-8"?><svg xmlns="http://www.w3.org/2000/svg" xmlns:xlink="http://www.w3.org/1999/xlink" width="1200" height="1400" viewBox="0 0 1200 1400"><defs>
    <filter id="qr-soft-halo" x="-20%" y="-20%" width="140%" height="140%">
      <feGaussianBlur stdDeviation="12"/>
    </filter>
    <filter id="qr-badge-halo" x="-50%" y="-50%" width="200%" height="200%">
      <feGaussianBlur stdDeviation="6"/>
    </filter>
    <filter id="qr-noise">
      <feTurbulence type="fractalNoise" baseFrequency="0.9" numOctaves="2" stitchTiles="stitch"/>
      <feColorMatrix type="matrix" values="0 0 0 0 1  0 0 0 0 1  0 0 0 0 1  0 0 0 0.5 0"/>
    </filter>
    <pattern id="qr-grain" x="0" y="0" width="200" height="200" patternUnits="userSpaceOnUse">
      <rect width="200" height="200" filter="url(#qr-noise)"/>
    </pattern>
    <radialGradient id="frame-bg" cx="50%" cy="50%" r="75%">
      <stop offset="0%" stop-color="#0A0A0A"/>
      <stop offset="100%" stop-color="#050505"/>
    </radialGradient></defs><rect x="0" y="0" width="1200" height="1400" fill="url(#frame-bg)"/><rect x="64" y="168"
    width="1072" height="1072" rx="16"
    fill="#66BB6A" opacity="0.18" filter="url(#qr-soft-halo)"/><g transform="translate(88, 192)"><defs><clipPath id="clip-path-background-color-0"><rect x="0" y="0" width="1024" height="1024"/></clipPath><clipPath id="clip-path-dot-color-0"><circle cx="302" cy="32" r="15" transform="rotate(0,302,32)"/><circle cx="332" cy="32" r="15" transform="rotate(0,332,32)"/><circle cx="452" cy="32" r="15" transform="rotate(0,452,32)"/><circle cx="482" cy="32" r="15" transform="rotate(0,482,32)"/><circle cx="542" cy="32" r="15" transform="rotate(0,542,32)"/><circle cx="572" cy="32" r="15" transform="rotate(0,572,32)"/><circle cx="602" cy="32" r="15" transform="rotate(0,602,32)"/><circle cx="632" cy="32" r="15" transform="rotate(0,632,32)"/><circle cx="722" cy="32" r="15" transform="rotate(0,722,32)"/><circle cx="752" cy="32" r="15" transform="rotate(0,752,32)"/><circle cx="302" cy="62" r="15" transform="rotate(0,302,62)"/><circle cx="332" cy="62" r="15" transform="rotate(0,332,62)"/><circle cx="392" cy="62" r="15" transform="rotate(0,392,62)"/><circle cx="452" cy="62" r="15" transform="rotate(0,452,62)"/><circle cx="482" cy="62" r="15" transform="rotate(0,482,62)"/><circle cx="512" cy="62" r="15" transform="rotate(0,512,62)"/><circle cx="542" cy="62" r="15" transform="rotate(0,542,62)"/><circle cx="632" cy="62" r="15" transform="rotate(0,632,62)"/><circle cx="722" cy="62" r="15" transform="rotate(0,722,62)"/><circle cx="332" cy="92" r="15" transform="rotate(0,332,92)"/><circle cx="362" cy="92" r="15" transform="rotate(0,362,92)"/><circle cx="452" cy="92" r="15" transform="rotate(0,452,92)"/><circle cx="482" cy="92" r="15" transform="rotate(0,482,92)"/><circle cx="572" cy="92" r="15" transform="rotate(0,572,92)"/><circle cx="602" cy="92" r="15" transform="rotate(0,602,92)"/><circle cx="722" cy="92" r="15" transform="rotate(0,722,92)"/><circle cx="422" cy="122" r="15" transform="rotate(0,422,122)"/><circle cx="452" cy="122" r="15" transform="rotate(0,452,122)"/><circle cx="512" cy="122" r="15" transform="rotate(0,512,122)"/><circle cx="572" cy="122" r="15" transform="rotate(0,572,122)"/><circle cx="632" cy="122" r="15" transform="rotate(0,632,122)"/><circle cx="692" cy="122" r="15" transform="rotate(0,692,122)"/><circle cx="722" cy="122" r="15" transform="rotate(0,722,122)"/><circle cx="272" cy="152" r="15" transform="rotate(0,272,152)"/><circle cx="302" cy="152" r="15" transform="rotate(0,302,152)"/><circle cx="332" cy="152" r="15" transform="rotate(0,332,152)"/><circle cx="362" cy="152" r="15" transform="rotate(0,362,152)"/><circle cx="452" cy="152" r="15" transform="rotate(0,452,152)"/><circle cx="512" cy="152" r="15" transform="rotate(0,512,152)"/><circle cx="542" cy="152" r="15" transform="rotate(0,542,152)"/><circle cx="572" cy="152" r="15" transform="rotate(0,572,152)"/><circle cx="662" cy="152" r="15" transform="rotate(0,662,152)"/><circle cx="752" cy="152" r="15" transform="rotate(0,752,152)"/><circle cx="302" cy="182" r="15" transform="rotate(0,302,182)"/><circle cx="332" cy="182" r="15" transform="rotate(0,332,182)"/><circle cx="362" cy="182" r="15" transform="rotate(0,362,182)"/><circle cx="392" cy="182" r="15" transform="rotate(0,392,182)"/><circle cx="452" cy="182" r="15" transform="rotate(0,452,182)"/><circle cx="542" cy="182" r="15" transform="rotate(0,542,182)"/><circle cx="602" cy="182" r="15" transform="rotate(0,602,182)"/><circle cx="632" cy="182" r="15" transform="rotate(0,632,182)"/><circle cx="662" cy="182" r="15" transform="rotate(0,662,182)"/><circle cx="752" cy="182" r="15" transform="rotate(0,752,182)"/><circle cx="272" cy="212" r="15" transform="rotate(0,272,212)"/><circle cx="332" cy="212" r="15" transform="rotate(0,332,212)"/><circle cx="392" cy="212" r="15" transform="rotate(0,392,212)"/><circle cx="452" cy="212" r="15" transform="rotate(0,452,212)"/><circle cx="512" cy="212" r="15" transform="rotate(0,512,212)"/><circle cx="572" cy="212" r="15" transform="rotate(0,572,212)"/><circle cx="632" cy="212" r="15" transform="rotate(0,632,212)"/><circle cx="692" cy="212" r="15" transform="rotate(0,692,212)"/><circle cx="752" cy="212" r="15" transform="rotate(0,752,212)"/><circle cx="272" cy="242" r="15" transform="rotate(0,272,242)"/><circle cx="302" cy="242" r="15" transform="rotate(0,302,242)"/><circle cx="482" cy="242" r="15" transform="rotate(0,482,242)"/><circle cx="542" cy="242" r="15" transform="rotate(0,542,242)"/><circle cx="602" cy="242" r="15" transform="rotate(0,602,242)"/><circle cx="722" cy="242" r="15" transform="rotate(0,722,242)"/><circle cx="92" cy="272" r="15" transform="rotate(0,92,272)"/><circle cx="122" cy="272" r="15" transform="rotate(0,122,272)"/><circle cx="212" cy="272" r="15" transform="rotate(0,212,272)"/><circle cx="242" cy="272" r="15" transform="rotate(0,242,272)"/><circle cx="272" cy="272" r="15" transform="rotate(0,272,272)"/><circle cx="542" cy="272" r="15" transform="rotate(0,542,272)"/><circle cx="572" cy="272" r="15" transform="rotate(0,572,272)"/><circle cx="602" cy="272" r="15" transform="rotate(0,602,272)"/><circle cx="632" cy="272" r="15" transform="rotate(0,632,272)"/><circle cx="662" cy="272" r="15" transform="rotate(0,662,272)"/><circle cx="782" cy="272" r="15" transform="rotate(0,782,272)"/><circle cx="812" cy="272" r="15" transform="rotate(0,812,272)"/><circle cx="872" cy="272" r="15" transform="rotate(0,872,272)"/><circle cx="62" cy="302" r="15" transform="rotate(0,62,302)"/><circle cx="92" cy="302" r="15" transform="rotate(0,92,302)"/><circle cx="122" cy="302" r="15" transform="rotate(0,122,302)"/><circle cx="152" cy="302" r="15" transform="rotate(0,152,302)"/><circle cx="242" cy="302" r="15" transform="rotate(0,242,302)"/><circle cx="272" cy="302" r="15" transform="rotate(0,272,302)"/><circle cx="302" cy="302" r="15" transform="rotate(0,302,302)"/><circle cx="332" cy="302" r="15" transform="rotate(0,332,302)"/><circle cx="362" cy="302" r="15" transform="rotate(0,362,302)"/><circle cx="422" cy="302" r="15" transform="rotate(0,422,302)"/><circle cx="452" cy="302" r="15" transform="rotate(0,452,302)"/><circle cx="482" cy="302" r="15" transform="rotate(0,482,302)"/><circle cx="572" cy="302" r="15" transform="rotate(0,572,302)"/><circle cx="662" cy="302" r="15" transform="rotate(0,662,302)"/><circle cx="692" cy="302" r="15" transform="rotate(0,692,302)"/><circle cx="722" cy="302" r="15" transform="rotate(0,722,302)"/><circle cx="752" cy="302" r="15" transform="rotate(0,752,302)"/><circle cx="782" cy="302" r="15" transform="rotate(0,782,302)"/><circle cx="812" cy="302" r="15" transform="rotate(0,812,302)"/><circle cx="902" cy="302" r="15" transform="rotate(0,902,302)"/><circle cx="932" cy="302" r="15" transform="rotate(0,932,302)"/><circle cx="962" cy="302" r="15" transform="rotate(0,962,302)"/><circle cx="992" cy="302" r="15" transform="rotate(0,992,302)"/><circle cx="92" cy="332" r="15" transform="rotate(0,92,332)"/><circle cx="152" cy="332" r="15" transform="rotate(0,152,332)"/><circle cx="212" cy="332" r="15" transform="rotate(0,212,332)"/><circle cx="242" cy="332" r="15" transform="rotate(0,242,332)"/><circle cx="272" cy="332" r="15" transform="rotate(0,272,332)"/><circle cx="452" cy="332" r="15" transform="rotate(0,452,332)"/><circle cx="482" cy="332" r="15" transform="rotate(0,482,332)"/><circle cx="512" cy="332" r="15" transform="rotate(0,512,332)"/><circle cx="572" cy="332" r="15" transform="rotate(0,572,332)"/><circle cx="602" cy="332" r="15" transform="rotate(0,602,332)"/><circle cx="632" cy="332" r="15" transform="rotate(0,632,332)"/><circle cx="722" cy="332" r="15" transform="rotate(0,722,332)"/><circle cx="812" cy="332" r="15" transform="rotate(0,812,332)"/><circle cx="902" cy="332" r="15" transform="rotate(0,902,332)"/><circle cx="962" cy="332" r="15" transform="rotate(0,962,332)"/><circle cx="992" cy="332" r="15" transform="rotate(0,992,332)"/><circle cx="92" cy="362" r="15" transform="rotate(0,92,362)"/><circle cx="122" cy="362" r="15" transform="rotate(0,122,362)"/><circle cx="272" cy="362" r="15" transform="rotate(0,272,362)"/><circle cx="302" cy="362" r="15" transform="rotate(0,302,362)"/><circle cx="332" cy="362" r="15" transform="rotate(0,332,362)"/><circle cx="392" cy="362" r="15" transform="rotate(0,392,362)"/><circle cx="542" cy="362" r="15" transform="rotate(0,542,362)"/><circle cx="572" cy="362" r="15" transform="rotate(0,572,362)"/><circle cx="602" cy="362" r="15" transform="rotate(0,602,362)"/><circle cx="692" cy="362" r="15" transform="rotate(0,692,362)"/><circle cx="842" cy="362" r="15" transform="rotate(0,842,362)"/><circle cx="872" cy="362" r="15" transform="rotate(0,872,362)"/><circle cx="962" cy="362" r="15" transform="rotate(0,962,362)"/><circle cx="992" cy="362" r="15" transform="rotate(0,992,362)"/><circle cx="92" cy="392" r="15" transform="rotate(0,92,392)"/><circle cx="182" cy="392" r="15" transform="rotate(0,182,392)"/><circle cx="212" cy="392" r="15" transform="rotate(0,212,392)"/><circle cx="272" cy="392" r="15" transform="rotate(0,272,392)"/><circle cx="332" cy="392" r="15" transform="rotate(0,332,392)"/><circle cx="422" cy="392" r="15" transform="rotate(0,422,392)"/><circle cx="452" cy="392" r="15" transform="rotate(0,452,392)"/><circle cx="512" cy="392" r="15" transform="rotate(0,512,392)"/><circle cx="542" cy="392" r="15" transform="rotate(0,542,392)"/><circle cx="632" cy="392" r="15" transform="rotate(0,632,392)"/><circle cx="692" cy="392" r="15" transform="rotate(0,692,392)"/><circle cx="752" cy="392" r="15" transform="rotate(0,752,392)"/><circle cx="842" cy="392" r="15" transform="rotate(0,842,392)"/><circle cx="872" cy="392" r="15" transform="rotate(0,872,392)"/><circle cx="962" cy="392" r="15" transform="rotate(0,962,392)"/><circle cx="32" cy="422" r="15" transform="rotate(0,32,422)"/><circle cx="62" cy="422" r="15" transform="rotate(0,62,422)"/><circle cx="92" cy="422" r="15" transform="rotate(0,92,422)"/><circle cx="152" cy="422" r="15" transform="rotate(0,152,422)"/><circle cx="182" cy="422" r="15" transform="rotate(0,182,422)"/><circle cx="242" cy="422" r="15" transform="rotate(0,242,422)"/><circle cx="272" cy="422" r="15" transform="rotate(0,272,422)"/><circle cx="302" cy="422" r="15" transform="rotate(0,302,422)"/><circle cx="392" cy="422" r="15" transform="rotate(0,392,422)"/><circle cx="452" cy="422" r="15" transform="rotate(0,452,422)"/><circle cx="482" cy="422" r="15" transform="rotate(0,482,422)"/><circle cx="542" cy="422" r="15" transform="rotate(0,542,422)"/><circle cx="602" cy="422" r="15" transform="rotate(0,602,422)"/><circle cx="662" cy="422" r="15" transform="rotate(0,662,422)"/><circle cx="692" cy="422" r="15" transform="rotate(0,692,422)"/><circle cx="752" cy="422" r="15" transform="rotate(0,752,422)"/><circle cx="842" cy="422" r="15" transform="rotate(0,842,422)"/><circle cx="902" cy="422" r="15" transform="rotate(0,902,422)"/><circle cx="32" cy="452" r="15" transform="rotate(0,32,452)"/><circle cx="122" cy="452" r="15" transform="rotate(0,122,452)"/><circle cx="152" cy="452" r="15" transform="rotate(0,152,452)"/><circle cx="182" cy="452" r="15" transform="rotate(0,182,452)"/><circle cx="212" cy="452" r="15" transform="rotate(0,212,452)"/><circle cx="272" cy="452" r="15" transform="rotate(0,272,452)"/><circle cx="302" cy="452" r="15" transform="rotate(0,302,452)"/><circle cx="422" cy="452" r="15" transform="rotate(0,422,452)"/><circle cx="482" cy="452" r="15" transform="rotate(0,482,452)"/><circle cx="512" cy="452" r="15" transform="rotate(0,512,452)"/><circle cx="572" cy="452" r="15" transform="rotate(0,572,452)"/><circle cx="602" cy="452" r="15" transform="rotate(0,602,452)"/><circle cx="632" cy="452" r="15" transform="rotate(0,632,452)"/><circle cx="662" cy="452" r="15" transform="rotate(0,662,452)"/><circle cx="782" cy="452" r="15" transform="rotate(0,782,452)"/><circle cx="812" cy="452" r="15" transform="rotate(0,812,452)"/><circle cx="842" cy="452" r="15" transform="rotate(0,842,452)"/><circle cx="872" cy="452" r="15" transform="rotate(0,872,452)"/><circle cx="932" cy="452" r="15" transform="rotate(0,932,452)"/><circle cx="152" cy="482" r="15" transform="rotate(0,152,482)"/><circle cx="332" cy="482" r="15" transform="rotate(0,332,482)"/><circle cx="422" cy="482" r="15" transform="rotate(0,422,482)"/><circle cx="482" cy="482" r="15" transform="rotate(0,482,482)"/><circle cx="572" cy="482" r="15" transform="rotate(0,572,482)"/><circle cx="632" cy="482" r="15" transform="rotate(0,632,482)"/><circle cx="662" cy="482" r="15" transform="rotate(0,662,482)"/><circle cx="692" cy="482" r="15" transform="rotate(0,692,482)"/><circle cx="722" cy="482" r="15" transform="rotate(0,722,482)"/><circle cx="902" cy="482" r="15" transform="rotate(0,902,482)"/><circle cx="932" cy="482" r="15" transform="rotate(0,932,482)"/><circle cx="992" cy="482" r="15" transform="rotate(0,992,482)"/><circle cx="32" cy="512" r="15" transform="rotate(0,32,512)"/><circle cx="212" cy="512" r="15" transform="rotate(0,212,512)"/><circle cx="242" cy="512" r="15" transform="rotate(0,242,512)"/><circle cx="272" cy="512" r="15" transform="rotate(0,272,512)"/><circle cx="332" cy="512" r="15" transform="rotate(0,332,512)"/><circle cx="362" cy="512" r="15" transform="rotate(0,362,512)"/><circle cx="422" cy="512" r="15" transform="rotate(0,422,512)"/><circle cx="452" cy="512" r="15" transform="rotate(0,452,512)"/><circle cx="482" cy="512" r="15" transform="rotate(0,482,512)"/><circle cx="512" cy="512" r="15" transform="rotate(0,512,512)"/><circle cx="602" cy="512" r="15" transform="rotate(0,602,512)"/><circle cx="632" cy="512" r="15" transform="rotate(0,632,512)"/><circle cx="662" cy="512" r="15" transform="rotate(0,662,512)"/><circle cx="752" cy="512" r="15" transform="rotate(0,752,512)"/><circle cx="782" cy="512" r="15" transform="rotate(0,782,512)"/><circle cx="812" cy="512" r="15" transform="rotate(0,812,512)"/><circle cx="872" cy="512" r="15" transform="rotate(0,872,512)"/><circle cx="902" cy="512" r="15" transform="rotate(0,902,512)"/><circle cx="932" cy="512" r="15" transform="rotate(0,932,512)"/><circle cx="992" cy="512" r="15" transform="rotate(0,992,512)"/><circle cx="92" cy="542" r="15" transform="rotate(0,92,542)"/><circle cx="122" cy="542" r="15" transform="rotate(0,122,542)"/><circle cx="152" cy="542" r="15" transform="rotate(0,152,542)"/><circle cx="332" cy="542" r="15" transform="rotate(0,332,542)"/><circle cx="362" cy="542" r="15" transform="rotate(0,362,542)"/><circle cx="392" cy="542" r="15" transform="rotate(0,392,542)"/><circle cx="482" cy="542" r="15" transform="rotate(0,482,542)"/><circle cx="512" cy="542" r="15" transform="rotate(0,512,542)"/><circle cx="542" cy="542" r="15" transform="rotate(0,542,542)"/><circle cx="692" cy="542" r="15" transform="rotate(0,692,542)"/><circle cx="722" cy="542" r="15" transform="rotate(0,722,542)"/><circle cx="782" cy="542" r="15" transform="rotate(0,782,542)"/><circle cx="812" cy="542" r="15" transform="rotate(0,812,542)"/><circle cx="842" cy="542" r="15" transform="rotate(0,842,542)"/><circle cx="872" cy="542" r="15" transform="rotate(0,872,542)"/><circle cx="932" cy="542" r="15" transform="rotate(0,932,542)"/><circle cx="992" cy="542" r="15" transform="rotate(0,992,542)"/><circle cx="32" cy="572" r="15" transform="rotate(0,32,572)"/><circle cx="62" cy="572" r="15" transform="rotate(0,62,572)"/><circle cx="92" cy="572" r="15" transform="rotate(0,92,572)"/><circle cx="122" cy="572" r="15" transform="rotate(0,122,572)"/><circle cx="212" cy="572" r="15" transform="rotate(0,212,572)"/><circle cx="242" cy="572" r="15" transform="rotate(0,242,572)"/><circle cx="272" cy="572" r="15" transform="rotate(0,272,572)"/><circle cx="302" cy="572" r="15" transform="rotate(0,302,572)"/><circle cx="362" cy="572" r="15" transform="rotate(0,362,572)"/><circle cx="422" cy="572" r="15" transform="rotate(0,422,572)"/><circle cx="452" cy="572" r="15" transform="rotate(0,452,572)"/><circle cx="512" cy="572" r="15" transform="rotate(0,512,572)"/><circle cx="602" cy="572" r="15" transform="rotate(0,602,572)"/><circle cx="632" cy="572" r="15" transform="rotate(0,632,572)"/><circle cx="692" cy="572" r="15" transform="rotate(0,692,572)"/><circle cx="782" cy="572" r="15" transform="rotate(0,782,572)"/><circle cx="812" cy="572" r="15" transform="rotate(0,812,572)"/><circle cx="872" cy="572" r="15" transform="rotate(0,872,572)"/><circle cx="932" cy="572" r="15" transform="rotate(0,932,572)"/><circle cx="962" cy="572" r="15" transform="rotate(0,962,572)"/><circle cx="62" cy="602" r="15" transform="rotate(0,62,602)"/><circle cx="92" cy="602" r="15" transform="rotate(0,92,602)"/><circle cx="122" cy="602" r="15" transform="rotate(0,122,602)"/><circle cx="152" cy="602" r="15" transform="rotate(0,152,602)"/><circle cx="182" cy="602" r="15" transform="rotate(0,182,602)"/><circle cx="242" cy="602" r="15" transform="rotate(0,242,602)"/><circle cx="362" cy="602" r="15" transform="rotate(0,362,602)"/><circle cx="542" cy="602" r="15" transform="rotate(0,542,602)"/><circle cx="632" cy="602" r="15" transform="rotate(0,632,602)"/><circle cx="692" cy="602" r="15" transform="rotate(0,692,602)"/><circle cx="812" cy="602" r="15" transform="rotate(0,812,602)"/><circle cx="962" cy="602" r="15" transform="rotate(0,962,602)"/><circle cx="992" cy="602" r="15" transform="rotate(0,992,602)"/><circle cx="32" cy="632" r="15" transform="rotate(0,32,632)"/><circle cx="212" cy="632" r="15" transform="rotate(0,212,632)"/><circle cx="272" cy="632" r="15" transform="rotate(0,272,632)"/><circle cx="332" cy="632" r="15" transform="rotate(0,332,632)"/><circle cx="392" cy="632" r="15" transform="rotate(0,392,632)"/><circle cx="422" cy="632" r="15" transform="rotate(0,422,632)"/><circle cx="482" cy="632" r="15" transform="rotate(0,482,632)"/><circle cx="632" cy="632" r="15" transform="rotate(0,632,632)"/><circle cx="662" cy="632" r="15" transform="rotate(0,662,632)"/><circle cx="782" cy="632" r="15" transform="rotate(0,782,632)"/><circle cx="902" cy="632" r="15" transform="rotate(0,902,632)"/><circle cx="932" cy="632" r="15" transform="rotate(0,932,632)"/><circle cx="32" cy="662" r="15" transform="rotate(0,32,662)"/><circle cx="62" cy="662" r="15" transform="rotate(0,62,662)"/><circle cx="92" cy="662" r="15" transform="rotate(0,92,662)"/><circle cx="122" cy="662" r="15" transform="rotate(0,122,662)"/><circle cx="152" cy="662" r="15" transform="rotate(0,152,662)"/><circle cx="182" cy="662" r="15" transform="rotate(0,182,662)"/><circle cx="242" cy="662" r="15" transform="rotate(0,242,662)"/><circle cx="272" cy="662" r="15" transform="rotate(0,272,662)"/><circle cx="362" cy="662" r="15" transform="rotate(0,362,662)"/><circle cx="392" cy="662" r="15" transform="rotate(0,392,662)"/><circle cx="512" cy="662" r="15" transform="rotate(0,512,662)"/><circle cx="542" cy="662" r="15" transform="rotate(0,542,662)"/><circle cx="602" cy="662" r="15" transform="rotate(0,602,662)"/><circle cx="632" cy="662" r="15" transform="rotate(0,632,662)"/><circle cx="662" cy="662" r="15" transform="rotate(0,662,662)"/><circle cx="722" cy="662" r="15" transform="rotate(0,722,662)"/><circle cx="812" cy="662" r="15" transform="rotate(0,812,662)"/><circle cx="962" cy="662" r="15" transform="rotate(0,962,662)"/><circle cx="992" cy="662" r="15" transform="rotate(0,992,662)"/><circle cx="92" cy="692" r="15" transform="rotate(0,92,692)"/><circle cx="122" cy="692" r="15" transform="rotate(0,122,692)"/><circle cx="182" cy="692" r="15" transform="rotate(0,182,692)"/><circle cx="212" cy="692" r="15" transform="rotate(0,212,692)"/><circle cx="332" cy="692" r="15" transform="rotate(0,332,692)"/><circle cx="392" cy="692" r="15" transform="rotate(0,392,692)"/><circle cx="422" cy="692" r="15" transform="rotate(0,422,692)"/><circle cx="512" cy="692" r="15" transform="rotate(0,512,692)"/><circle cx="542" cy="692" r="15" transform="rotate(0,542,692)"/><circle cx="602" cy="692" r="15" transform="rotate(0,602,692)"/><circle cx="662" cy="692" r="15" transform="rotate(0,662,692)"/><circle cx="692" cy="692" r="15" transform="rotate(0,692,692)"/><circle cx="722" cy="692" r="15" transform="rotate(0,722,692)"/><circle cx="812" cy="692" r="15" transform="rotate(0,812,692)"/><circle cx="872" cy="692" r="15" transform="rotate(0,872,692)"/><circle cx="962" cy="692" r="15" transform="rotate(0,962,692)"/><circle cx="992" cy="692" r="15" transform="rotate(0,992,692)"/><circle cx="62" cy="722" r="15" transform="rotate(0,62,722)"/><circle cx="92" cy="722" r="15" transform="rotate(0,92,722)"/><circle cx="152" cy="722" r="15" transform="rotate(0,152,722)"/><circle cx="182" cy="722" r="15" transform="rotate(0,182,722)"/><circle cx="272" cy="722" r="15" transform="rotate(0,272,722)"/><circle cx="302" cy="722" r="15" transform="rotate(0,302,722)"/><circle cx="422" cy="722" r="15" transform="rotate(0,422,722)"/><circle cx="452" cy="722" r="15" transform="rotate(0,452,722)"/><circle cx="482" cy="722" r="15" transform="rotate(0,482,722)"/><circle cx="572" cy="722" r="15" transform="rotate(0,572,722)"/><circle cx="632" cy="722" r="15" transform="rotate(0,632,722)"/><circle cx="692" cy="722" r="15" transform="rotate(0,692,722)"/><circle cx="722" cy="722" r="15" transform="rotate(0,722,722)"/><circle cx="752" cy="722" r="15" transform="rotate(0,752,722)"/><circle cx="782" cy="722" r="15" transform="rotate(0,782,722)"/><circle cx="872" cy="722" r="15" transform="rotate(0,872,722)"/><circle cx="902" cy="722" r="15" transform="rotate(0,902,722)"/><circle cx="962" cy="722" r="15" transform="rotate(0,962,722)"/><circle cx="32" cy="752" r="15" transform="rotate(0,32,752)"/><circle cx="212" cy="752" r="15" transform="rotate(0,212,752)"/><circle cx="242" cy="752" r="15" transform="rotate(0,242,752)"/><circle cx="272" cy="752" r="15" transform="rotate(0,272,752)"/><circle cx="392" cy="752" r="15" transform="rotate(0,392,752)"/><circle cx="452" cy="752" r="15" transform="rotate(0,452,752)"/><circle cx="482" cy="752" r="15" transform="rotate(0,482,752)"/><circle cx="542" cy="752" r="15" transform="rotate(0,542,752)"/><circle cx="602" cy="752" r="15" transform="rotate(0,602,752)"/><circle cx="632" cy="752" r="15" transform="rotate(0,632,752)"/><circle cx="692" cy="752" r="15" transform="rotate(0,692,752)"/><circle cx="722" cy="752" r="15" transform="rotate(0,722,752)"/><circle cx="752" cy="752" r="15" transform="rotate(0,752,752)"/><circle cx="782" cy="752" r="15" transform="rotate(0,782,752)"/><circle cx="812" cy="752" r="15" transform="rotate(0,812,752)"/><circle cx="842" cy="752" r="15" transform="rotate(0,842,752)"/><circle cx="872" cy="752" r="15" transform="rotate(0,872,752)"/><circle cx="902" cy="752" r="15" transform="rotate(0,902,752)"/><circle cx="992" cy="752" r="15" transform="rotate(0,992,752)"/><circle cx="272" cy="782" r="15" transform="rotate(0,272,782)"/><circle cx="332" cy="782" r="15" transform="rotate(0,332,782)"/><circle cx="392" cy="782" r="15" transform="rotate(0,392,782)"/><circle cx="452" cy="782" r="15" transform="rotate(0,452,782)"/><circle cx="542" cy="782" r="15" transform="rotate(0,542,782)"/><circle cx="572" cy="782" r="15" transform="rotate(0,572,782)"/><circle cx="752" cy="782" r="15" transform="rotate(0,752,782)"/><circle cx="872" cy="782" r="15" transform="rotate(0,872,782)"/><circle cx="932" cy="782" r="15" transform="rotate(0,932,782)"/><circle cx="962" cy="782" r="15" transform="rotate(0,962,782)"/><circle cx="272" cy="812" r="15" transform="rotate(0,272,812)"/><circle cx="362" cy="812" r="15" transform="rotate(0,362,812)"/><circle cx="422" cy="812" r="15" transform="rotate(0,422,812)"/><circle cx="542" cy="812" r="15" transform="rotate(0,542,812)"/><circle cx="572" cy="812" r="15" transform="rotate(0,572,812)"/><circle cx="602" cy="812" r="15" transform="rotate(0,602,812)"/><circle cx="692" cy="812" r="15" transform="rotate(0,692,812)"/><circle cx="722" cy="812" r="15" transform="rotate(0,722,812)"/><circle cx="752" cy="812" r="15" transform="rotate(0,752,812)"/><circle cx="812" cy="812" r="15" transform="rotate(0,812,812)"/><circle cx="872" cy="812" r="15" transform="rotate(0,872,812)"/><circle cx="902" cy="812" r="15" transform="rotate(0,902,812)"/><circle cx="302" cy="842" r="15" transform="rotate(0,302,842)"/><circle cx="332" cy="842" r="15" transform="rotate(0,332,842)"/><circle cx="362" cy="842" r="15" transform="rotate(0,362,842)"/><circle cx="512" cy="842" r="15" transform="rotate(0,512,842)"/><circle cx="662" cy="842" r="15" transform="rotate(0,662,842)"/><circle cx="722" cy="842" r="15" transform="rotate(0,722,842)"/><circle cx="752" cy="842" r="15" transform="rotate(0,752,842)"/><circle cx="872" cy="842" r="15" transform="rotate(0,872,842)"/><circle cx="902" cy="842" r="15" transform="rotate(0,902,842)"/><circle cx="932" cy="842" r="15" transform="rotate(0,932,842)"/><circle cx="962" cy="842" r="15" transform="rotate(0,962,842)"/><circle cx="992" cy="842" r="15" transform="rotate(0,992,842)"/><circle cx="392" cy="872" r="15" transform="rotate(0,392,872)"/><circle cx="422" cy="872" r="15" transform="rotate(0,422,872)"/><circle cx="512" cy="872" r="15" transform="rotate(0,512,872)"/><circle cx="542" cy="872" r="15" transform="rotate(0,542,872)"/><circle cx="602" cy="872" r="15" transform="rotate(0,602,872)"/><circle cx="722" cy="872" r="15" transform="rotate(0,722,872)"/><circle cx="752" cy="872" r="15" transform="rotate(0,752,872)"/><circle cx="782" cy="872" r="15" transform="rotate(0,782,872)"/><circle cx="812" cy="872" r="15" transform="rotate(0,812,872)"/><circle cx="842" cy="872" r="15" transform="rotate(0,842,872)"/><circle cx="872" cy="872" r="15" transform="rotate(0,872,872)"/><circle cx="932" cy="872" r="15" transform="rotate(0,932,872)"/><circle cx="962" cy="872" r="15" transform="rotate(0,962,872)"/><circle cx="272" cy="902" r="15" transform="rotate(0,272,902)"/><circle cx="302" cy="902" r="15" transform="rotate(0,302,902)"/><circle cx="332" cy="902" r="15" transform="rotate(0,332,902)"/><circle cx="392" cy="902" r="15" transform="rotate(0,392,902)"/><circle cx="422" cy="902" r="15" transform="rotate(0,422,902)"/><circle cx="452" cy="902" r="15" transform="rotate(0,452,902)"/><circle cx="482" cy="902" r="15" transform="rotate(0,482,902)"/><circle cx="602" cy="902" r="15" transform="rotate(0,602,902)"/><circle cx="632" cy="902" r="15" transform="rotate(0,632,902)"/><circle cx="692" cy="902" r="15" transform="rotate(0,692,902)"/><circle cx="722" cy="902" r="15" transform="rotate(0,722,902)"/><circle cx="752" cy="902" r="15" transform="rotate(0,752,902)"/><circle cx="842" cy="902" r="15" transform="rotate(0,842,902)"/><circle cx="962" cy="902" r="15" transform="rotate(0,962,902)"/><circle cx="992" cy="902" r="15" transform="rotate(0,992,902)"/><circle cx="272" cy="932" r="15" transform="rotate(0,272,932)"/><circle cx="332" cy="932" r="15" transform="rotate(0,332,932)"/><circle cx="362" cy="932" r="15" transform="rotate(0,362,932)"/><circle cx="392" cy="932" r="15" transform="rotate(0,392,932)"/><circle cx="542" cy="932" r="15" transform="rotate(0,542,932)"/><circle cx="602" cy="932" r="15" transform="rotate(0,602,932)"/><circle cx="632" cy="932" r="15" transform="rotate(0,632,932)"/><circle cx="692" cy="932" r="15" transform="rotate(0,692,932)"/><circle cx="722" cy="932" r="15" transform="rotate(0,722,932)"/><circle cx="782" cy="932" r="15" transform="rotate(0,782,932)"/><circle cx="812" cy="932" r="15" transform="rotate(0,812,932)"/><circle cx="902" cy="932" r="15" transform="rotate(0,902,932)"/><circle cx="302" cy="962" r="15" transform="rotate(0,302,962)"/><circle cx="362" cy="962" r="15" transform="rotate(0,362,962)"/><circle cx="392" cy="962" r="15" transform="rotate(0,392,962)"/><circle cx="422" cy="962" r="15" transform="rotate(0,422,962)"/><circle cx="482" cy="962" r="15" transform="rotate(0,482,962)"/><circle cx="542" cy="962" r="15" transform="rotate(0,542,962)"/><circle cx="602" cy="962" r="15" transform="rotate(0,602,962)"/><circle cx="722" cy="962" r="15" transform="rotate(0,722,962)"/><circle cx="752" cy="962" r="15" transform="rotate(0,752,962)"/><circle cx="782" cy="962" r="15" transform="rotate(0,782,962)"/><circle cx="992" cy="962" r="15" transform="rotate(0,992,962)"/><circle cx="302" cy="992" r="15" transform="rotate(0,302,992)"/><circle cx="332" cy="992" r="15" transform="rotate(0,332,992)"/><circle cx="392" cy="992" r="15" transform="rotate(0,392,992)"/><circle cx="452" cy="992" r="15" transform="rotate(0,452,992)"/><circle cx="512" cy="992" r="15" transform="rotate(0,512,992)"/><circle cx="662" cy="992" r="15" transform="rotate(0,662,992)"/><circle cx="722" cy="992" r="15" transform="rotate(0,722,992)"/><circle cx="842" cy="992" r="15" transform="rotate(0,842,992)"/><circle cx="872" cy="992" r="15" transform="rotate(0,872,992)"/><circle cx="932" cy="992" r="15" transform="rotate(0,932,992)"/></clipPath><linearGradient id="dot-color-0" gradientUnits="userSpaceOnUse" x1="512" y1="0" x2="512" y2="1024"><stop offset="0%" stop-color="#66BB6A"/><stop offset="100%" stop-color="#388E3C"/></linearGradient><clipPath id="clip-path-corners-square-color-0-0-0"><path clip-rule="evenodd" d="M 122 17a 105 105 0 1 0 0.1 0zm 0 30a 75 75 0 1 1 -0.1 0Z" transform="rotate(0,122,122)"/></clipPath><linearGradient id="corners-square-color-0-0-0" gradientUnits="userSpaceOnUse" x1="17" y1="17" x2="227" y2="227"><stop offset="0%" stop-color="#81C784"/><stop offset="100%" stop-color="#388E3C"/></linearGradient><clipPath id="clip-path-corners-dot-color-0-0-0"><circle cx="122" cy="122" r="45" transform="rotate(0,122,122)"/></clipPath><clipPath id="clip-path-corners-square-color-1-0-0"><path clip-rule="evenodd" d="M 902 17a 105 105 0 1 0 0.1 0zm 0 30a 75 75 0 1 1 -0.1 0Z" transform="rotate(90,902,122)"/></clipPath><linearGradient id="corners-square-color-1-0-0" gradientUnits="userSpaceOnUse" x1="1007" y1="17" x2="797" y2="227"><stop offset="0%" stop-color="#81C784"/><stop offset="100%" stop-color="#388E3C"/></linearGradient><clipPath id="clip-path-corners-dot-color-1-0-0"><circle cx="902" cy="122" r="45" transform="rotate(90,902,122)"/></clipPath><clipPath id="clip-path-corners-square-color-0-1-0"><path clip-rule="evenodd" d="M 122 797a 105 105 0 1 0 0.1 0zm 0 30a 75 75 0 1 1 -0.1 0Z" transform="rotate(-90,122,902)"/></clipPath><linearGradient id="corners-square-color-0-1-0" gradientUnits="userSpaceOnUse" x1="17" y1="1007" x2="227" y2="797"><stop offset="0%" stop-color="#81C784"/><stop offset="100%" stop-color="#388E3C"/></linearGradient><clipPath id="clip-path-corners-dot-color-0-1-0"><circle cx="122" cy="902" r="45" transform="rotate(-90,122,902)"/></clipPath></defs><rect x="0" y="0" height="1024" width="1024" clip-path="url('#clip-path-background-color-0')" fill="#0A0A0A"/><rect x="0" y="0" height="1024" width="1024" clip-path="url('#clip-path-dot-color-0')" fill="url('#dot-color-0')"/><rect x="17" y="17" height="210" width="210" clip-path="url('#clip-path-corners-square-color-0-0-0')" fill="url('#corners-square-color-0-0-0')"/><rect x="77" y="77" height="90" width="90" clip-path="url('#clip-path-corners-dot-color-0-0-0')" fill="#66BB6A"/><rect x="797" y="17" height="210" width="210" clip-path="url('#clip-path-corners-square-color-1-0-0')" fill="url('#corners-square-color-1-0-0')"/><rect x="857" y="77" height="90" width="90" clip-path="url('#clip-path-corners-dot-color-1-0-0')" fill="#66BB6A"/><rect x="17" y="797" height="210" width="210" clip-path="url('#clip-path-corners-square-color-0-1-0')" fill="url('#corners-square-color-0-1-0')"/><rect x="77" y="857" height="90" width="90" clip-path="url('#clip-path-corners-dot-color-0-1-0')" fill="#66BB6A"/><rect x="309.91999999999996" y="361.12"
    width="404.16" height="301.76"
    fill="#0A0A0A" rx="16"/><rect x="337.91999999999996" y="389.12"
    width="348.16" height="245.76" rx="12"
    fill="none" stroke="#81C784" stroke-width="6" opacity="0.35"
    filter="url(#qr-badge-halo)"/><rect x="337.91999999999996" y="389.12"
    width="348.16" height="245.76" rx="12"
    fill="#0A0A0A" stroke="#66BB6A" stroke-width="2.5"/><rect x="341.91999999999996" y="393.12"
    width="340.16" height="237.76" rx="10"
    fill="#1B3A1B" opacity="0.25"/><g id="vyra-wordmark"><path d="M420.044 551.322L436.043 453.956L405.112 453.956L397.188 512.772L389.113 453.956L356.962 453.956L372.657 551.322ZM491.201 551.322L491.201 516.581C504.153 516.581 510.705 510.029 510.705 496.773L510.705 453.956L479.012 453.956L479.012 493.421C479.012 493.573 478.859 493.725 478.707 493.725L471.545 493.725C471.393 493.725 471.241 493.573 471.241 493.421L471.241 453.956L439.547 453.956L439.547 496.773C439.547 510.029 446.252 516.581 459.508 516.581L459.508 551.322ZM588.262 551.322L588.262 510.638C588.262 505.915 585.671 503.325 580.338 502.563C585.519 501.953 588.109 499.363 588.109 494.640L588.109 466.298C588.109 458.070 582.929 453.956 572.415 453.956L517.104 453.956L517.104 551.322L548.798 551.322L548.798 512.315L556.264 512.315C556.416 512.315 556.569 512.467 556.569 512.619L556.569 551.322ZM556.569 492.659C556.569 492.811 556.416 492.963 556.264 492.963L548.798 492.963L548.798 478.336L556.264 478.336C556.416 478.336 556.569 478.488 556.569 478.641ZM635.344 490.525L627.574 490.525L627.574 478.641C627.574 478.488 627.726 478.336 627.878 478.336L635.040 478.336C635.192 478.336 635.344 478.488 635.344 478.641ZM667.038 551.322L667.038 466.298C667.038 458.070 661.705 453.956 651.191 453.956L611.727 453.956C601.213 453.956 595.880 458.070 595.880 466.298L595.880 551.322L627.574 551.322L627.574 514.905L635.344 514.905L635.344 551.322Z" fill="#F5F5F5"/></g><path d="M439.904 615.219L439.904 593.278C439.904 591.154 438.528 590.093 435.814 590.093C433.141 590.093 431.096 590.643 429.720 591.705L429.720 590.093L421.541 590.093L421.541 615.219L429.720 615.219L429.720 596.463C429.720 596.423 429.759 596.384 429.798 596.384L431.646 596.384C431.686 596.384 431.725 596.423 431.725 596.463L431.725 615.219ZM450.088 615.219L450.088 590.093L441.909 590.093L441.909 615.219ZM470.417 615.219L470.417 599.844L462.239 599.844L462.239 608.967L460.312 608.967C460.272 608.967 460.233 608.928 460.233 608.888L460.233 596.463C460.233 596.423 460.272 596.384 460.312 596.384L462.160 596.384C462.199 596.384 462.239 596.423 462.239 596.463L462.239 597.524L470.417 597.524L470.417 593.278C470.417 591.154 469.041 590.093 466.328 590.093L456.144 590.093C453.430 590.093 452.054 591.154 452.054 593.278L452.054 612.113C452.054 614.197 453.430 615.219 456.144 615.219ZM490.786 615.219L490.786 590.093L482.607 590.093L482.607 599.766L480.602 599.766L480.602 590.093L472.423 590.093L472.423 615.219L480.602 615.219L480.602 605.546L482.607 605.546L482.607 615.219ZM508.323 615.219C511.037 615.219 512.413 614.197 512.413 612.113L512.413 599.530L504.273 599.530L504.273 608.888C504.273 608.928 504.234 608.967 504.195 608.967L502.307 608.967C502.268 608.967 502.229 608.928 502.229 608.888L502.229 597.918L512.413 597.918L512.413 591.705L502.229 591.705L502.229 590.093L494.050 590.093L494.050 591.705L492.044 591.705L492.044 597.918L494.050 597.918L494.050 612.113C494.050 614.197 495.426 615.219 498.139 615.219ZM537.382 615.219C540.095 615.219 541.472 614.197 541.472 612.113L541.472 602.636C541.472 600.552 540.095 599.530 537.382 599.530L531.366 599.530C531.327 599.530 531.287 599.491 531.287 599.451L531.287 596.463C531.287 596.423 531.327 596.384 531.366 596.384L533.214 596.384C533.253 596.384 533.293 596.423 533.293 596.463L533.293 597.918L541.472 597.918L541.472 593.278C541.472 591.154 540.095 590.093 537.382 590.093L527.198 590.093C524.485 590.093 523.108 591.154 523.108 593.278L523.108 602.636C523.108 604.760 524.485 605.821 527.198 605.821L533.214 605.821C533.253 605.821 533.293 605.861 533.293 605.900L533.293 608.888C533.293 608.928 533.253 608.967 533.214 608.967L531.366 608.967C531.327 608.967 531.287 608.928 531.287 608.888L531.287 607.394L523.108 607.394L523.108 612.113C523.108 614.197 524.485 615.219 527.198 615.219ZM561.801 615.219L561.801 590.093L553.622 590.093L553.622 599.766L551.617 599.766L551.617 590.093L543.438 590.093L543.438 615.219L551.617 615.219L551.617 605.546L553.622 605.546L553.622 615.219ZM573.951 608.888C573.951 608.928 573.912 608.967 573.873 608.967L572.024 608.967C571.985 608.967 571.946 608.928 571.946 608.888L571.946 596.463C571.946 596.423 571.985 596.384 572.024 596.384L573.873 596.384C573.912 596.384 573.951 596.423 573.951 596.463ZM578.041 615.219C580.754 615.219 582.130 614.197 582.130 612.113L582.130 593.278C582.130 591.154 580.754 590.093 578.041 590.093L567.856 590.093C565.143 590.093 563.767 591.154 563.767 593.278L563.767 612.113C563.767 614.197 565.143 615.219 567.856 615.219ZM594.280 599.805C594.280 599.844 594.241 599.884 594.202 599.884L592.275 599.884L592.275 596.384L594.202 596.384C594.241 596.384 594.280 596.423 594.280 596.463ZM592.275 615.219L592.275 605.821L598.370 605.821C601.083 605.821 602.459 604.760 602.459 602.636L602.459 593.278C602.459 591.154 601.083 590.093 598.370 590.093L584.096 590.093L584.096 615.219Z" fill="#66BB6A"/></g><g id="serial-number">
    <text x="600" y="96" text-anchor="middle"
          font-family="Consolas, Menlo, 'Courier New', monospace"
          font-size="20"
          font-weight="700"
          letter-spacing="3"
          fill="#B3B3B3">
      <tspan fill="#66BB6A">★</tspan>
      <tspan dx="10">14 RUE LEVEILLÉ · 02600 VILLERS-COTTERÊTS</tspan>
      <tspan dx="10" fill="#66BB6A">★</tspan>
    </text>
  </g><path d="M302.416 158C304.624 158 305.744 157.168 305.744 155.472L305.744 147.760C305.744 146.064 304.624 145.232 302.416 145.232L297.520 145.232C297.488 145.232 297.456 145.200 297.456 145.168L297.456 142.736C297.456 142.704 297.488 142.672 297.520 142.672L299.024 142.672C299.056 142.672 299.088 142.704 299.088 142.736L299.088 143.920L305.744 143.920L305.744 140.144C305.744 138.416 304.624 137.552 302.416 137.552L294.128 137.552C291.920 137.552 290.800 138.416 290.800 140.144L290.800 147.760C290.800 149.488 291.920 150.352 294.128 150.352L299.024 150.352C299.056 150.352 299.088 150.384 299.088 150.416L299.088 152.848C299.088 152.880 299.056 152.912 299.024 152.912L297.520 152.912C297.488 152.912 297.456 152.880 297.456 152.848L297.456 151.632L290.800 151.632L290.800 155.472C290.800 157.168 291.920 158 294.128 158ZM322.288 158L322.288 140.144C322.288 138.416 321.168 137.552 318.960 137.552C316.784 137.552 315.120 138 314 138.864L314 137.552L307.344 137.552L307.344 158L314 158L314 142.736C314 142.704 314.032 142.672 314.064 142.672L315.568 142.672C315.600 142.672 315.632 142.704 315.632 142.736L315.632 158ZM332.176 145.232L330.544 145.232L330.544 142.736C330.544 142.704 330.576 142.672 330.608 142.672L332.112 142.672C332.144 142.672 332.176 142.704 332.176 142.736ZM338.832 158L338.832 140.144C338.832 138.416 337.712 137.552 335.504 137.552L327.216 137.552C325.008 137.552 323.888 138.416 323.888 140.144L323.888 158L330.544 158L330.544 150.352L332.176 150.352L332.176 158ZM352.016 158C354.224 158 355.344 157.168 355.344 155.472L355.344 148.080L348.688 148.080L348.688 152.848C348.688 152.880 348.656 152.912 348.624 152.912L347.120 152.912C347.088 152.912 347.056 152.880 347.056 152.848L347.056 142.736C347.056 142.704 347.088 142.672 347.120 142.672L348.624 142.672C348.656 142.672 348.688 142.704 348.688 142.736L348.688 146.192L355.344 146.192L355.344 140.144C355.344 138.416 354.224 137.552 352.016 137.552L343.728 137.552C341.520 137.552 340.400 138.416 340.400 140.144L340.400 155.472C340.400 157.168 341.520 158 343.728 158ZM372.560 158L367.792 147.408L372.368 137.552L365.360 137.552L363.376 142.768L363.376 137.552L356.944 137.552L356.944 158L363.376 158L363.376 152.528L365.552 158ZM384.880 158C387.088 158 388.208 157.168 388.208 155.472L388.208 147.760C388.208 146.064 387.088 145.232 384.880 145.232L379.984 145.232C379.952 145.232 379.920 145.200 379.920 145.168L379.920 142.736C379.920 142.704 379.952 142.672 379.984 142.672L381.488 142.672C381.520 142.672 381.552 142.704 381.552 142.736L381.552 143.920L388.208 143.920L388.208 140.144C388.208 138.416 387.088 137.552 384.880 137.552L376.592 137.552C374.384 137.552 373.264 138.416 373.264 140.144L373.264 147.760C373.264 149.488 374.384 150.352 376.592 150.352L381.488 150.352C381.520 150.352 381.552 150.384 381.552 150.416L381.552 152.848C381.552 152.880 381.520 152.912 381.488 152.912L379.984 152.912C379.952 152.912 379.920 152.880 379.920 152.848L379.920 151.632L373.264 151.632L373.264 155.472C373.264 157.168 374.384 158 376.592 158Z" fill="#F5F5F5"/><text x="412.20799999999997" y="158" text-anchor="middle" font-family="Arial, sans-serif" font-size="32" fill="#808080">·</text><path d="M444.496 145.680C444.496 145.712 444.464 145.744 444.432 145.744L442.864 145.744L442.864 142.672L444.432 142.672C444.464 142.672 444.496 142.704 444.496 142.736ZM447.824 158C450.032 158 451.152 157.168 451.152 155.472L451.152 149.456C451.152 148.464 450.608 147.920 449.488 147.760C450.576 147.632 451.120 147.088 451.120 146.096L451.120 140.144C451.120 138.416 450.032 137.552 447.824 137.552L436.208 137.552L436.208 158ZM444.496 152.848C444.496 152.880 444.464 152.912 444.432 152.912L442.864 152.912L442.864 149.808L444.432 149.808C444.464 149.808 444.496 149.840 444.496 149.872ZM461.008 152.848C461.008 152.880 460.976 152.912 460.944 152.912L459.440 152.912C459.408 152.912 459.376 152.880 459.376 152.848L459.376 142.736C459.376 142.704 459.408 142.672 459.440 142.672L460.944 142.672C460.976 142.672 461.008 142.704 461.008 142.736ZM464.336 158C466.544 158 467.664 157.168 467.664 155.472L467.664 140.144C467.664 138.416 466.544 137.552 464.336 137.552L456.048 137.552C453.840 137.552 452.720 138.416 452.720 140.144L452.720 155.472C452.720 157.168 453.840 158 456.048 158ZM475.920 158L475.920 137.552L469.264 137.552L469.264 158ZM489.136 158C491.344 158 492.464 157.168 492.464 155.472L492.464 147.760C492.464 146.064 491.344 145.232 489.136 145.232L484.240 145.232C484.208 145.232 484.176 145.200 484.176 145.168L484.176 142.736C484.176 142.704 484.208 142.672 484.240 142.672L485.744 142.672C485.776 142.672 485.808 142.704 485.808 142.736L485.808 143.920L492.464 143.920L492.464 140.144C492.464 138.416 491.344 137.552 489.136 137.552L480.848 137.552C478.640 137.552 477.520 138.416 477.520 140.144L477.520 147.760C477.520 149.488 478.640 150.352 480.848 150.352L485.744 150.352C485.776 150.352 485.808 150.384 485.808 150.416L485.808 152.848C485.808 152.880 485.776 152.912 485.744 152.912L484.240 152.912C484.208 152.912 484.176 152.880 484.176 152.848L484.176 151.632L477.520 151.632L477.520 155.472C477.520 157.168 478.640 158 480.848 158ZM505.616 158C507.824 158 508.944 157.168 508.944 155.472L508.944 147.760C508.944 146.064 507.824 145.232 505.616 145.232L500.720 145.232C500.688 145.232 500.656 145.200 500.656 145.168L500.656 142.736C500.656 142.704 500.688 142.672 500.720 142.672L502.224 142.672C502.256 142.672 502.288 142.704 502.288 142.736L502.288 143.920L508.944 143.920L508.944 140.144C508.944 138.416 507.824 137.552 505.616 137.552L497.328 137.552C495.120 137.552 494 138.416 494 140.144L494 147.760C494 149.488 495.120 150.352 497.328 150.352L502.224 150.352C502.256 150.352 502.288 150.384 502.288 150.416L502.288 152.848C502.288 152.880 502.256 152.912 502.224 152.912L500.720 152.912C500.688 152.912 500.656 152.880 500.656 152.848L500.656 151.632L494 151.632L494 155.472C494 157.168 495.120 158 497.328 158ZM518.768 152.848C518.768 152.880 518.736 152.912 518.704 152.912L517.200 152.912C517.168 152.912 517.136 152.880 517.136 152.848L517.136 142.736C517.136 142.704 517.168 142.672 517.200 142.672L518.704 142.672C518.736 142.672 518.768 142.704 518.768 142.736ZM522.096 158C524.304 158 525.424 157.168 525.424 155.472L525.424 140.144C525.424 138.416 524.304 137.552 522.096 137.552L513.808 137.552C511.600 137.552 510.480 138.416 510.480 140.144L510.480 155.472C510.480 157.168 511.600 158 513.808 158ZM541.968 158L541.968 140.144C541.968 138.416 540.848 137.552 538.640 137.552C536.464 137.552 534.800 138 533.680 138.864L533.680 137.552L527.024 137.552L527.024 158L533.680 158L533.680 142.736C533.680 142.704 533.712 142.672 533.744 142.672L535.248 142.672C535.280 142.672 535.312 142.704 535.312 142.736L535.312 158ZM555.152 158C557.360 158 558.480 157.168 558.480 155.472L558.480 147.760C558.480 146.064 557.360 145.232 555.152 145.232L550.256 145.232C550.224 145.232 550.192 145.200 550.192 145.168L550.192 142.736C550.192 142.704 550.224 142.672 550.256 142.672L551.760 142.672C551.792 142.672 551.824 142.704 551.824 142.736L551.824 143.920L558.480 143.920L558.480 140.144C558.480 138.416 557.360 137.552 555.152 137.552L546.864 137.552C544.656 137.552 543.536 138.416 543.536 140.144L543.536 147.760C543.536 149.488 544.656 150.352 546.864 150.352L551.760 150.352C551.792 150.352 551.824 150.384 551.824 150.416L551.824 152.848C551.824 152.880 551.792 152.912 551.760 152.912L550.256 152.912C550.224 152.912 550.192 152.880 550.192 152.848L550.192 151.632L543.536 151.632L543.536 155.472C543.536 157.168 544.656 158 546.864 158Z" fill="#F5F5F5"/><text x="582.48" y="158" text-anchor="middle" font-family="Arial, sans-serif" font-size="32" fill="#808080">·</text><path d="M614.768 145.456C614.768 145.488 614.736 145.520 614.704 145.520L613.136 145.520L613.136 142.672L614.704 142.672C614.736 142.672 614.768 142.704 614.768 142.736ZM613.136 158L613.136 150.352L618.096 150.352C620.304 150.352 621.424 149.488 621.424 147.760L621.424 140.144C621.424 138.416 620.304 137.552 618.096 137.552L606.480 137.552L606.480 158ZM634.320 158C636.528 158 637.648 157.168 637.648 155.472L637.648 137.552L630.992 137.552L630.992 152.848C630.992 152.880 630.960 152.912 630.928 152.912L629.424 152.912C629.392 152.912 629.360 152.880 629.360 152.848L629.360 137.552L622.704 137.552L622.704 155.472C622.704 157.168 623.824 158 626.032 158ZM645.904 158L645.904 149.040L651.664 149.040L651.664 143.920L645.904 143.920L645.904 142.736C645.904 142.704 645.936 142.672 645.968 142.672L651.728 142.672L651.728 137.552L642.576 137.552C640.368 137.552 639.248 138.448 639.248 140.144L639.248 158ZM659.664 158L659.664 149.040L665.424 149.040L665.424 143.920L659.664 143.920L659.664 142.736C659.664 142.704 659.696 142.672 659.728 142.672L665.488 142.672L665.488 137.552L656.336 137.552C654.128 137.552 653.008 138.448 653.008 140.144L653.008 158ZM690.000 158L690.000 152.912L687.920 152.912L687.920 150.160L690.000 150.160L690.000 145.424L680.560 145.424C680.528 145.424 680.496 145.392 680.496 145.360L680.496 142.736C680.496 142.704 680.528 142.672 680.560 142.672L682.064 142.672C682.096 142.672 682.128 142.704 682.128 142.736L682.128 143.280L687.920 143.280L687.920 140.144C687.920 138.416 686.800 137.552 684.592 137.552L677.168 137.552C674.960 137.552 673.840 138.416 673.840 140.144L673.840 146.160C673.840 147.088 674.384 147.632 675.504 147.760C674.384 147.984 673.840 148.528 673.840 149.392L673.840 155.472C673.840 157.168 674.960 158 677.168 158ZM682.128 152.912L680.560 152.912C680.528 152.912 680.496 152.880 680.496 152.848L680.496 150.224C680.496 150.192 680.528 150.160 680.560 150.160L682.128 150.160ZM709.808 158C712.016 158 713.136 157.168 713.136 155.472L713.136 148.080L706.480 148.080L706.480 152.848C706.480 152.880 706.448 152.912 706.416 152.912L704.912 152.912C704.880 152.912 704.848 152.880 704.848 152.848L704.848 142.736C704.848 142.704 704.880 142.672 704.912 142.672L706.416 142.672C706.448 142.672 706.480 142.704 706.480 142.736L706.480 146.192L713.136 146.192L713.136 140.144C713.136 138.416 712.016 137.552 709.808 137.552L701.520 137.552C699.312 137.552 698.192 138.416 698.192 140.144L698.192 155.472C698.192 157.168 699.312 158 701.520 158ZM723.024 145.680C723.024 145.712 722.992 145.744 722.960 145.744L721.392 145.744L721.392 142.672L722.960 142.672C722.992 142.672 723.024 142.704 723.024 142.736ZM726.352 158C728.560 158 729.680 157.168 729.680 155.472L729.680 149.456C729.680 148.464 729.136 147.920 728.016 147.760C729.104 147.632 729.648 147.088 729.648 146.096L729.648 140.144C729.648 138.416 728.560 137.552 726.352 137.552L714.736 137.552L714.736 158ZM723.024 152.848C723.024 152.880 722.992 152.912 722.960 152.912L721.392 152.912L721.392 149.808L722.960 149.808C722.992 149.808 723.024 149.840 723.024 149.872ZM739.600 152.848C739.600 152.880 739.568 152.912 739.536 152.912L737.968 152.912L737.968 142.672L739.536 142.672C739.568 142.672 739.600 142.704 739.600 142.736ZM742.928 158C745.136 158 746.256 157.168 746.256 155.472L746.256 140.144C746.256 138.416 745.136 137.552 742.928 137.552L731.312 137.552L731.312 158Z" fill="#F5F5F5"/><text x="770.2560000000001" y="158" text-anchor="middle" font-family="Arial, sans-serif" font-size="32" fill="#808080">·</text><path d="M800.912 158L800.912 137.552L794.256 137.552L794.256 158ZM825.808 158L825.808 140.400C825.808 138.736 824.016 137.552 821.712 137.552C819.632 137.552 818.192 137.840 817.200 139.088C816.464 138.064 815.504 137.552 813.552 137.552C811.632 137.552 810.032 138 809.232 138.864L809.232 137.552L802.576 137.552L802.576 158L809.232 158L809.232 142.736C809.232 142.704 809.264 142.672 809.296 142.672L810.800 142.672C810.832 142.672 810.864 142.704 810.864 142.736L810.864 158L817.520 158L817.520 142.736C817.520 142.704 817.552 142.672 817.584 142.672L819.152 142.672C819.184 142.672 819.216 142.704 819.216 142.736L819.216 158ZM835.728 145.456C835.728 145.488 835.696 145.520 835.664 145.520L834.096 145.520L834.096 142.672L835.664 142.672C835.696 142.672 835.728 142.704 835.728 142.736ZM834.096 158L834.096 150.352L839.056 150.352C841.264 150.352 842.384 149.488 842.384 147.760L842.384 140.144C842.384 138.416 841.264 137.552 839.056 137.552L827.440 137.552L827.440 158ZM851.920 152.848C851.920 152.880 851.888 152.912 851.856 152.912L850.352 152.912C850.320 152.912 850.288 152.880 850.288 152.848L850.288 142.736C850.288 142.704 850.320 142.672 850.352 142.672L851.856 142.672C851.888 142.672 851.920 142.704 851.920 142.736ZM855.248 158C857.456 158 858.576 157.168 858.576 155.472L858.576 140.144C858.576 138.416 857.456 137.552 855.248 137.552L846.960 137.552C844.752 137.552 843.632 138.416 843.632 140.144L843.632 155.472C843.632 157.168 844.752 158 846.960 158ZM875.120 158L875.120 149.456C875.120 148.464 874.576 147.920 873.456 147.760C874.544 147.632 875.088 147.088 875.088 146.096L875.088 140.144C875.088 138.416 874.000 137.552 871.792 137.552L860.176 137.552L860.176 158L866.832 158L866.832 149.808L868.400 149.808C868.432 149.808 868.464 149.840 868.464 149.872L868.464 158ZM868.464 145.680C868.464 145.712 868.432 145.744 868.400 145.744L866.832 145.744L866.832 142.672L868.400 142.672C868.432 142.672 868.464 142.704 868.464 142.736ZM889.360 158C891.568 158 892.688 157.168 892.688 155.472L892.688 145.232L886.064 145.232L886.064 152.848C886.064 152.880 886.032 152.912 886.000 152.912L884.464 152.912C884.432 152.912 884.400 152.880 884.400 152.848L884.400 143.920L892.688 143.920L892.688 138.864L884.400 138.864L884.400 137.552L877.744 137.552L877.744 138.864L876.112 138.864L876.112 143.920L877.744 143.920L877.744 155.472C877.744 157.168 878.864 158 881.072 158ZM905.872 158C908.080 158 909.200 157.168 909.200 155.472L909.200 147.760C909.200 146.064 908.080 145.232 905.872 145.232L900.976 145.232C900.944 145.232 900.912 145.200 900.912 145.168L900.912 142.736C900.912 142.704 900.944 142.672 900.976 142.672L902.480 142.672C902.512 142.672 902.544 142.704 902.544 142.736L902.544 143.920L909.200 143.920L909.200 140.144C909.200 138.416 908.080 137.552 905.872 137.552L897.584 137.552C895.376 137.552 894.256 138.416 894.256 140.144L894.256 147.760C894.256 149.488 895.376 150.352 897.584 150.352L902.480 150.352C902.512 150.352 902.544 150.384 902.544 150.416L902.544 152.848C902.544 152.880 902.512 152.912 902.480 152.912L900.976 152.912C900.944 152.912 900.912 152.880 900.912 152.848L900.912 151.632L894.256 151.632L894.256 155.472C894.256 157.168 895.376 158 897.584 158Z" fill="#F5F5F5"/><g id="scan-strip">
    <path d="M346.683 1346C349.029 1346 350.219 1345.116 350.219 1343.314L350.219 1335.120C350.219 1333.318 349.029 1332.434 346.683 1332.434L341.481 1332.434C341.447 1332.434 341.413 1332.400 341.413 1332.366L341.413 1329.782C341.413 1329.748 341.447 1329.714 341.481 1329.714L343.079 1329.714C343.113 1329.714 343.147 1329.748 343.147 1329.782L343.147 1331.040L350.219 1331.040L350.219 1327.028C350.219 1325.192 349.029 1324.274 346.683 1324.274L337.877 1324.274C335.531 1324.274 334.341 1325.192 334.341 1327.028L334.341 1335.120C334.341 1336.956 335.531 1337.874 337.877 1337.874L343.079 1337.874C343.113 1337.874 343.147 1337.908 343.147 1337.942L343.147 1340.526C343.147 1340.560 343.113 1340.594 343.079 1340.594L341.481 1340.594C341.447 1340.594 341.413 1340.560 341.413 1340.526L341.413 1339.234L334.341 1339.234L334.341 1343.314C334.341 1345.116 335.531 1346 337.877 1346ZM364.193 1346C366.539 1346 367.729 1345.116 367.729 1343.314L367.729 1335.460L360.657 1335.460L360.657 1340.526C360.657 1340.560 360.623 1340.594 360.589 1340.594L358.991 1340.594C358.957 1340.594 358.923 1340.560 358.923 1340.526L358.923 1329.782C358.923 1329.748 358.957 1329.714 358.991 1329.714L360.589 1329.714C360.623 1329.714 360.657 1329.748 360.657 1329.782L360.657 1333.454L367.729 1333.454L367.729 1327.028C367.729 1325.192 366.539 1324.274 364.193 1324.274L355.387 1324.274C353.041 1324.274 351.851 1325.192 351.851 1327.028L351.851 1343.314C351.851 1345.116 353.041 1346 355.387 1346ZM378.201 1332.434L376.467 1332.434L376.467 1329.782C376.467 1329.748 376.501 1329.714 376.535 1329.714L378.133 1329.714C378.167 1329.714 378.201 1329.748 378.201 1329.782ZM385.273 1346L385.273 1327.028C385.273 1325.192 384.083 1324.274 381.737 1324.274L372.931 1324.274C370.585 1324.274 369.395 1325.192 369.395 1327.028L369.395 1346L376.467 1346L376.467 1337.874L378.201 1337.874L378.201 1346ZM402.885 1346L402.885 1327.028C402.885 1325.192 401.695 1324.274 399.349 1324.274C397.037 1324.274 395.269 1324.750 394.079 1325.668L394.079 1324.274L387.007 1324.274L387.007 1346L394.079 1346L394.079 1329.782C394.079 1329.748 394.113 1329.714 394.147 1329.714L395.745 1329.714C395.779 1329.714 395.813 1329.748 395.813 1329.782L395.813 1346ZM429.269 1346L429.269 1340.594L427.059 1340.594L427.059 1337.670L429.269 1337.670L429.269 1332.638L419.239 1332.638C419.205 1332.638 419.171 1332.604 419.171 1332.570L419.171 1329.782C419.171 1329.748 419.205 1329.714 419.239 1329.714L420.837 1329.714C420.871 1329.714 420.905 1329.748 420.905 1329.782L420.905 1330.360L427.059 1330.360L427.059 1327.028C427.059 1325.192 425.869 1324.274 423.523 1324.274L415.635 1324.274C413.289 1324.274 412.099 1325.192 412.099 1327.028L412.099 1333.420C412.099 1334.406 412.677 1334.984 413.867 1335.120C412.677 1335.358 412.099 1335.936 412.099 1336.854L412.099 1343.314C412.099 1345.116 413.289 1346 415.635 1346ZM420.905 1340.594L419.239 1340.594C419.205 1340.594 419.171 1340.560 419.171 1340.526L419.171 1337.738C419.171 1337.704 419.205 1337.670 419.239 1337.670L420.905 1337.670ZM450.315 1346C452.661 1346 453.851 1345.116 453.851 1343.314L453.851 1335.460L446.779 1335.460L446.779 1340.526C446.779 1340.560 446.745 1340.594 446.711 1340.594L445.113 1340.594C445.079 1340.594 445.045 1340.560 445.045 1340.526L445.045 1329.782C445.045 1329.748 445.079 1329.714 445.113 1329.714L446.711 1329.714C446.745 1329.714 446.779 1329.748 446.779 1329.782L446.779 1333.454L453.851 1333.454L453.851 1327.028C453.851 1325.192 452.661 1324.274 450.315 1324.274L441.509 1324.274C439.163 1324.274 437.973 1325.192 437.973 1327.028L437.973 1343.314C437.973 1345.116 439.163 1346 441.509 1346ZM464.289 1340.526C464.289 1340.560 464.255 1340.594 464.221 1340.594L462.623 1340.594C462.589 1340.594 462.555 1340.560 462.555 1340.526L462.555 1329.782C462.555 1329.748 462.589 1329.714 462.623 1329.714L464.221 1329.714C464.255 1329.714 464.289 1329.748 464.289 1329.782ZM467.825 1346C470.171 1346 471.361 1345.116 471.361 1343.314L471.361 1327.028C471.361 1325.192 470.171 1324.274 467.825 1324.274L459.019 1324.274C456.673 1324.274 455.483 1325.192 455.483 1327.028L455.483 1343.314C455.483 1345.116 456.673 1346 459.019 1346ZM497.745 1346L497.745 1327.300C497.745 1325.532 495.841 1324.274 493.393 1324.274C491.183 1324.274 489.653 1324.580 488.599 1325.906C487.817 1324.818 486.797 1324.274 484.723 1324.274C482.683 1324.274 480.983 1324.750 480.133 1325.668L480.133 1324.274L473.061 1324.274L473.061 1346L480.133 1346L480.133 1329.782C480.133 1329.748 480.167 1329.714 480.201 1329.714L481.799 1329.714C481.833 1329.714 481.867 1329.748 481.867 1329.782L481.867 1346L488.939 1346L488.939 1329.782C488.939 1329.748 488.973 1329.714 489.007 1329.714L490.673 1329.714C490.707 1329.714 490.741 1329.748 490.741 1329.782L490.741 1346ZM524.163 1346L524.163 1327.300C524.163 1325.532 522.259 1324.274 519.811 1324.274C517.601 1324.274 516.071 1324.580 515.017 1325.906C514.235 1324.818 513.215 1324.274 511.141 1324.274C509.101 1324.274 507.401 1324.750 506.551 1325.668L506.551 1324.274L499.479 1324.274L499.479 1346L506.551 1346L506.551 1329.782C506.551 1329.748 506.585 1329.714 506.619 1329.714L508.217 1329.714C508.251 1329.714 508.285 1329.748 508.285 1329.782L508.285 1346L515.357 1346L515.357 1329.782C515.357 1329.748 515.391 1329.714 515.425 1329.714L517.091 1329.714C517.125 1329.714 517.159 1329.748 517.159 1329.782L517.159 1346ZM534.669 1332.434L532.935 1332.434L532.935 1329.782C532.935 1329.748 532.969 1329.714 533.003 1329.714L534.601 1329.714C534.635 1329.714 534.669 1329.748 534.669 1329.782ZM541.741 1346L541.741 1327.028C541.741 1325.192 540.551 1324.274 538.205 1324.274L529.399 1324.274C527.053 1324.274 525.863 1325.192 525.863 1327.028L525.863 1346L532.935 1346L532.935 1337.874L534.669 1337.874L534.669 1346ZM559.353 1346L559.353 1327.028C559.353 1325.192 558.163 1324.274 555.817 1324.274C553.505 1324.274 551.737 1324.750 550.547 1325.668L550.547 1324.274L543.475 1324.274L543.475 1346L550.547 1346L550.547 1329.782C550.547 1329.748 550.581 1329.714 550.615 1329.714L552.213 1329.714C552.247 1329.714 552.281 1329.748 552.281 1329.782L552.281 1346ZM569.893 1340.526C569.893 1340.560 569.859 1340.594 569.825 1340.594L568.159 1340.594L568.159 1329.714L569.825 1329.714C569.859 1329.714 569.893 1329.748 569.893 1329.782ZM573.429 1346C575.775 1346 576.965 1345.116 576.965 1343.314L576.965 1327.028C576.965 1325.192 575.775 1324.274 573.429 1324.274L561.087 1324.274L561.087 1346ZM590.667 1346L590.667 1340.594L585.737 1340.594L585.737 1337.874L590.565 1337.874L590.565 1332.434L585.737 1332.434L585.737 1329.714L590.633 1329.714L590.633 1324.274L578.665 1324.274L578.665 1346ZM608.143 1334.474C608.143 1332.230 606.341 1330.428 604.097 1330.428C601.819 1330.428 600.085 1332.230 600.085 1334.474C600.085 1336.786 601.785 1338.486 604.097 1338.486C606.341 1338.486 608.143 1336.752 608.143 1334.474ZM625.041 1346L625.041 1324.274L617.969 1324.274L617.969 1346ZM639.015 1346C641.361 1346 642.551 1345.116 642.551 1343.314L642.551 1336.922C642.551 1335.868 641.973 1335.290 640.783 1335.120C641.973 1334.984 642.551 1334.406 642.551 1333.352L642.551 1327.028C642.551 1325.192 641.361 1324.274 639.015 1324.274L630.209 1324.274C627.863 1324.274 626.673 1325.192 626.673 1327.028L626.673 1333.352C626.673 1334.406 627.251 1334.984 628.441 1335.120C627.251 1335.290 626.673 1335.868 626.673 1336.922L626.673 1343.314C626.673 1345.116 627.863 1346 630.209 1346ZM635.479 1340.526C635.479 1340.560 635.445 1340.594 635.411 1340.594L633.813 1340.594C633.779 1340.594 633.745 1340.560 633.745 1340.526L633.745 1337.364C633.745 1337.330 633.779 1337.296 633.813 1337.296L635.411 1337.296C635.445 1337.296 635.479 1337.330 635.479 1337.364ZM635.479 1332.910C635.479 1332.944 635.445 1332.978 635.411 1332.978L633.813 1332.978C633.779 1332.978 633.745 1332.944 633.745 1332.910L633.745 1329.782C633.745 1329.748 633.779 1329.714 633.813 1329.714L635.411 1329.714C635.445 1329.714 635.479 1329.748 635.479 1329.782ZM651.969 1346L651.969 1340.594L644.897 1340.594L644.897 1346ZM651.969 1335.834L651.969 1330.394L644.897 1330.394L644.897 1335.834ZM662.917 1340.526C662.917 1340.560 662.883 1340.594 662.849 1340.594L661.251 1340.594C661.217 1340.594 661.183 1340.560 661.183 1340.526L661.183 1329.782C661.183 1329.748 661.217 1329.714 661.251 1329.714L662.849 1329.714C662.883 1329.714 662.917 1329.748 662.917 1329.782ZM666.453 1346C668.799 1346 669.989 1345.116 669.989 1343.314L669.989 1327.028C669.989 1325.192 668.799 1324.274 666.453 1324.274L657.647 1324.274C655.301 1324.274 654.111 1325.192 654.111 1327.028L654.111 1343.314C654.111 1345.116 655.301 1346 657.647 1346ZM680.427 1340.526C680.427 1340.560 680.393 1340.594 680.359 1340.594L678.761 1340.594C678.727 1340.594 678.693 1340.560 678.693 1340.526L678.693 1329.782C678.693 1329.748 678.727 1329.714 678.761 1329.714L680.359 1329.714C680.393 1329.714 680.427 1329.748 680.427 1329.782ZM683.963 1346C686.309 1346 687.499 1345.116 687.499 1343.314L687.499 1327.028C687.499 1325.192 686.309 1324.274 683.963 1324.274L675.157 1324.274C672.811 1324.274 671.621 1325.192 671.621 1327.028L671.621 1343.314C671.621 1345.116 672.811 1346 675.157 1346ZM697.529 1337.874L697.529 1332.434L688.723 1332.434L688.723 1337.874ZM707.559 1340.526C707.559 1340.560 707.525 1340.594 707.491 1340.594L705.893 1340.594C705.859 1340.594 705.825 1340.560 705.825 1340.526L705.825 1329.782C705.825 1329.748 705.859 1329.714 705.893 1329.714L707.491 1329.714C707.525 1329.714 707.559 1329.748 707.559 1329.782ZM711.095 1346C713.441 1346 714.631 1345.116 714.631 1343.314L714.631 1327.028C714.631 1325.192 713.441 1324.274 711.095 1324.274L702.289 1324.274C699.943 1324.274 698.753 1325.192 698.753 1327.028L698.753 1343.314C698.753 1345.116 699.943 1346 702.289 1346ZM732.175 1346L732.175 1339.234L725.103 1339.234L725.103 1340.594L723.369 1340.594L723.369 1337.942C723.369 1337.908 723.403 1337.874 723.437 1337.874L728.639 1337.874C730.985 1337.874 732.175 1336.956 732.175 1335.120L732.175 1327.028C732.175 1325.192 730.985 1324.274 728.639 1324.274L719.833 1324.274C717.487 1324.274 716.297 1325.192 716.297 1327.028L716.297 1331.040L723.369 1331.040L723.369 1329.782C723.369 1329.748 723.403 1329.714 723.437 1329.714L725.035 1329.714C725.069 1329.714 725.103 1329.748 725.103 1329.782L725.103 1332.366C725.103 1332.400 725.069 1332.434 725.035 1332.434L719.833 1332.434C717.487 1332.434 716.297 1333.318 716.297 1335.120L716.297 1346ZM741.559 1346L741.559 1340.594L734.487 1340.594L734.487 1346ZM741.559 1335.834L741.559 1330.394L734.487 1330.394L734.487 1335.834ZM752.507 1340.526C752.507 1340.560 752.473 1340.594 752.439 1340.594L750.841 1340.594C750.807 1340.594 750.773 1340.560 750.773 1340.526L750.773 1329.782C750.773 1329.748 750.807 1329.714 750.841 1329.714L752.439 1329.714C752.473 1329.714 752.507 1329.748 752.507 1329.782ZM756.043 1346C758.389 1346 759.579 1345.116 759.579 1343.314L759.579 1327.028C759.579 1325.192 758.389 1324.274 756.043 1324.274L747.237 1324.274C744.891 1324.274 743.701 1325.192 743.701 1327.028L743.701 1343.314C743.701 1345.116 744.891 1346 747.237 1346ZM770.017 1340.526C770.017 1340.560 769.983 1340.594 769.949 1340.594L768.351 1340.594C768.317 1340.594 768.283 1340.560 768.283 1340.526L768.283 1329.782C768.283 1329.748 768.317 1329.714 768.351 1329.714L769.949 1329.714C769.983 1329.714 770.017 1329.748 770.017 1329.782ZM773.553 1346C775.899 1346 777.089 1345.116 777.089 1343.314L777.089 1327.028C777.089 1325.192 775.899 1324.274 773.553 1324.274L764.747 1324.274C762.401 1324.274 761.211 1325.192 761.211 1327.028L761.211 1343.314C761.211 1345.116 762.401 1346 764.747 1346ZM794.565 1334.474C794.565 1332.230 792.763 1330.428 790.519 1330.428C788.241 1330.428 786.507 1332.230 786.507 1334.474C786.507 1336.786 788.207 1338.486 790.519 1338.486C792.763 1338.486 794.565 1336.752 794.565 1334.474ZM811.463 1346L819.861 1329.306L819.861 1324.274L803.983 1324.274L803.983 1329.714L813.027 1329.714L804.153 1346ZM830.537 1346C832.883 1346 834.073 1345.116 834.073 1343.314L834.073 1324.274L827.001 1324.274L827.001 1340.526C827.001 1340.560 826.967 1340.594 826.933 1340.594L825.335 1340.594C825.301 1340.594 825.267 1340.560 825.267 1340.526L825.267 1335.120L818.195 1335.120L818.195 1343.314C818.195 1345.116 819.385 1346 821.731 1346ZM840.159 1349.400L848.965 1320.874L844.137 1320.874L835.331 1349.400ZM857.261 1346L865.659 1329.306L865.659 1324.274L849.781 1324.274L849.781 1329.714L858.825 1329.714L849.951 1346Z" fill="#F5F5F5"/>
    <text x="287.1410000000001" y="1346" text-anchor="start"
           font-family="Arial, sans-serif" font-size="27.200000000000003"
           fill="#66BB6A">✦</text>
    <text x="885.6589999999999" y="1346" text-anchor="start"
           font-family="Arial, sans-serif" font-size="27.200000000000003"
           fill="#66BB6A">✦</text>
  </g><g id="frame-corners">
    <rect x="32" y="32" width="64" height="3" fill="#66BB6A"/>
    <rect x="32" y="32" width="3" height="64" fill="#66BB6A"/>
    <rect x="1104" y="32" width="64" height="3" fill="#66BB6A"/>
    <rect x="1165" y="32" width="3" height="64" fill="#66BB6A"/>
    <rect x="32" y="1365" width="64" height="3" fill="#66BB6A"/>
    <rect x="32" y="1304" width="3" height="64" fill="#66BB6A"/>
    <rect x="1104" y="1365" width="64" height="3" fill="#66BB6A"/>
    <rect x="1165" y="1304" width="3" height="64" fill="#66BB6A"/></g><rect x="0" y="0" width="1200" height="1400"
    fill="url(#qr-grain)" opacity="0.035"/></svg>